{"glyphs":{"0":{"ha":833,"x_min":0,"x_max":0,"o":"m 417 -17 b 78 485 181 -17 78 168 b 417 986 78 801 181 986 b 756 485 653 986 756 801 b 417 -17 756 168 653 -17 m 417 85 b 635 406 572 85 635 211 l 635 564 b 417 885 635 758 572 885 b 199 564 261 885 199 758 l 199 406 b 417 85 199 211 261 85 m 417 403 b 331 469 353 403 331 432 l 331 500 b 417 567 331 538 353 567 b 503 500 481 567 503 538 l 503 469 b 417 403 503 432 481 403 "},"1":{"ha":833,"x_min":0,"x_max":0,"o":"m 118 0 l 118 101 l 396 101 l 396 883 l 386 883 l 142 656 l 74 729 l 331 969 l 513 969 l 513 101 l 768 101 l 768 0 "},"2":{"ha":833,"x_min":0,"x_max":0,"o":"m 746 0 l 99 0 l 99 119 l 422 411 b 585 685 517 496 585 586 l 585 701 b 403 885 585 818 522 885 b 194 719 285 885 225 819 l 90 758 b 406 986 128 872 215 986 b 707 706 599 986 707 869 b 490 338 707 558 619 450 l 219 101 l 746 101 "},"3":{"ha":833,"x_min":0,"x_max":0,"o":"m 375 558 b 578 719 510 558 578 626 l 578 729 b 400 885 578 832 506 885 b 196 761 297 885 236 835 l 108 828 b 403 986 158 906 244 986 b 700 742 568 986 700 899 b 511 515 700 617 617 542 l 511 510 b 719 265 618 489 719 411 b 385 -17 719 99 586 -17 b 67 149 214 -17 126 65 l 154 215 b 385 85 206 139 263 85 b 597 267 521 85 597 151 l 597 278 b 383 458 597 392 525 458 l 268 458 l 268 558 "},"4":{"ha":833,"x_min":0,"x_max":0,"o":"m 525 0 l 525 190 l 47 190 l 47 293 l 467 969 l 636 969 l 636 286 l 781 286 l 781 190 l 636 190 l 636 0 m 151 286 l 525 286 l 525 879 l 519 879 "},"5":{"ha":833,"x_min":0,"x_max":0,"o":"m 696 868 l 263 868 l 235 497 l 244 497 b 447 603 292 563 344 603 b 740 304 617 603 740 492 b 410 -17 740 115 617 -17 b 101 149 246 -17 161 65 l 189 215 b 413 85 240 139 293 85 b 619 289 546 85 619 163 l 619 300 b 410 504 619 428 544 504 b 232 422 318 504 274 468 l 133 436 l 168 969 l 696 969 "},"6":{"ha":833,"x_min":0,"x_max":0,"o":"m 418 -17 b 89 356 214 -17 89 125 b 440 969 89 643 282 868 l 590 969 b 208 467 379 818 263 692 l 215 464 b 454 603 263 543 333 603 b 744 304 624 603 744 488 b 418 -17 744 114 615 -17 m 417 82 b 626 289 549 82 626 158 l 626 300 b 417 507 626 431 549 507 b 207 300 285 507 207 431 l 207 289 b 417 82 207 158 285 82 "},"7":{"ha":833,"x_min":0,"x_max":0,"o":"m 240 0 l 619 869 l 194 869 l 194 689 l 90 689 l 90 969 l 738 969 l 738 867 l 365 0 "},"8":{"ha":833,"x_min":0,"x_max":0,"o":"m 417 -17 b 76 264 192 -17 76 104 b 274 504 76 396 156 472 l 274 515 b 106 743 171 550 106 632 b 417 986 106 890 221 986 b 728 743 613 986 728 890 b 560 515 728 632 663 550 l 560 504 b 757 264 678 472 757 396 b 417 -17 757 104 642 -17 m 417 82 b 636 257 553 82 636 147 l 636 288 b 417 463 636 399 556 463 b 197 288 278 463 197 399 l 197 257 b 417 82 197 147 281 82 m 417 557 b 610 713 542 557 610 614 l 610 732 b 417 888 610 831 539 888 b 224 732 294 888 224 831 l 224 713 b 417 557 224 614 292 557 "},"9":{"ha":833,"x_min":0,"x_max":0,"o":"m 744 614 b 393 0 744 326 551 101 l 243 0 b 625 503 454 151 571 278 l 618 506 b 379 367 571 426 500 367 b 89 665 210 367 89 482 b 415 986 89 856 218 986 b 744 614 619 986 744 844 m 417 463 b 626 669 549 463 626 539 l 626 681 b 417 888 626 811 549 888 b 207 681 285 888 207 811 l 207 669 b 417 463 207 539 285 463 "},"a":{"ha":833,"x_min":0,"x_max":0,"o":"m 688 0 b 560 117 601 0 568 50 l 553 117 b 338 -17 522 35 454 -17 b 92 201 188 -17 92 67 b 400 410 92 333 185 410 l 553 410 l 553 481 b 382 639 553 585 490 639 b 190 533 286 639 228 599 l 115 589 b 389 733 151 664 243 733 b 664 492 557 733 664 643 l 664 97 l 764 97 l 764 0 m 357 76 b 553 208 471 76 553 135 l 553 326 l 400 326 b 208 218 268 326 208 288 l 208 189 b 357 76 208 115 265 76 "},"b":{"ha":833,"x_min":0,"x_max":0,"o":"m 132 1028 l 243 1028 l 243 600 l 249 600 b 469 733 294 688 369 733 b 750 358 644 733 750 593 b 469 -17 750 124 644 -17 b 249 117 369 -17 294 29 l 243 117 l 243 0 l 132 0 m 426 82 b 631 297 556 82 631 168 l 631 419 b 426 635 631 549 556 635 b 243 488 328 635 243 583 l 243 229 b 426 82 243 133 328 82 "},"c":{"ha":833,"x_min":0,"x_max":0,"o":"m 442 -17 b 117 358 236 -17 117 132 b 440 733 117 586 238 733 b 706 568 579 733 665 665 l 617 521 b 440 638 590 594 529 638 b 236 419 310 638 236 546 l 236 297 b 443 79 236 171 308 79 b 638 204 539 79 601 126 l 717 150 b 442 -17 675 54 585 -17 "},"d":{"ha":833,"x_min":0,"x_max":0,"o":"m 590 117 l 585 117 b 364 -17 539 29 464 -17 b 83 358 189 -17 83 124 b 364 733 83 593 189 733 b 585 600 464 733 539 688 l 590 600 l 590 1028 l 701 1028 l 701 0 l 590 0 m 407 82 b 590 229 506 82 590 133 l 590 488 b 407 635 590 583 506 635 b 203 419 278 635 203 549 l 203 297 b 407 82 203 168 278 82 "},"e":{"ha":833,"x_min":0,"x_max":0,"o":"m 429 -17 b 93 357 224 -17 93 131 b 422 733 93 586 228 733 b 740 383 615 733 740 586 l 740 331 l 210 331 l 210 297 b 429 79 210 171 294 79 b 635 204 525 79 597 126 l 717 149 b 429 -17 674 53 571 -17 m 422 642 b 210 424 300 642 210 549 l 210 414 l 621 414 l 621 429 b 422 642 621 556 540 642 "},"f":{"ha":833,"x_min":0,"x_max":0,"o":"m 115 94 l 357 94 l 357 622 l 101 622 l 101 717 l 357 717 l 357 864 b 515 1028 357 960 407 1028 l 756 1028 l 756 933 l 468 933 l 468 717 l 756 717 l 756 622 l 468 622 l 468 94 l 724 94 l 724 0 l 115 0 "},"g":{"ha":833,"x_min":0,"x_max":0,"o":"m 779 -82 b 418 -294 779 -226 657 -294 b 93 -117 188 -294 93 -231 b 210 21 93 -40 136 1 l 210 38 b 146 136 169 57 146 88 b 275 261 146 210 201 243 l 275 267 b 135 486 188 306 135 385 b 413 733 135 632 244 733 b 554 704 467 733 514 724 l 554 717 b 640 814 554 772 578 814 l 772 814 l 772 717 l 611 717 l 611 668 b 692 486 663 624 692 561 b 413 239 692 340 581 239 b 344 244 389 239 367 240 b 242 163 301 236 242 211 b 357 110 242 119 289 110 l 515 110 b 779 -82 700 110 779 35 m 675 -87 b 519 7 675 -31 635 7 l 271 7 b 199 -90 224 -12 199 -44 b 361 -206 199 -153 244 -206 l 469 -206 b 675 -87 599 -206 675 -165 m 413 325 b 575 467 524 325 575 382 l 575 507 b 413 647 575 592 524 647 b 251 507 303 647 251 592 l 251 467 b 413 325 251 382 303 325 "},"h":{"ha":833,"x_min":0,"x_max":0,"o":"m 136 1028 l 247 1028 l 247 600 l 253 600 b 457 733 283 671 339 733 b 706 460 607 733 706 633 l 706 0 l 594 0 l 594 440 b 425 635 594 571 535 635 b 247 497 336 635 247 592 l 247 0 l 136 0 "},"i":{"ha":833,"x_min":0,"x_max":0,"o":"m 461 875 b 374 946 397 875 374 906 l 374 968 b 461 1039 374 1008 397 1039 b 549 968 525 1039 549 1008 l 549 946 b 461 875 549 906 525 875 m 147 94 l 406 94 l 406 622 l 147 622 l 147 717 l 517 717 l 517 94 l 758 94 l 758 0 l 147 0 "},"j":{"ha":833,"x_min":0,"x_max":0,"o":"m 142 -183 l 489 -183 l 489 622 l 129 622 l 129 717 l 600 717 l 600 -114 b 442 -278 600 -210 550 -278 l 142 -278 m 544 875 b 457 946 481 875 457 906 l 457 968 b 544 1039 457 1008 481 1039 b 632 968 608 1039 632 1008 l 632 946 b 544 875 632 906 608 875 "},"k":{"ha":833,"x_min":0,"x_max":0,"o":"m 146 1028 l 257 1028 l 257 379 l 263 379 l 388 497 l 626 717 l 763 717 l 465 436 l 797 0 l 660 0 l 381 372 l 257 260 l 257 0 l 146 0 "},"l":{"ha":833,"x_min":0,"x_max":0,"o":"m 111 94 l 361 94 l 361 933 l 111 933 l 111 1028 l 472 1028 l 472 94 l 722 94 l 722 0 l 111 0 "},"m":{"ha":833,"x_min":0,"x_max":0,"o":"m 75 0 l 75 717 l 178 717 l 178 633 l 183 633 b 321 733 206 689 242 733 b 451 621 403 733 443 688 l 456 621 b 611 733 482 686 526 733 b 758 497 728 733 758 649 l 758 0 l 656 0 l 656 479 b 568 642 656 601 635 642 b 468 526 510 642 468 603 l 468 0 l 365 0 l 365 479 b 279 642 365 601 344 642 b 178 526 219 642 178 603 l 178 0 "},"n":{"ha":833,"x_min":0,"x_max":0,"o":"m 136 0 l 136 717 l 247 717 l 247 600 l 253 600 b 457 733 283 671 339 733 b 706 460 607 733 706 633 l 706 0 l 594 0 l 594 440 b 425 635 594 571 535 635 b 247 497 336 635 247 592 l 247 0 "},"o":{"ha":833,"x_min":0,"x_max":0,"o":"m 417 -17 b 92 358 215 -17 92 131 b 417 733 92 586 215 733 b 742 358 618 733 742 586 b 417 -17 742 131 618 -17 m 417 79 b 624 307 540 79 624 153 l 624 410 b 417 638 624 564 540 638 b 210 410 293 638 210 564 l 210 307 b 417 79 210 153 293 79 "},"p":{"ha":833,"x_min":0,"x_max":0,"o":"m 132 717 l 243 717 l 243 600 l 249 600 b 469 733 294 688 369 733 b 750 358 644 733 750 593 b 469 -17 750 124 644 -17 b 249 117 369 -17 294 29 l 243 117 l 243 -278 l 132 -278 m 426 82 b 631 297 556 82 631 168 l 631 419 b 426 635 631 549 556 635 b 243 488 328 635 243 583 l 243 229 b 426 82 243 133 328 82 "},"q":{"ha":833,"x_min":0,"x_max":0,"o":"m 590 117 l 585 117 b 364 -17 539 29 464 -17 b 83 358 189 -17 83 124 b 364 733 83 593 189 733 b 585 600 464 733 539 688 l 590 600 l 590 717 l 701 717 l 701 -278 l 590 -278 m 407 82 b 590 229 506 82 590 133 l 590 488 b 407 635 590 583 506 635 b 203 419 278 635 203 549 l 203 297 b 407 82 203 168 278 82 "},"r":{"ha":833,"x_min":0,"x_max":0,"o":"m 107 94 l 317 94 l 317 622 l 107 622 l 107 717 l 428 717 l 428 536 l 435 536 b 676 717 463 631 526 717 l 776 717 l 776 606 l 642 606 b 428 404 501 606 428 515 l 428 94 l 651 94 l 651 0 l 107 0 "},"s":{"ha":833,"x_min":0,"x_max":0,"o":"m 425 -17 b 93 124 275 -17 168 39 l 168 189 b 428 76 236 117 314 76 b 618 200 539 76 618 115 b 492 304 618 275 557 294 l 379 321 b 133 519 278 336 133 364 b 422 733 133 663 256 733 b 714 618 551 733 646 690 l 642 550 b 418 640 608 590 544 640 b 243 526 306 640 243 600 b 369 422 243 451 306 432 l 482 406 b 728 207 585 390 728 363 b 425 -17 728 65 608 -17 "},"t":{"ha":833,"x_min":0,"x_max":0,"o":"m 451 0 b 293 164 343 0 293 68 l 293 622 l 54 622 l 54 717 l 232 717 b 297 782 279 717 297 733 l 297 969 l 404 969 l 404 717 l 731 717 l 731 622 l 404 622 l 404 94 l 731 94 l 731 0 "},"u":{"ha":833,"x_min":0,"x_max":0,"o":"m 586 117 l 581 117 b 376 -17 550 46 494 -17 b 128 257 226 -17 128 83 l 128 717 l 239 717 l 239 276 b 408 82 239 146 299 82 b 586 219 497 82 586 125 l 586 717 l 697 717 l 697 0 l 586 0 "},"v":{"ha":833,"x_min":0,"x_max":0,"o":"m 346 0 l 89 717 l 201 717 l 304 417 l 415 93 l 421 93 l 532 417 l 635 717 l 744 717 l 488 0 "},"w":{"ha":833,"x_min":0,"x_max":0,"o":"m 42 717 l 140 717 l 222 97 l 235 97 l 357 717 l 479 717 l 601 97 l 614 97 l 696 717 l 792 717 l 682 0 l 538 0 l 424 600 l 413 600 l 296 0 l 151 0 "},"x":{"ha":833,"x_min":0,"x_max":0,"o":"m 85 0 l 351 364 l 92 717 l 225 717 l 333 565 l 419 446 l 425 446 l 508 565 l 615 717 l 743 717 l 481 365 l 750 0 l 617 0 l 496 168 l 414 282 l 408 282 l 329 168 l 213 0 "},"y":{"ha":833,"x_min":0,"x_max":0,"o":"m 649 717 l 760 717 l 404 -157 b 221 -278 371 -239 329 -278 l 115 -278 l 115 -183 l 282 -183 l 363 14 l 74 717 l 188 717 l 308 417 l 415 144 l 421 144 l 528 417 "},"z":{"ha":833,"x_min":0,"x_max":0,"o":"m 118 0 l 118 107 l 581 622 l 133 622 l 133 717 l 701 717 l 701 610 l 239 94 l 715 94 l 715 0 "},"A":{"ha":833,"x_min":0,"x_max":0,"o":"m 668 0 l 586 276 l 246 276 l 164 0 l 43 0 l 340 969 l 494 969 l 792 0 m 422 846 l 410 846 l 274 378 l 558 378 "},"B":{"ha":833,"x_min":0,"x_max":0,"o":"m 122 969 l 451 969 b 718 719 617 969 718 871 b 567 511 718 604 656 539 l 567 507 b 754 279 675 482 754 414 b 493 0 754 122 643 0 l 122 0 m 458 101 b 631 249 565 101 631 150 l 631 306 b 458 453 631 403 565 453 l 239 453 l 239 101 m 439 549 b 596 681 536 549 596 592 l 596 735 b 439 868 596 824 536 868 l 239 868 l 239 549 "},"C":{"ha":833,"x_min":0,"x_max":0,"o":"m 449 -17 b 97 485 213 -17 97 163 b 449 986 97 807 213 986 b 747 774 626 986 700 879 l 647 728 b 449 885 613 814 567 885 b 221 564 294 885 221 758 l 221 406 b 449 85 221 211 294 85 b 647 242 567 85 613 156 l 747 196 b 449 -17 700 90 626 -17 "},"D":{"ha":833,"x_min":0,"x_max":0,"o":"m 132 969 l 403 969 b 756 485 639 969 756 803 b 403 0 756 167 639 0 l 132 0 m 397 101 b 632 410 551 101 632 215 l 632 560 b 397 868 632 754 551 868 l 249 868 l 249 101 "},"E":{"ha":833,"x_min":0,"x_max":0,"o":"m 125 0 l 125 969 l 722 969 l 722 868 l 242 868 l 242 542 l 706 542 l 706 440 l 242 440 l 242 101 l 722 101 l 722 0 "},"F":{"ha":833,"x_min":0,"x_max":0,"o":"m 125 0 l 125 969 l 736 969 l 736 868 l 242 868 l 242 542 l 694 542 l 694 440 l 242 440 l 242 0 "},"G":{"ha":833,"x_min":0,"x_max":0,"o":"m 617 129 l 610 129 b 390 -17 578 54 524 -17 b 78 478 181 -17 78 161 b 424 986 78 808 190 986 b 725 774 606 986 683 879 l 625 728 b 428 885 590 814 544 885 b 201 564 272 885 201 758 l 201 414 b 417 82 201 219 258 82 b 617 286 542 82 617 167 l 617 386 l 413 386 l 413 479 l 725 479 l 725 0 l 617 0 "},"H":{"ha":833,"x_min":0,"x_max":0,"o":"m 606 440 l 228 440 l 228 0 l 111 0 l 111 969 l 228 969 l 228 542 l 606 542 l 606 969 l 722 969 l 722 0 l 606 0 "},"I":{"ha":833,"x_min":0,"x_max":0,"o":"m 117 0 l 117 93 l 358 93 l 358 876 l 117 876 l 117 969 l 717 969 l 717 876 l 475 876 l 475 93 l 717 93 l 717 0 "},"J":{"ha":833,"x_min":0,"x_max":0,"o":"m 667 969 l 667 251 b 381 -17 667 88 549 -17 b 103 203 233 -17 132 64 l 214 226 b 383 86 232 149 275 86 b 550 272 489 86 550 146 l 550 868 l 200 868 l 200 969 "},"K":{"ha":833,"x_min":0,"x_max":0,"o":"m 374 475 l 235 311 l 235 0 l 118 0 l 118 969 l 235 969 l 235 464 l 239 464 l 367 625 l 653 969 l 793 969 l 453 561 l 803 0 l 667 0 "},"L":{"ha":833,"x_min":0,"x_max":0,"o":"m 167 0 l 167 969 l 283 969 l 283 101 l 743 101 l 743 0 "},"M":{"ha":833,"x_min":0,"x_max":0,"o":"m 632 486 l 632 793 l 621 793 l 417 294 l 213 793 l 201 793 l 201 486 l 201 0 l 94 0 l 94 969 l 244 969 l 415 542 l 424 542 l 594 969 l 739 969 l 739 0 l 632 0 "},"N":{"ha":833,"x_min":0,"x_max":0,"o":"m 226 817 l 217 817 l 217 0 l 111 0 l 111 969 l 276 969 l 607 153 l 617 153 l 617 969 l 722 969 l 722 0 l 557 0 "},"O":{"ha":833,"x_min":0,"x_max":0,"o":"m 417 -17 b 78 485 181 -17 78 168 b 417 986 78 801 181 986 b 756 485 653 986 756 801 b 417 -17 756 168 653 -17 m 417 85 b 632 406 571 85 632 211 l 632 564 b 417 885 632 758 571 885 b 201 564 263 885 201 758 l 201 406 b 417 85 201 211 263 85 "},"P":{"ha":833,"x_min":0,"x_max":0,"o":"m 125 0 l 125 969 l 478 969 b 754 690 657 969 754 865 b 478 411 754 515 657 411 l 242 411 l 242 0 m 242 513 l 475 513 b 631 654 572 513 631 564 l 631 726 b 475 868 631 817 572 868 l 242 868 "},"Q":{"ha":833,"x_min":0,"x_max":0,"o":"m 682 -228 l 519 -228 b 361 -64 411 -228 361 -160 l 361 -12 b 78 485 164 14 78 194 b 417 986 78 801 181 986 b 756 485 653 986 756 801 b 472 -12 756 194 668 14 l 472 -133 l 682 -133 m 417 85 b 632 406 571 85 632 211 l 632 564 b 417 885 632 758 571 885 b 201 564 263 885 201 758 l 201 406 b 417 85 201 211 263 85 "},"R":{"ha":833,"x_min":0,"x_max":0,"o":"m 242 0 l 125 0 l 125 969 l 478 969 b 754 690 657 969 754 865 b 515 419 754 535 669 435 l 763 0 l 632 0 l 396 414 l 242 414 m 475 513 b 631 654 572 513 631 564 l 631 726 b 475 868 631 817 572 868 l 242 868 l 242 513 "},"S":{"ha":833,"x_min":0,"x_max":0,"o":"m 414 -17 b 63 154 240 -17 135 54 l 147 224 b 418 83 222 129 301 83 b 635 268 558 83 635 151 b 454 435 635 363 586 413 l 346 453 b 96 717 156 485 96 594 b 419 986 96 894 222 986 b 744 838 574 986 679 931 l 663 767 b 418 886 608 838 539 886 b 214 719 288 886 214 829 b 396 554 214 633 258 578 l 500 536 b 753 271 690 503 753 397 b 414 -17 753 92 629 -17 "},"T":{"ha":833,"x_min":0,"x_max":0,"o":"m 475 868 l 475 0 l 358 0 l 358 868 l 35 868 l 35 969 l 799 969 l 799 868 "},"U":{"ha":833,"x_min":0,"x_max":0,"o":"m 228 969 l 228 388 b 417 85 228 200 235 85 b 606 388 599 85 606 200 l 606 969 l 722 969 l 722 415 b 417 -17 722 128 681 -17 b 111 415 153 -17 111 128 l 111 969 "},"V":{"ha":833,"x_min":0,"x_max":0,"o":"m 338 0 l 50 969 l 174 969 l 311 485 l 415 118 l 422 118 l 526 485 l 664 969 l 783 969 l 496 0 "},"W":{"ha":833,"x_min":0,"x_max":0,"o":"m 125 0 l 49 969 l 153 969 l 193 414 l 214 121 l 225 121 l 353 717 l 483 717 l 611 121 l 622 121 l 643 414 l 683 969 l 785 969 l 708 0 l 540 0 l 422 579 l 411 579 l 293 0 "},"X":{"ha":833,"x_min":0,"x_max":0,"o":"m 799 0 l 667 0 l 551 193 l 424 404 l 418 404 l 286 193 l 164 0 l 36 0 l 353 494 l 54 969 l 186 969 l 299 782 l 419 586 l 425 586 l 544 782 l 661 969 l 789 969 l 489 496 "},"Y":{"ha":833,"x_min":0,"x_max":0,"o":"m 358 0 l 358 381 l 24 969 l 157 969 l 296 717 l 414 496 l 419 496 l 540 717 l 679 969 l 810 969 l 475 381 l 475 0 "},"Z":{"ha":833,"x_min":0,"x_max":0,"o":"m 767 0 l 67 0 l 67 104 l 615 868 l 90 868 l 90 969 l 743 969 l 743 865 l 193 101 l 767 101 "},"&":{"ha":833,"x_min":0,"x_max":0,"o":"m 301 -17 b 35 251 132 -17 35 103 b 214 533 35 349 75 463 b 124 751 163 600 124 669 b 375 986 124 892 238 986 b 606 839 499 986 579 910 l 514 792 b 369 892 490 849 442 892 b 233 756 286 892 233 835 l 233 744 b 332 549 233 686 261 638 l 457 394 l 558 269 l 565 269 b 583 529 578 342 579 440 l 779 529 l 779 436 l 675 436 b 625 200 663 347 657 286 l 794 0 l 663 0 l 542 143 l 535 143 b 301 -17 508 47 426 -17 m 331 82 b 508 176 410 82 474 117 l 267 468 b 150 267 182 415 150 346 l 150 246 b 331 82 150 146 224 82 "},"@":{"ha":833,"x_min":0,"x_max":0,"o":"m 631 -156 l 460 -156 b 86 417 178 -156 86 33 b 418 986 86 846 201 986 b 729 643 640 986 729 838 l 729 126 l 631 126 l 631 206 l 624 206 b 485 110 606 158 567 110 b 300 407 372 110 300 203 b 485 706 300 613 372 706 b 624 610 567 706 606 657 l 631 610 l 631 643 b 421 897 631 800 569 897 b 190 497 256 897 190 776 l 190 318 b 460 -67 190 103 239 -67 l 631 -67 m 521 193 b 631 301 588 193 631 231 l 631 514 b 521 622 631 585 588 622 b 403 450 444 622 403 574 l 403 365 b 521 193 403 242 444 193 "},"-":{"ha":833,"x_min":0,"x_max":0,"o":"m 215 364 l 215 481 l 618 481 l 618 364 "},"­":{"ha":833,"x_min":0,"x_max":0,"o":"m 215 364 l 215 481 l 618 481 l 618 364 "},"–":{"ha":833,"x_min":0,"x_max":0,"o":"m 83 371 l 83 474 l 750 474 l 750 371 "},"—":{"ha":833,"x_min":0,"x_max":0,"o":"m 0 371 l 0 474 l 833 474 l 833 371 "},"_":{"ha":833,"x_min":0,"x_max":0,"o":"m 83 -235 l 83 -132 l 750 -132 l 750 -235 "},".":{"ha":833,"x_min":0,"x_max":0,"o":"m 417 -12 b 314 71 342 -12 314 24 l 314 96 b 417 179 314 143 342 179 b 519 96 492 179 519 143 l 519 71 b 417 -12 519 24 492 -12 "},"…":{"ha":833,"x_min":0,"x_max":0,"o":"m 149 -6 b 61 65 85 -6 61 25 l 61 106 b 149 176 61 146 85 176 b 236 106 213 176 236 146 l 236 65 b 149 -6 236 25 213 -6 m 417 -6 b 329 65 353 -6 329 25 l 329 106 b 417 176 329 146 353 176 b 504 106 481 176 504 146 l 504 65 b 417 -6 504 25 481 -6 m 685 -6 b 597 65 621 -6 597 25 l 597 106 b 685 176 597 146 621 176 b 772 106 749 176 772 146 l 772 65 b 685 -6 772 25 749 -6 "},":":{"ha":833,"x_min":0,"x_max":0,"o":"m 417 -12 b 314 71 342 -12 314 24 l 314 96 b 417 179 314 143 342 179 b 519 96 492 179 519 143 l 519 71 b 417 -12 519 24 492 -12 m 417 538 b 314 621 342 538 314 574 l 314 646 b 417 729 314 693 342 729 b 519 646 492 729 519 693 l 519 621 b 417 538 519 574 492 538 "},",":{"ha":833,"x_min":0,"x_max":0,"o":"m 357 189 l 536 189 l 376 -196 l 283 -196 "},";":{"ha":833,"x_min":0,"x_max":0,"o":"m 357 189 l 536 189 l 376 -196 l 283 -196 m 417 538 b 314 621 342 538 314 574 l 314 646 b 417 729 314 693 342 729 b 519 646 492 729 519 693 l 519 621 b 417 538 519 574 492 538 "},"'":{"ha":833,"x_min":0,"x_max":0,"o":"m 364 643 l 364 1028 l 469 1028 l 469 643 "},"\"":{"ha":833,"x_min":0,"x_max":0,"o":"m 240 643 l 240 1028 l 346 1028 l 346 643 m 488 643 l 488 1028 l 593 1028 l 593 643 "},"‘":{"ha":833,"x_min":0,"x_max":0,"o":"m 431 1028 l 524 1028 l 450 643 l 271 643 "},"’":{"ha":833,"x_min":0,"x_max":0,"o":"m 383 1028 l 563 1028 l 403 643 l 310 643 "},"“":{"ha":833,"x_min":0,"x_max":0,"o":"m 272 1028 l 365 1028 l 292 643 l 113 643 m 606 1028 l 699 1028 l 625 643 l 446 643 "},"”":{"ha":833,"x_min":0,"x_max":0,"o":"m 225 1028 l 404 1028 l 244 643 l 151 643 m 558 1028 l 738 1028 l 578 643 l 485 643 "},"‚":{"ha":833,"x_min":0,"x_max":0,"o":"m 357 189 l 536 189 l 376 -196 l 283 -196 "},"„":{"ha":833,"x_min":0,"x_max":0,"o":"m 225 189 l 404 189 l 244 -196 l 151 -196 m 558 189 l 738 189 l 578 -196 l 485 -196 "},"‹":{"ha":833,"x_min":0,"x_max":0,"o":"m 522 78 l 236 319 l 236 431 l 522 672 l 557 593 l 351 375 l 557 157 "},"›":{"ha":833,"x_min":0,"x_max":0,"o":"m 276 157 l 482 375 l 276 593 l 311 672 l 597 431 l 597 319 l 311 78 "},"«":{"ha":833,"x_min":0,"x_max":0,"o":"m 388 78 l 101 319 l 101 431 l 388 672 l 422 593 l 217 375 l 422 157 m 707 78 l 421 319 l 421 431 l 707 672 l 742 593 l 536 375 l 742 157 "},"»":{"ha":833,"x_min":0,"x_max":0,"o":"m 92 157 l 297 375 l 92 593 l 126 672 l 413 431 l 413 319 l 126 78 m 411 157 l 617 375 l 411 593 l 446 672 l 732 431 l 732 319 l 446 78 "},"¡":{"ha":833,"x_min":0,"x_max":0,"o":"m 356 -253 l 356 29 l 394 393 l 439 393 l 478 29 l 478 -253 m 417 538 b 314 621 342 538 314 574 l 314 646 b 417 729 314 693 342 729 b 519 646 492 729 519 693 l 519 621 b 417 538 519 574 492 538 "},"!":{"ha":833,"x_min":0,"x_max":0,"o":"m 394 324 l 356 688 l 356 969 l 478 969 l 478 688 l 439 324 m 417 -12 b 314 71 342 -12 314 24 l 314 96 b 417 179 314 143 342 179 b 519 96 492 179 519 143 l 519 71 b 417 -12 519 24 492 -12 "},"¿":{"ha":833,"x_min":0,"x_max":0,"o":"m 415 -269 b 125 -7 239 -269 125 -167 b 392 278 125 168 261 254 l 392 418 l 501 418 l 501 200 b 246 7 343 193 246 132 l 246 -12 b 419 -168 246 -115 313 -168 b 622 -6 531 -168 597 -99 l 726 -44 b 415 -269 690 -167 593 -269 m 442 538 b 339 621 367 538 339 574 l 339 646 b 442 729 339 693 367 729 b 544 646 517 729 544 693 l 544 621 b 442 538 544 574 517 538 "},"?":{"ha":833,"x_min":0,"x_max":0,"o":"m 332 299 l 332 517 b 588 710 490 524 588 585 l 588 729 b 414 885 588 832 521 885 b 211 722 303 885 236 815 l 107 761 b 418 986 143 883 240 986 b 708 724 594 986 708 883 b 442 439 708 549 572 463 l 442 299 m 392 -12 b 289 71 317 -12 289 24 l 289 96 b 392 179 289 143 317 179 b 494 96 467 179 494 143 l 494 71 b 392 -12 494 24 467 -12 "},"(":{"ha":833,"x_min":0,"x_max":0,"o":"m 285 432 b 574 1056 285 703 417 939 l 686 1056 b 389 492 525 935 389 729 l 389 372 b 686 -192 389 135 525 -71 l 574 -192 b 285 432 417 -75 285 161 "},")":{"ha":833,"x_min":0,"x_max":0,"o":"m 549 432 b 260 -192 549 161 417 -75 l 147 -192 b 444 372 308 -71 444 135 l 444 492 b 147 1056 444 729 308 935 l 260 1056 b 549 432 417 939 549 703 "},"[":{"ha":833,"x_min":0,"x_max":0,"o":"m 313 -192 l 313 1056 l 701 1056 l 701 969 l 408 969 l 408 -106 l 701 -106 l 701 -192 "},"]":{"ha":833,"x_min":0,"x_max":0,"o":"m 521 1056 l 521 -192 l 132 -192 l 132 -106 l 425 -106 l 425 969 l 132 969 l 132 1056 "},"{":{"ha":833,"x_min":0,"x_max":0,"o":"m 443 -192 b 326 -78 367 -192 326 -142 l 326 10 b 404 197 326 110 371 156 b 446 288 435 235 446 258 b 254 389 446 357 379 389 l 146 389 l 146 475 l 254 475 b 446 576 379 475 446 507 b 404 667 446 606 435 629 b 326 854 371 708 326 754 l 326 942 b 443 1056 326 1006 367 1056 l 688 1056 l 688 969 l 422 969 l 422 863 b 478 715 422 786 449 754 b 543 575 508 675 543 633 b 390 435 543 499 483 447 l 390 429 b 543 289 483 417 543 365 b 478 149 543 231 508 189 b 422 1 449 110 422 78 l 422 -106 l 688 -106 l 688 -192 "},"}":{"ha":833,"x_min":0,"x_max":0,"o":"m 390 1056 b 507 942 467 1056 507 1006 l 507 854 b 429 667 507 754 463 708 b 388 576 399 629 388 606 b 579 475 388 507 454 475 l 688 475 l 688 389 l 579 389 b 388 288 454 389 388 357 b 429 197 388 258 399 235 b 507 10 463 156 507 110 l 507 -78 b 390 -192 507 -142 467 -192 l 146 -192 l 146 -106 l 411 -106 l 411 1 b 356 149 411 78 385 110 b 290 289 325 189 290 231 b 443 429 290 365 350 417 l 443 435 b 290 575 350 447 290 499 b 356 715 290 633 325 675 b 411 863 385 754 411 786 l 411 969 l 146 969 l 146 1056 "},"/":{"ha":833,"x_min":0,"x_max":0,"o":"m 125 -192 l 608 1056 l 708 1056 l 225 -192 "},"\\":{"ha":833,"x_min":0,"x_max":0,"o":"m 608 -192 l 125 1056 l 225 1056 l 708 -192 "},"⁄":{"ha":833,"x_min":0,"x_max":0,"o":"m 708 969 l 808 969 l 586 553 l 486 553 m 247 417 l 347 417 l 125 0 l 25 0 "},"∕":{"ha":833,"x_min":0,"x_max":0,"o":"m 708 969 l 808 969 l 586 553 l 486 553 m 247 417 l 347 417 l 125 0 l 25 0 "},"%":{"ha":833,"x_min":0,"x_max":0,"o":"m 235 494 b 28 740 114 494 28 578 b 235 986 28 903 114 986 b 442 740 356 986 442 903 b 235 494 442 578 356 494 m 235 569 b 347 706 301 569 347 618 l 347 775 b 235 911 347 863 301 911 b 122 775 168 911 122 863 l 122 706 b 235 569 122 618 168 569 m 708 969 l 808 969 l 586 553 l 486 553 m 247 417 l 347 417 l 125 0 l 25 0 m 599 -17 b 392 229 478 -17 392 67 b 599 475 392 392 478 475 b 806 229 719 475 806 392 b 599 -17 806 67 719 -17 m 599 58 b 711 194 665 58 711 107 l 711 264 b 599 400 711 351 665 400 b 486 264 532 400 486 351 l 486 194 b 599 58 486 107 532 58 "},"‰":{"ha":833,"x_min":0,"x_max":0,"o":"m 193 556 b 0 771 74 556 0 628 b 193 986 0 913 72 986 b 386 771 313 986 386 914 b 193 556 386 629 314 556 m 193 625 b 292 738 256 625 292 671 l 292 804 b 193 917 292 871 256 917 b 94 804 131 917 94 871 l 94 738 b 193 625 94 671 131 625 m 85 456 l 710 700 l 738 631 l 113 386 m 344 -17 b 156 199 228 -17 156 57 b 344 414 156 340 228 414 b 492 344 407 414 457 389 l 499 344 b 644 414 532 389 582 414 b 833 199 761 414 833 340 b 644 -17 833 57 761 -17 b 499 53 582 -17 532 8 l 490 53 b 344 -17 457 8 407 -17 m 349 53 b 447 165 411 53 447 99 l 447 232 b 349 344 447 299 411 344 b 250 232 286 344 250 299 l 250 165 b 349 53 250 99 286 53 m 640 53 b 739 165 703 53 739 99 l 739 232 b 640 344 739 299 703 344 b 542 232 578 344 542 299 l 542 165 b 640 53 542 99 578 53 "},"|":{"ha":833,"x_min":0,"x_max":0,"o":"m 368 -192 l 368 1056 l 465 1056 l 465 -192 "},"¦":{"ha":833,"x_min":0,"x_max":0,"o":"m 368 557 l 368 1056 l 465 1056 l 465 557 m 368 -192 l 368 307 l 465 307 l 465 -192 "},"§":{"ha":833,"x_min":0,"x_max":0,"o":"m 676 4 b 397 -215 676 -129 564 -215 b 161 -137 313 -215 226 -193 l 226 -60 b 399 -119 271 -97 328 -119 b 567 3 504 -119 567 -72 b 419 138 567 72 513 111 l 331 163 b 113 378 178 206 113 283 b 268 576 113 467 169 538 l 268 583 b 163 767 196 628 163 693 b 442 986 163 900 275 986 b 678 908 526 986 613 964 l 613 831 b 440 890 568 868 511 890 b 272 768 335 890 272 843 b 419 633 272 699 326 660 l 508 608 b 726 393 661 565 726 488 b 571 194 726 304 669 233 l 571 188 b 676 4 643 143 676 78 m 617 365 b 450 521 617 444 564 490 l 363 544 b 315 560 346 549 329 554 b 222 406 258 521 222 471 b 389 250 222 326 275 281 l 476 226 b 524 211 493 222 510 217 b 617 365 581 250 617 300 "},"¶":{"ha":833,"x_min":0,"x_max":0,"o":"m 375 342 b 63 656 203 342 63 474 b 375 969 63 838 203 969 l 700 969 l 700 -207 l 600 -207 l 600 881 l 475 881 l 475 -207 l 375 -207 "},"©":{"ha":833,"x_min":0,"x_max":0,"o":"m 417 25 b 0 485 185 25 0 201 b 417 944 0 768 185 944 b 833 485 649 944 833 768 b 417 25 833 201 649 25 m 417 101 b 746 443 607 101 746 253 l 746 526 b 417 868 746 717 607 868 b 88 526 226 868 88 717 l 88 443 b 417 101 88 253 226 101 m 424 238 b 210 485 289 238 210 335 b 424 732 210 636 290 732 b 599 621 511 732 568 688 l 525 581 b 424 653 506 625 475 653 b 310 525 351 653 310 600 l 310 446 b 425 317 310 369 350 317 b 536 393 481 317 511 347 l 606 350 b 424 238 575 285 514 238 "},"®":{"ha":833,"x_min":0,"x_max":0,"o":"m 417 481 b 163 733 275 481 163 589 b 417 986 163 878 275 986 b 671 733 558 986 671 878 b 417 481 671 589 558 481 m 417 538 b 604 719 524 538 604 610 l 604 747 b 417 929 604 857 524 929 b 229 747 310 929 229 857 l 229 719 b 417 538 229 610 310 538 m 375 606 l 319 606 l 319 863 l 438 863 b 519 783 489 863 519 832 b 468 711 519 749 500 722 l 532 606 l 469 606 l 415 703 l 375 703 m 425 743 b 461 776 447 743 461 756 l 461 786 b 425 819 461 807 447 819 l 375 819 l 375 743 "},"™":{"ha":833,"x_min":0,"x_max":0,"o":"m 142 582 l 142 906 l 22 906 l 22 969 l 333 969 l 333 906 l 214 906 l 214 582 m 392 582 l 392 969 l 482 969 l 572 783 l 576 783 l 667 969 l 753 969 l 753 582 l 686 582 l 686 758 l 688 874 l 682 874 l 572 657 l 463 874 l 457 874 l 458 758 l 458 582 "},"ª":{"ha":833,"x_min":0,"x_max":0,"o":"m 596 496 b 508 569 535 496 511 524 l 503 569 b 346 485 482 526 432 485 b 192 622 246 485 192 540 b 401 767 192 721 268 767 l 503 767 l 503 806 b 396 914 503 879 465 914 b 267 842 332 914 288 883 l 208 889 b 400 986 236 936 297 986 b 590 810 518 986 590 922 l 590 574 l 643 574 l 643 496 m 399 703 b 279 638 322 703 279 681 l 279 624 b 364 556 279 576 308 556 b 503 646 438 556 503 590 l 503 703 "},"º":{"ha":833,"x_min":0,"x_max":0,"o":"m 417 485 b 194 736 276 485 194 581 b 417 986 194 890 278 986 b 639 736 556 986 639 890 b 417 485 639 581 556 485 m 417 558 b 543 694 500 558 543 615 l 543 776 b 417 913 543 856 500 913 b 290 776 333 913 290 856 l 290 694 b 417 558 290 615 333 558 "},"°":{"ha":833,"x_min":0,"x_max":0,"o":"m 417 511 b 179 749 283 511 179 614 b 417 986 179 883 283 986 b 654 749 550 986 654 883 b 417 511 654 614 550 511 m 417 600 b 557 749 501 600 557 665 b 417 897 557 832 501 897 b 276 749 332 897 276 832 b 417 600 276 665 332 600 "},"′":{"ha":833,"x_min":0,"x_max":0,"o":"m 326 528 l 404 969 l 507 969 l 429 528 "},"″":{"ha":833,"x_min":0,"x_max":0,"o":"m 203 528 l 281 969 l 383 969 l 306 528 m 449 528 l 526 969 l 629 969 l 551 528 "},"*":{"ha":833,"x_min":0,"x_max":0,"o":"m 243 72 l 164 131 l 336 367 l 60 458 l 89 550 l 365 461 l 365 761 l 468 761 l 468 461 l 744 550 l 774 458 l 497 367 l 669 131 l 590 72 l 417 311 "},"†":{"ha":833,"x_min":0,"x_max":0,"o":"m 368 -278 l 368 628 l 97 628 l 97 717 l 368 717 l 368 1028 l 465 1028 l 465 717 l 736 717 l 736 628 l 465 628 l 465 -278 "},"‡":{"ha":833,"x_min":0,"x_max":0,"o":"m 368 -278 l 368 33 l 97 33 l 97 122 l 368 122 l 368 628 l 97 628 l 97 717 l 368 717 l 368 1028 l 465 1028 l 465 717 l 736 717 l 736 628 l 465 628 l 465 122 l 736 122 l 736 33 l 465 33 l 465 -278 "},"#":{"ha":833,"x_min":0,"x_max":0,"o":"m 206 300 l 22 300 l 22 392 l 222 392 l 254 578 l 72 578 l 72 669 l 271 669 l 324 969 l 425 969 l 254 0 l 153 0 m 579 969 l 681 969 l 628 669 l 811 669 l 811 578 l 611 578 l 579 392 l 761 392 l 761 300 l 563 300 l 510 0 l 408 0 "},"^":{"ha":833,"x_min":0,"x_max":0,"o":"m 679 399 l 417 874 l 411 874 l 149 399 l 63 442 l 354 969 l 479 969 l 771 442 "},"~":{"ha":833,"x_min":0,"x_max":0,"o":"m 558 274 b 400 371 488 274 442 321 b 274 481 360 418 321 481 b 157 288 199 481 178 372 l 72 307 b 275 574 97 444 150 574 b 433 476 346 574 392 526 b 560 367 474 429 513 367 b 676 560 635 367 656 475 l 761 540 b 558 274 736 403 682 274 "},"+":{"ha":833,"x_min":0,"x_max":0,"o":"m 364 86 l 364 376 l 86 376 l 86 471 l 364 471 l 364 761 l 469 761 l 469 471 l 747 471 l 747 376 l 469 376 l 469 86 "},"−":{"ha":833,"x_min":0,"x_max":0,"o":"m 86 376 l 86 471 l 747 471 l 747 376 "},"±":{"ha":833,"x_min":0,"x_max":0,"o":"m 364 211 l 364 488 l 86 488 l 86 582 l 364 582 l 364 858 l 469 858 l 469 582 l 747 582 l 747 488 l 469 488 l 469 211 m 86 0 l 86 94 l 747 94 l 747 0 "},"×":{"ha":833,"x_min":0,"x_max":0,"o":"m 417 356 l 190 129 l 122 197 l 349 424 l 122 650 l 190 718 l 417 492 l 643 718 l 711 650 l 485 424 l 711 197 l 643 129 "},"÷":{"ha":833,"x_min":0,"x_max":0,"o":"m 86 376 l 86 471 l 747 471 l 747 376 m 417 72 b 331 139 353 72 331 101 l 331 169 b 417 236 331 207 353 236 b 503 169 481 236 503 207 l 503 139 b 417 72 503 101 481 72 m 417 611 b 331 678 353 611 331 640 l 331 708 b 417 775 331 746 353 775 b 503 708 481 775 503 746 l 503 678 b 417 611 503 640 481 611 "},"=":{"ha":833,"x_min":0,"x_max":0,"o":"m 86 517 l 86 611 l 747 611 l 747 517 m 86 239 l 86 333 l 747 333 l 747 239 "},"≈":{"ha":833,"x_min":0,"x_max":0,"o":"m 567 468 b 410 513 510 468 458 489 b 265 564 361 536 311 564 b 157 468 211 564 181 524 l 72 503 b 267 657 97 590 164 657 b 424 613 324 657 375 636 b 568 561 472 589 522 561 b 676 657 622 561 653 601 l 761 622 b 567 468 736 535 669 468 m 567 192 b 410 236 510 192 458 213 b 265 288 361 260 311 288 b 157 192 211 288 181 247 l 72 226 b 267 381 97 314 164 381 b 424 336 324 381 375 360 b 568 285 472 313 522 285 b 676 381 622 285 653 325 l 761 346 b 567 192 736 258 669 192 "},"≠":{"ha":833,"x_min":0,"x_max":0,"o":"m 190 100 l 267 239 l 86 239 l 86 333 l 318 333 l 417 517 l 86 517 l 86 611 l 468 611 l 543 750 l 643 750 l 567 611 l 747 611 l 747 517 l 515 517 l 417 333 l 747 333 l 747 239 l 365 239 l 290 100 "},"<":{"ha":833,"x_min":0,"x_max":0,"o":"m 118 368 l 118 479 l 715 825 l 715 710 l 222 431 l 222 419 l 715 140 l 715 22 "},">":{"ha":833,"x_min":0,"x_max":0,"o":"m 118 138 l 611 417 l 611 428 l 118 707 l 118 825 l 715 479 l 715 368 l 118 22 "},"≤":{"ha":833,"x_min":0,"x_max":0,"o":"m 118 0 l 118 94 l 715 94 l 715 0 m 715 713 l 222 501 l 222 492 l 715 282 l 715 168 l 118 433 l 118 557 l 715 824 "},"≥":{"ha":833,"x_min":0,"x_max":0,"o":"m 118 279 l 611 490 l 611 500 l 118 710 l 118 824 l 715 558 l 715 435 l 118 168 m 118 94 l 715 94 l 715 0 l 118 0 "},"·":{"ha":833,"x_min":0,"x_max":0,"o":"m 417 326 b 314 410 342 326 314 363 l 314 435 b 417 518 314 482 342 518 b 519 435 492 518 519 482 l 519 410 b 417 326 519 363 492 326 "},"•":{"ha":833,"x_min":0,"x_max":0,"o":"m 417 258 b 247 403 293 258 247 321 l 247 442 b 417 586 247 524 293 586 b 586 442 540 586 586 524 l 586 403 b 417 258 586 321 540 258 "},"◊":{"ha":833,"x_min":0,"x_max":0,"o":"m 361 0 l 58 485 l 361 969 l 474 969 l 776 485 l 474 0 m 422 104 l 660 485 l 422 865 l 413 865 l 175 485 l 413 104 "},"¬":{"ha":833,"x_min":0,"x_max":0,"o":"m 629 108 l 629 376 l 86 376 l 86 471 l 725 471 l 725 108 "},"√":{"ha":833,"x_min":0,"x_max":0,"o":"m 351 0 l 175 628 l 33 628 l 33 717 l 260 717 l 322 488 l 429 93 l 436 93 l 549 488 l 686 969 l 794 969 l 510 0 "},"∫":{"ha":833,"x_min":0,"x_max":0,"o":"m 49 -183 l 343 -183 l 343 864 b 501 1028 343 960 393 1028 l 749 1028 l 749 932 l 454 932 l 454 -114 b 296 -278 454 -210 404 -278 l 49 -278 "},"∞":{"ha":833,"x_min":0,"x_max":0,"o":"m 218 175 b 15 424 89 175 15 267 b 229 672 15 581 96 672 b 439 488 328 672 399 617 l 444 488 b 614 672 468 610 535 672 b 818 424 743 672 818 581 b 604 175 818 267 738 175 b 394 360 506 175 435 231 l 389 360 b 218 175 365 238 297 175 m 231 261 b 374 426 293 261 344 325 b 231 586 344 525 293 586 b 121 461 164 586 121 542 l 121 386 b 231 261 121 306 164 261 m 603 261 b 713 386 669 261 713 306 l 713 461 b 603 586 713 542 669 586 b 460 421 540 586 489 522 b 603 261 489 322 540 261 "},"℮":{"ha":833,"x_min":0,"x_max":0,"o":"m 201 151 b 417 47 246 96 321 47 b 701 236 558 47 642 126 l 758 204 b 417 -17 693 83 589 -17 b 36 485 186 -17 36 197 b 417 986 36 772 186 986 b 797 485 647 986 797 772 l 201 485 m 632 540 l 632 825 b 417 925 585 882 511 925 b 201 825 322 925 249 882 l 201 540 "},"ℓ":{"ha":833,"x_min":0,"x_max":0,"o":"m 446 -17 b 221 221 299 -17 221 81 l 221 254 b 143 203 194 235 171 219 l 97 278 b 221 360 138 303 182 329 l 221 771 b 426 1044 221 969 304 1044 b 622 813 553 1044 622 963 b 331 310 622 628 519 476 l 331 247 b 451 76 331 122 375 76 b 628 225 533 76 576 131 l 708 176 b 446 -17 665 69 585 -17 m 428 951 b 331 781 371 951 331 910 l 331 429 b 518 799 451 553 518 674 l 518 822 b 428 951 518 917 481 951 "},"№":{"ha":833,"x_min":0,"x_max":0,"o":"m 668 478 b 518 729 558 478 518 560 b 668 981 518 899 558 981 b 818 729 778 981 818 899 b 668 478 818 560 778 478 m 60 0 l 60 969 l 236 969 l 307 485 l 360 125 l 368 125 l 368 969 l 463 969 l 463 0 l 286 0 l 215 485 l 163 844 l 154 844 l 154 0 m 668 550 b 732 657 719 550 732 590 l 732 801 b 668 908 732 868 721 908 b 604 801 617 908 604 868 l 604 657 b 668 550 604 590 615 550 m 524 354 l 524 433 l 813 433 l 813 354 "},"∂":{"ha":833,"x_min":0,"x_max":0,"o":"m 742 378 b 422 -17 742 108 618 -17 b 92 342 214 -17 92 124 b 388 700 92 561 217 700 b 618 567 501 700 572 639 l 624 569 b 197 969 561 747 390 878 l 379 969 b 742 378 522 883 742 736 m 417 79 b 624 293 540 79 624 149 l 624 390 b 417 604 624 535 540 604 b 210 390 293 604 210 535 l 210 293 b 417 79 210 149 293 79 "},"¤":{"ha":833,"x_min":0,"x_max":0,"o":"m 417 165 b 286 193 368 165 324 175 l 190 29 l 106 78 l 208 253 b 133 485 160 308 133 388 b 208 717 133 581 160 661 l 106 892 l 190 940 l 286 776 b 417 804 324 794 368 804 b 547 776 465 804 510 794 l 643 940 l 728 892 l 625 717 b 700 485 674 661 700 581 b 625 253 700 388 674 308 l 728 78 l 643 29 l 547 193 b 417 165 510 175 465 165 m 417 258 b 582 440 515 258 582 318 l 582 529 b 417 711 582 651 515 711 b 251 529 318 711 251 651 l 251 440 b 417 258 251 318 318 258 "},"¢":{"ha":833,"x_min":0,"x_max":0,"o":"m 388 -158 l 388 -12 b 117 358 215 11 117 153 b 388 729 117 565 217 706 l 388 875 l 474 875 l 474 732 b 706 568 593 722 668 657 l 617 521 b 472 636 593 585 544 626 l 472 81 b 638 204 551 89 606 135 l 717 150 b 474 -15 678 61 599 -6 l 474 -158 m 236 297 b 389 85 236 189 289 106 l 389 632 b 236 419 290 611 236 528 l 236 297 "},"€":{"ha":833,"x_min":0,"x_max":0,"o":"m 449 -17 b 97 485 213 -17 97 163 b 449 986 97 807 213 986 b 747 774 626 986 700 879 l 650 729 b 449 888 615 817 568 888 b 222 644 315 888 242 794 l 539 644 l 539 549 l 218 549 l 218 421 l 539 421 l 539 325 l 222 325 b 449 82 242 175 315 82 b 650 240 568 82 615 153 l 747 196 b 449 -17 700 90 626 -17 "},"ƒ":{"ha":833,"x_min":0,"x_max":0,"o":"m -43 -183 l 250 -183 l 365 514 l 108 514 l 124 608 l 382 608 l 415 813 b 593 969 432 908 485 969 l 847 969 l 831 874 l 536 874 l 492 608 l 749 608 l 733 514 l 476 514 l 371 -121 b 193 -278 354 -217 301 -278 l -60 -278 "},"£":{"ha":833,"x_min":0,"x_max":0,"o":"m 104 0 l 104 146 b 214 329 182 178 214 243 b 207 397 214 353 211 375 l 72 397 l 72 493 l 181 493 b 136 693 160 556 136 617 b 461 986 136 865 260 986 b 764 828 608 986 703 922 l 676 765 b 454 885 625 840 560 885 b 256 686 333 885 256 828 b 297 493 256 611 278 551 l 576 493 l 576 397 l 324 397 b 328 343 326 379 328 363 b 214 118 328 229 267 153 l 214 111 l 747 111 l 747 0 "},"$":{"ha":833,"x_min":0,"x_max":0,"o":"m 388 -15 b 69 154 233 -6 136 61 l 154 224 b 389 85 221 140 292 94 l 389 447 l 357 453 b 104 722 165 485 104 596 b 388 985 104 878 213 972 l 388 1126 l 474 1126 l 474 985 b 763 828 601 975 693 922 l 675 765 b 472 883 625 832 564 874 l 472 543 l 514 536 b 767 265 704 504 767 396 b 474 -15 767 104 661 0 l 474 -157 l 388 -157 m 217 722 b 389 557 217 632 265 582 l 389 885 b 217 722 279 874 217 818 m 654 264 b 472 433 654 363 601 411 l 472 86 b 654 264 589 99 654 163 "},"¥":{"ha":833,"x_min":0,"x_max":0,"o":"m 104 96 l 361 96 l 361 354 l 104 354 l 104 450 l 300 450 l 31 969 l 160 969 l 415 450 l 421 450 l 676 969 l 803 969 l 533 450 l 729 450 l 729 354 l 472 354 l 472 96 l 729 96 l 729 0 l 104 0 "},"฿":{"ha":833,"x_min":0,"x_max":0,"o":"m 453 -157 l 367 -157 l 367 0 l 122 0 l 122 969 l 367 969 l 367 1126 l 453 1126 l 453 969 l 464 969 b 731 719 629 969 731 871 b 574 506 731 596 664 535 l 574 501 b 747 279 671 471 747 408 b 486 0 747 122 636 0 l 453 0 m 368 547 l 368 871 l 236 871 l 236 547 m 451 547 b 614 679 557 547 614 590 l 614 736 b 451 871 614 825 557 871 m 368 99 l 368 454 l 236 454 l 236 99 m 451 99 b 629 246 567 99 629 147 l 629 307 b 451 454 629 404 567 454 "},"₡":{"ha":833,"x_min":0,"x_max":0,"o":"m 411 -15 b 332 1 382 -12 356 -7 l 315 -157 l 229 -157 l 250 44 b 97 485 147 122 97 272 b 347 974 97 757 179 928 l 364 1126 l 450 1126 l 435 986 l 449 986 b 515 981 472 986 496 985 l 531 1126 l 617 1126 l 599 953 b 747 774 674 913 717 843 l 653 732 b 585 842 636 775 615 814 l 504 85 b 653 239 586 104 624 167 l 747 196 b 497 -14 704 100 640 4 l 482 -157 l 396 -157 m 449 890 b 422 889 439 890 431 890 l 340 106 b 424 81 364 92 392 83 l 508 883 b 449 890 490 888 471 890 m 213 406 b 267 175 213 310 231 232 l 339 864 b 213 564 254 817 213 710 l 213 406 "},"₤":{"ha":833,"x_min":0,"x_max":0,"o":"m 747 0 l 104 0 l 104 146 b 211 290 169 172 203 224 l 72 290 l 72 381 l 210 381 b 181 494 204 421 193 458 l 72 494 l 72 585 l 151 585 b 136 693 143 618 136 654 b 461 986 136 865 260 986 b 764 828 608 986 703 922 l 676 765 b 454 885 625 840 560 885 b 256 686 333 885 256 828 b 268 585 256 649 261 617 l 576 585 l 576 494 l 296 494 b 325 381 308 457 321 421 l 576 381 l 576 290 l 324 290 b 214 118 308 206 258 147 l 214 111 l 747 111 "},"₦":{"ha":833,"x_min":0,"x_max":0,"o":"m 706 429 l 796 429 l 796 339 l 706 339 l 706 0 l 532 0 l 414 344 l 225 344 l 225 0 l 128 0 l 128 339 l 38 339 l 38 429 l 128 429 l 128 540 l 38 540 l 38 631 l 128 631 l 128 969 l 301 969 l 419 625 l 608 625 l 608 969 l 706 969 l 706 631 l 796 631 l 796 540 l 706 540 m 386 422 l 235 864 l 225 864 l 225 422 m 599 106 l 608 106 l 608 547 l 447 547 "},"₨":{"ha":833,"x_min":0,"x_max":0,"o":"m 68 0 l 68 969 l 247 969 b 486 710 417 969 486 875 b 347 469 486 585 446 501 l 469 181 b 608 76 500 108 539 76 b 714 168 675 76 714 107 b 639 288 714 221 686 240 l 613 314 b 510 501 554 372 510 425 b 679 661 510 592 571 661 b 813 617 725 661 771 649 l 768 542 b 685 572 744 560 717 572 b 614 501 639 572 614 546 b 689 382 614 460 635 436 l 710 361 b 818 168 769 301 818 260 b 599 -17 818 58 749 -17 b 369 129 492 -17 414 21 l 240 447 l 179 447 l 179 0 m 238 544 b 372 675 331 544 372 590 l 372 739 b 238 869 372 824 331 869 l 179 869 l 179 544 "},"₩":{"ha":833,"x_min":0,"x_max":0,"o":"m 713 435 l 797 435 l 797 344 l 710 344 l 699 0 l 518 0 l 428 561 l 406 561 l 315 0 l 135 0 l 124 344 l 36 344 l 36 435 l 121 435 l 117 554 l 36 554 l 36 644 l 114 644 l 104 969 l 208 969 l 213 638 l 624 638 l 628 969 l 729 969 l 719 644 l 797 644 l 797 554 l 717 554 m 246 103 l 321 561 l 214 561 l 222 103 m 614 103 l 622 561 l 515 561 l 590 103 "},"₪":{"ha":833,"x_min":0,"x_max":0,"o":"m 272 765 l 378 765 l 378 89 l 494 89 b 650 253 572 89 650 131 l 650 969 l 757 969 l 757 275 b 494 0 757 90 647 0 l 272 0 m 82 0 l 82 969 l 307 969 b 567 694 460 969 567 879 l 567 204 l 461 204 l 461 717 b 307 881 461 839 385 881 l 189 881 l 189 0 "},"₫":{"ha":833,"x_min":0,"x_max":0,"o":"m 571 289 l 565 289 b 367 181 525 219 458 181 b 115 479 211 181 115 288 b 367 779 115 672 211 779 b 565 671 458 779 525 740 l 571 671 l 571 860 l 358 860 l 358 944 l 571 944 l 571 1028 l 676 1028 l 676 944 l 772 944 l 772 860 l 676 860 l 676 193 l 571 193 m 408 269 b 571 397 496 269 571 319 l 571 563 b 408 690 571 639 496 690 b 228 528 294 690 228 626 l 228 432 b 408 269 228 333 294 269 m 114 0 l 114 94 l 719 94 l 719 0 "},"₭":{"ha":833,"x_min":0,"x_max":0,"o":"m 256 0 l 139 0 l 139 454 l 39 454 l 39 550 l 139 550 l 139 969 l 256 969 l 256 550 l 331 550 l 626 969 l 758 969 l 458 550 l 758 550 l 758 454 l 468 454 l 781 0 l 639 0 l 333 454 l 256 454 "},"₮":{"ha":833,"x_min":0,"x_max":0,"o":"m 476 301 l 476 0 l 358 0 l 358 246 l 164 156 l 164 251 l 358 342 l 358 468 l 164 378 l 164 474 l 358 564 l 358 868 l 36 868 l 36 969 l 799 969 l 799 868 l 476 868 l 476 619 l 671 710 l 671 614 l 476 524 l 476 397 l 671 488 l 671 392 "},"₱":{"ha":833,"x_min":0,"x_max":0,"o":"m 229 0 l 115 0 l 115 474 l 39 474 l 39 564 l 115 564 l 115 675 l 39 675 l 39 765 l 115 765 l 115 969 l 450 969 b 704 765 594 969 674 893 l 797 765 l 797 675 l 718 675 b 719 619 719 657 719 639 b 718 564 719 600 719 582 l 797 564 l 797 474 l 704 474 b 450 269 674 346 594 269 l 229 269 m 229 763 l 600 763 b 447 874 583 833 533 874 l 229 874 m 606 561 l 606 678 l 229 678 l 229 561 m 447 365 b 600 476 533 365 583 406 l 229 476 l 229 365 "},"₲":{"ha":833,"x_min":0,"x_max":0,"o":"m 292 7 b 78 485 150 67 78 231 b 428 986 78 808 194 986 b 464 985 440 986 453 986 l 489 1126 l 576 1126 l 549 967 b 728 774 644 931 693 851 l 633 732 b 529 868 610 789 582 840 l 461 479 l 725 479 l 725 339 b 422 -17 725 132 631 -17 b 375 -14 406 -17 390 -15 l 350 -157 l 263 -157 m 449 889 b 429 890 443 890 436 890 b 193 564 271 890 193 763 l 193 406 b 310 108 193 264 233 158 m 424 76 b 619 317 549 76 619 167 l 619 389 l 444 389 l 390 79 b 424 76 400 78 413 76 "},"₴":{"ha":833,"x_min":0,"x_max":0,"o":"m 422 -17 b 142 239 249 -17 142 92 b 168 353 142 289 154 324 l 38 353 l 38 443 l 239 443 l 439 564 l 439 568 l 38 568 l 38 658 l 547 658 b 568 738 561 681 568 704 b 404 889 568 836 507 889 b 210 799 335 889 267 864 l 136 867 b 414 986 215 951 315 986 b 681 750 574 986 681 893 b 661 658 681 710 672 682 l 796 658 l 796 568 l 590 568 l 390 447 l 390 443 l 796 443 l 796 353 l 286 353 b 254 250 265 325 254 293 b 429 81 254 143 319 81 b 651 189 504 81 575 110 l 722 118 b 422 -17 647 31 538 -17 "},"₵":{"ha":833,"x_min":0,"x_max":0,"o":"m 300 14 b 97 485 164 76 97 239 b 449 986 97 807 213 986 l 471 986 l 496 1126 l 583 1126 l 556 971 b 747 774 658 938 711 856 l 653 732 b 538 874 628 793 597 847 l 397 85 b 449 79 414 81 431 79 b 653 239 571 79 618 153 l 747 196 b 449 -17 700 90 626 -17 b 383 -11 425 -17 404 -15 l 357 -157 l 269 -157 m 456 890 b 213 564 288 890 213 763 l 213 406 b 319 118 213 272 247 171 "},"₸":{"ha":833,"x_min":0,"x_max":0,"o":"m 63 874 l 63 969 l 771 969 l 771 874 m 475 653 l 475 0 l 358 0 l 358 653 l 63 653 l 63 749 l 771 749 l 771 653 "},"₹":{"ha":833,"x_min":0,"x_max":0,"o":"m 560 0 l 251 404 l 78 404 l 78 500 l 317 500 b 489 653 418 500 489 550 l 78 653 l 78 749 l 485 749 b 317 874 476 828 407 874 l 78 874 l 78 969 l 769 969 l 769 874 l 504 874 l 504 867 b 594 749 540 850 578 815 l 769 749 l 769 653 l 603 653 b 388 411 594 531 517 436 l 703 0 "},"₺":{"ha":833,"x_min":0,"x_max":0,"o":"m 215 343 l 78 279 l 78 375 l 215 439 l 215 565 l 78 501 l 78 597 l 215 661 l 215 969 l 332 969 l 332 715 l 585 833 l 585 738 l 332 619 l 332 493 l 585 611 l 585 515 l 332 397 l 332 101 l 404 101 b 656 424 561 101 656 226 l 769 424 b 411 0 769 188 649 0 l 215 0 "},"₽":{"ha":833,"x_min":0,"x_max":0,"o":"m 294 186 l 294 0 l 178 0 l 178 186 l 63 186 l 63 282 l 178 282 l 178 408 l 63 408 l 63 504 l 178 504 l 178 969 l 494 969 b 771 686 674 969 771 863 b 493 408 771 510 672 408 l 294 408 l 294 282 l 610 282 l 610 186 m 294 504 l 494 504 b 650 643 592 504 650 554 l 650 729 b 494 868 650 818 592 868 l 294 868 "},"₿":{"ha":833,"x_min":0,"x_max":0,"o":"m 443 0 l 347 0 l 347 -157 l 261 -157 l 261 0 l 122 0 l 122 969 l 261 969 l 261 1126 l 347 1126 l 347 969 l 443 969 l 443 1126 l 529 1126 l 529 961 b 718 719 647 935 718 846 b 567 511 718 606 658 542 l 567 507 b 754 279 679 481 754 411 b 529 3 754 135 661 21 l 529 -157 l 443 -157 m 239 549 l 440 549 b 596 681 538 549 596 592 l 596 735 b 440 869 596 824 538 869 l 239 869 m 239 100 l 460 100 b 631 249 567 100 631 150 l 631 306 b 460 453 631 403 567 453 l 239 453 "},"ﬁ":{"ha":833,"x_min":0,"x_max":0,"o":"m 150 622 l 53 622 l 53 717 l 150 717 l 150 864 b 308 1028 150 960 200 1028 l 465 1028 l 465 933 l 261 933 l 261 717 l 697 717 l 697 0 l 586 0 l 586 622 l 261 622 l 261 0 l 150 0 m 642 875 b 554 946 578 875 554 906 l 554 968 b 642 1039 554 1008 578 1039 b 729 968 706 1039 729 1008 l 729 946 b 642 875 729 906 706 875 "},"ﬂ":{"ha":833,"x_min":0,"x_max":0,"o":"m 150 622 l 53 622 l 53 717 l 150 717 l 150 864 b 308 1028 150 960 200 1028 l 479 1028 l 479 933 l 261 933 l 261 717 l 479 717 l 479 622 l 261 622 l 261 0 l 150 0 m 586 1028 l 697 1028 l 697 0 l 586 0 "},"á":{"ha":833,"x_min":0,"x_max":0,"o":"m 688 0 b 560 117 601 0 568 50 l 553 117 b 338 -17 522 35 454 -17 b 92 201 188 -17 92 67 b 400 410 92 333 185 410 l 553 410 l 553 481 b 382 639 553 585 490 639 b 190 533 286 639 228 599 l 115 589 b 389 733 151 664 243 733 b 664 492 557 733 664 643 l 664 97 l 764 97 l 764 0 m 357 76 b 553 208 471 76 553 135 l 553 326 l 400 326 b 208 218 268 326 208 288 l 208 189 b 357 76 208 115 265 76 m 403 813 l 331 846 l 449 1082 l 550 1033 "},"ă":{"ha":833,"x_min":0,"x_max":0,"o":"m 688 0 b 560 117 601 0 568 50 l 553 117 b 338 -17 522 35 454 -17 b 92 201 188 -17 92 67 b 400 410 92 333 185 410 l 553 410 l 553 481 b 382 639 553 585 490 639 b 190 533 286 639 228 599 l 115 589 b 389 733 151 664 243 733 b 664 492 557 733 664 643 l 664 97 l 764 97 l 764 0 m 357 76 b 553 208 471 76 553 135 l 553 326 l 400 326 b 208 218 268 326 208 288 l 208 189 b 357 76 208 115 265 76 m 393 826 b 169 1036 244 826 196 951 l 240 1067 l 269 1019 b 393 917 313 950 332 917 b 517 1019 454 917 474 950 l 546 1067 l 617 1036 b 393 826 590 951 542 826 "},"ǎ":{"ha":833,"x_min":0,"x_max":0,"o":"m 688 0 b 560 117 601 0 568 50 l 553 117 b 338 -17 522 35 454 -17 b 92 201 188 -17 92 67 b 400 410 92 333 185 410 l 553 410 l 553 481 b 382 639 553 585 490 639 b 190 533 286 639 228 599 l 115 589 b 389 733 151 664 243 733 b 664 492 557 733 664 643 l 664 97 l 764 97 l 764 0 m 357 76 b 553 208 471 76 553 135 l 553 326 l 400 326 b 208 218 268 326 208 288 l 208 189 b 357 76 208 115 265 76 m 324 832 l 169 1031 l 233 1074 l 396 911 l 558 1074 l 617 1031 l 463 832 "},"â":{"ha":833,"x_min":0,"x_max":0,"o":"m 688 0 b 560 117 601 0 568 50 l 553 117 b 338 -17 522 35 454 -17 b 92 201 188 -17 92 67 b 400 410 92 333 185 410 l 553 410 l 553 481 b 382 639 553 585 490 639 b 190 533 286 639 228 599 l 115 589 b 389 733 151 664 243 733 b 664 492 557 733 664 643 l 664 97 l 764 97 l 764 0 m 357 76 b 553 208 471 76 553 135 l 553 326 l 400 326 b 208 218 268 326 208 288 l 208 189 b 357 76 208 115 265 76 m 463 1063 l 617 864 l 554 821 l 392 983 l 229 821 l 169 864 l 324 1063 "},"ä":{"ha":833,"x_min":0,"x_max":0,"o":"m 688 0 b 560 117 601 0 568 50 l 553 117 b 338 -17 522 35 454 -17 b 92 201 188 -17 92 67 b 400 410 92 333 185 410 l 553 410 l 553 481 b 382 639 553 585 490 639 b 190 533 286 639 228 599 l 115 589 b 389 733 151 664 243 733 b 664 492 557 733 664 643 l 664 97 l 764 97 l 764 0 m 357 76 b 553 208 471 76 553 135 l 553 326 l 400 326 b 208 218 268 326 208 288 l 208 189 b 357 76 208 115 265 76 m 264 858 b 185 922 207 858 185 886 l 185 942 b 264 1006 185 978 207 1006 b 343 942 321 1006 343 978 l 343 922 b 264 858 343 886 321 858 m 522 858 b 443 922 465 858 443 886 l 443 942 b 522 1006 443 978 465 1006 b 601 942 579 1006 601 978 l 601 922 b 522 858 601 886 579 858 "},"ạ":{"ha":833,"x_min":0,"x_max":0,"o":"m 688 0 b 560 117 601 0 568 50 l 553 117 b 338 -17 522 35 454 -17 b 92 201 188 -17 92 67 b 400 410 92 333 185 410 l 553 410 l 553 481 b 382 639 553 585 490 639 b 190 533 286 639 228 599 l 115 589 b 389 733 151 664 243 733 b 664 492 557 733 664 643 l 664 97 l 764 97 l 764 0 m 357 76 b 553 208 471 76 553 135 l 553 326 l 400 326 b 208 218 268 326 208 288 l 208 189 b 357 76 208 115 265 76 m 393 -239 b 314 -175 336 -239 314 -211 l 314 -156 b 393 -92 314 -119 336 -92 b 472 -156 450 -92 472 -119 l 472 -175 b 393 -239 472 -211 450 -239 "},"à":{"ha":833,"x_min":0,"x_max":0,"o":"m 688 0 b 560 117 601 0 568 50 l 553 117 b 338 -17 522 35 454 -17 b 92 201 188 -17 92 67 b 400 410 92 333 185 410 l 553 410 l 553 481 b 382 639 553 585 490 639 b 190 533 286 639 228 599 l 115 589 b 389 733 151 664 243 733 b 664 492 557 733 664 643 l 664 97 l 764 97 l 764 0 m 357 76 b 553 208 471 76 553 135 l 553 326 l 400 326 b 208 218 268 326 208 288 l 208 189 b 357 76 208 115 265 76 m 236 1033 l 338 1082 l 456 846 l 383 813 "},"ả":{"ha":833,"x_min":0,"x_max":0,"o":"m 688 0 b 560 117 601 0 568 50 l 553 117 b 338 -17 522 35 454 -17 b 92 201 188 -17 92 67 b 400 410 92 333 185 410 l 553 410 l 553 481 b 382 639 553 585 490 639 b 190 533 286 639 228 599 l 115 589 b 389 733 151 664 243 733 b 664 492 557 733 664 643 l 664 97 l 764 97 l 764 0 m 357 76 b 553 208 471 76 553 135 l 553 326 l 400 326 b 208 218 268 326 208 288 l 208 189 b 357 76 208 115 265 76 m 276 1063 l 428 1063 b 525 986 499 1063 525 1028 b 457 843 525 946 500 897 l 424 801 l 360 833 l 440 978 l 276 978 "},"ā":{"ha":833,"x_min":0,"x_max":0,"o":"m 688 0 b 560 117 601 0 568 50 l 553 117 b 338 -17 522 35 454 -17 b 92 201 188 -17 92 67 b 400 410 92 333 185 410 l 553 410 l 553 481 b 382 639 553 585 490 639 b 190 533 286 639 228 599 l 115 589 b 389 733 151 664 243 733 b 664 492 557 733 664 643 l 664 97 l 764 97 l 764 0 m 357 76 b 553 208 471 76 553 135 l 553 326 l 400 326 b 208 218 268 326 208 288 l 208 189 b 357 76 208 115 265 76 m 199 979 l 588 979 l 588 885 l 199 885 "},"ą":{"ha":833,"x_min":0,"x_max":0,"o":"m 764 0 b 607 -158 621 -90 607 -131 b 665 -210 607 -197 636 -210 b 738 -174 696 -210 719 -196 l 793 -231 b 664 -287 775 -261 733 -287 b 513 -176 579 -287 513 -250 b 672 -4 513 -110 568 -54 l 671 0 b 560 117 603 6 565 51 l 553 117 b 338 -17 522 35 454 -17 b 92 201 188 -17 92 67 b 400 410 92 333 185 410 l 553 410 l 553 481 b 381 639 553 585 490 639 b 190 533 286 639 228 599 l 115 589 b 389 733 151 664 243 733 b 664 492 557 733 664 643 l 664 97 l 764 97 m 400 326 b 208 218 268 326 208 288 l 208 189 b 357 76 208 115 265 76 b 553 208 471 76 553 135 l 553 326 "},"å":{"ha":833,"x_min":0,"x_max":0,"o":"m 688 0 b 560 117 601 0 568 50 l 553 117 b 338 -17 522 35 454 -17 b 92 201 188 -17 92 67 b 400 410 92 333 185 410 l 553 410 l 553 481 b 382 639 553 585 490 639 b 190 533 286 639 228 599 l 115 589 b 389 733 151 664 243 733 b 664 492 557 733 664 643 l 664 97 l 764 97 l 764 0 m 357 76 b 553 208 471 76 553 135 l 553 326 l 400 326 b 208 218 268 326 208 288 l 208 189 b 357 76 208 115 265 76 m 393 800 b 232 960 303 800 232 868 b 393 1119 232 1051 303 1119 b 554 960 483 1119 554 1051 b 393 800 554 868 483 800 m 393 868 b 474 944 443 868 474 896 l 474 975 b 393 1051 474 1024 443 1051 b 313 975 343 1051 313 1024 l 313 944 b 393 868 313 896 343 868 "},"ǻ":{"ha":833,"x_min":0,"x_max":0,"o":"m 688 0 b 560 117 601 0 568 50 l 553 117 b 338 -17 522 35 454 -17 b 92 201 188 -17 92 67 b 400 410 92 333 185 410 l 553 410 l 553 481 b 382 639 553 585 490 639 b 190 533 286 639 228 599 l 115 589 b 389 733 151 664 243 733 b 664 492 557 733 664 643 l 664 97 l 764 97 l 764 0 m 357 76 b 553 208 471 76 553 135 l 553 326 l 400 326 b 208 218 268 326 208 288 l 208 189 b 357 76 208 115 265 76 m 408 1131 l 351 1167 l 456 1328 l 539 1276 m 393 786 b 232 946 303 786 232 854 b 393 1106 232 1038 303 1106 b 554 946 483 1106 554 1038 b 393 786 554 854 483 786 m 393 854 b 474 931 443 854 474 882 l 474 961 b 393 1038 474 1010 443 1038 b 313 961 343 1038 313 1010 l 313 931 b 393 854 313 882 343 854 "},"ã":{"ha":833,"x_min":0,"x_max":0,"o":"m 688 0 b 560 117 601 0 568 50 l 553 117 b 338 -17 522 35 454 -17 b 92 201 188 -17 92 67 b 400 410 92 333 185 410 l 553 410 l 553 481 b 382 639 553 585 490 639 b 190 533 286 639 228 599 l 115 589 b 389 733 151 664 243 733 b 664 492 557 733 664 643 l 664 97 l 764 97 l 764 0 m 357 76 b 553 208 471 76 553 135 l 553 326 l 400 326 b 208 218 268 326 208 288 l 208 189 b 357 76 208 115 265 76 m 494 850 b 383 886 446 850 413 871 b 286 919 339 910 310 919 b 206 882 256 919 233 906 l 160 938 b 292 1011 185 975 228 1011 b 403 975 340 1011 374 990 b 500 942 447 951 476 942 b 581 979 531 942 553 956 l 626 924 b 494 850 601 886 558 850 "},"ắ":{"ha":833,"x_min":0,"x_max":0,"o":"m 688 0 b 560 117 601 0 568 50 l 553 117 b 338 -17 522 35 454 -17 b 92 201 188 -17 92 67 b 400 410 92 333 185 410 l 553 410 l 553 481 b 382 639 553 585 490 639 b 190 533 286 639 228 599 l 115 589 b 389 733 151 664 243 733 b 664 492 557 733 664 643 l 664 97 l 764 97 l 764 0 m 357 76 b 553 208 471 76 553 135 l 553 326 l 400 326 b 208 218 268 326 208 288 l 208 189 b 357 76 208 115 265 76 m 392 813 b 163 1006 243 813 189 924 l 228 1038 l 257 993 b 393 901 301 926 332 901 b 529 993 454 901 485 926 l 558 1038 l 624 1006 b 392 813 594 915 536 813 m 403 983 l 335 1015 l 453 1251 l 550 1204 "},"ặ":{"ha":833,"x_min":0,"x_max":0,"o":"m 688 0 b 560 117 601 0 568 50 l 553 117 b 338 -17 522 35 454 -17 b 92 201 188 -17 92 67 b 400 410 92 333 185 410 l 553 410 l 553 481 b 382 639 553 585 490 639 b 190 533 286 639 228 599 l 115 589 b 389 733 151 664 243 733 b 664 492 557 733 664 643 l 664 97 l 764 97 l 764 0 m 357 76 b 553 208 471 76 553 135 l 553 326 l 400 326 b 208 218 268 326 208 288 l 208 189 b 357 76 208 115 265 76 m 393 826 b 169 1036 244 826 196 951 l 240 1067 l 269 1019 b 393 917 313 950 332 917 b 517 1019 454 917 474 950 l 546 1067 l 617 1036 b 393 826 590 951 542 826 m 393 -239 b 314 -175 336 -239 314 -211 l 314 -156 b 393 -92 314 -119 336 -92 b 472 -156 450 -92 472 -119 l 472 -175 b 393 -239 472 -211 450 -239 "},"ằ":{"ha":833,"x_min":0,"x_max":0,"o":"m 688 0 b 560 117 601 0 568 50 l 553 117 b 338 -17 522 35 454 -17 b 92 201 188 -17 92 67 b 400 410 92 333 185 410 l 553 410 l 553 481 b 382 639 553 585 490 639 b 190 533 286 639 228 599 l 115 589 b 389 733 151 664 243 733 b 664 492 557 733 664 643 l 664 97 l 764 97 l 764 0 m 357 76 b 553 208 471 76 553 135 l 553 326 l 400 326 b 208 218 268 326 208 288 l 208 189 b 357 76 208 115 265 76 m 394 813 b 163 1006 250 813 192 915 l 228 1038 l 257 993 b 393 901 301 926 332 901 b 529 993 454 901 485 926 l 558 1038 l 624 1006 b 394 813 597 924 543 813 m 236 1204 l 333 1251 l 451 1015 l 383 983 "},"ẳ":{"ha":833,"x_min":0,"x_max":0,"o":"m 688 0 b 560 117 601 0 568 50 l 553 117 b 338 -17 522 35 454 -17 b 92 201 188 -17 92 67 b 400 410 92 333 185 410 l 553 410 l 553 481 b 382 639 553 585 490 639 b 190 533 286 639 228 599 l 115 589 b 389 733 151 664 243 733 b 664 492 557 733 664 643 l 664 97 l 764 97 l 764 0 m 357 76 b 553 208 471 76 553 135 l 553 326 l 400 326 b 208 218 268 326 208 288 l 208 189 b 357 76 208 115 265 76 m 394 813 b 163 1006 250 813 192 915 l 228 1038 l 257 993 b 393 901 301 926 332 901 b 529 993 454 901 485 926 l 558 1038 l 624 1006 b 394 813 597 924 543 813 m 275 1236 l 406 1236 b 503 1160 476 1236 503 1201 b 435 1017 503 1119 478 1071 l 401 975 l 338 1007 l 418 1151 l 275 1151 "},"ẵ":{"ha":833,"x_min":0,"x_max":0,"o":"m 688 0 b 560 117 601 0 568 50 l 553 117 b 338 -17 522 35 454 -17 b 92 201 188 -17 92 67 b 400 410 92 333 185 410 l 553 410 l 553 481 b 382 639 553 585 490 639 b 190 533 286 639 228 599 l 115 589 b 389 733 151 664 243 733 b 664 492 557 733 664 643 l 664 97 l 764 97 l 764 0 m 357 76 b 553 208 471 76 553 135 l 553 326 l 400 326 b 208 218 268 326 208 288 l 208 189 b 357 76 208 115 265 76 m 394 813 b 163 1006 250 813 192 915 l 228 1038 l 257 993 b 393 901 301 926 332 901 b 529 993 454 901 485 926 l 558 1038 l 624 1006 b 394 813 597 924 543 813 m 493 1068 b 382 1104 444 1068 411 1089 b 285 1138 338 1128 308 1138 b 204 1100 254 1138 232 1124 l 161 1150 b 293 1224 186 1188 229 1224 b 404 1188 342 1224 375 1203 b 501 1154 449 1164 478 1154 b 582 1192 532 1154 554 1168 l 625 1142 b 493 1068 600 1104 557 1068 "},"ấ":{"ha":833,"x_min":0,"x_max":0,"o":"m 688 0 b 560 117 601 0 568 50 l 553 117 b 338 -17 522 35 454 -17 b 92 201 188 -17 92 67 b 400 410 92 333 185 410 l 553 410 l 553 481 b 382 639 553 585 490 639 b 190 533 286 639 228 599 l 115 589 b 389 733 151 664 243 733 b 664 492 557 733 664 643 l 664 97 l 764 97 l 764 0 m 357 76 b 553 208 471 76 553 135 l 553 326 l 400 326 b 208 218 268 326 208 288 l 208 189 b 357 76 208 115 265 76 m 607 989 l 539 1021 l 657 1257 l 754 1210 m 463 1049 l 615 849 l 554 807 l 392 972 l 229 807 l 171 849 l 324 1049 "},"ậ":{"ha":833,"x_min":0,"x_max":0,"o":"m 688 0 b 560 117 601 0 568 50 l 553 117 b 338 -17 522 35 454 -17 b 92 201 188 -17 92 67 b 400 410 92 333 185 410 l 553 410 l 553 481 b 382 639 553 585 490 639 b 190 533 286 639 228 599 l 115 589 b 389 733 151 664 243 733 b 664 492 557 733 664 643 l 664 97 l 764 97 l 764 0 m 357 76 b 553 208 471 76 553 135 l 553 326 l 400 326 b 208 218 268 326 208 288 l 208 189 b 357 76 208 115 265 76 m 463 1063 l 617 864 l 554 821 l 392 983 l 229 821 l 169 864 l 324 1063 m 393 -239 b 314 -175 336 -239 314 -211 l 314 -156 b 393 -92 314 -119 336 -92 b 472 -156 450 -92 472 -119 l 472 -175 b 393 -239 472 -211 450 -239 "},"ầ":{"ha":833,"x_min":0,"x_max":0,"o":"m 688 0 b 560 117 601 0 568 50 l 553 117 b 338 -17 522 35 454 -17 b 92 201 188 -17 92 67 b 400 410 92 333 185 410 l 553 410 l 553 481 b 382 639 553 585 490 639 b 190 533 286 639 228 599 l 115 589 b 389 733 151 664 243 733 b 664 492 557 733 664 643 l 664 97 l 764 97 l 764 0 m 357 76 b 553 208 471 76 553 135 l 553 326 l 400 326 b 208 218 268 326 208 288 l 208 189 b 357 76 208 115 265 76 m 32 1210 l 129 1257 l 247 1021 l 179 989 m 463 1049 l 615 849 l 554 807 l 392 972 l 229 807 l 171 849 l 324 1049 "},"ẩ":{"ha":833,"x_min":0,"x_max":0,"o":"m 688 0 b 560 117 601 0 568 50 l 553 117 b 338 -17 522 35 454 -17 b 92 201 188 -17 92 67 b 400 410 92 333 185 410 l 553 410 l 553 481 b 382 639 553 585 490 639 b 190 533 286 639 228 599 l 115 589 b 389 733 151 664 243 733 b 664 492 557 733 664 643 l 664 97 l 764 97 l 764 0 m 357 76 b 553 208 471 76 553 135 l 553 326 l 400 326 b 208 218 268 326 208 288 l 208 189 b 357 76 208 115 265 76 m 467 1242 l 618 1242 b 715 1165 689 1242 715 1207 b 647 1022 715 1125 690 1076 l 614 981 l 550 1013 l 631 1157 l 467 1157 m 463 1049 l 615 849 l 554 807 l 392 972 l 229 807 l 171 849 l 324 1049 "},"ẫ":{"ha":833,"x_min":0,"x_max":0,"o":"m 688 0 b 560 117 601 0 568 50 l 553 117 b 338 -17 522 35 454 -17 b 92 201 188 -17 92 67 b 400 410 92 333 185 410 l 553 410 l 553 481 b 382 639 553 585 490 639 b 190 533 286 639 228 599 l 115 589 b 389 733 151 664 243 733 b 664 492 557 733 664 643 l 664 97 l 764 97 l 764 0 m 357 76 b 553 208 471 76 553 135 l 553 326 l 400 326 b 208 218 268 326 208 288 l 208 189 b 357 76 208 115 265 76 m 293 1239 b 404 1203 342 1239 375 1218 b 501 1169 449 1179 478 1169 b 582 1207 532 1169 554 1183 l 625 1157 b 493 1083 600 1119 557 1083 b 382 1119 444 1083 411 1104 b 285 1153 338 1143 308 1153 b 204 1115 254 1153 232 1139 l 161 1165 b 293 1239 186 1203 229 1239 m 463 1035 l 615 849 l 554 807 l 392 961 l 229 807 l 171 849 l 324 1035 "},"æ":{"ha":833,"x_min":0,"x_max":0,"o":"m 196 -17 b 14 192 92 -17 14 56 b 261 410 14 336 101 410 l 349 410 l 349 483 b 236 650 349 607 307 650 b 104 540 165 650 131 606 l 31 586 b 240 733 60 661 129 733 b 413 625 324 733 381 694 l 417 625 b 589 733 454 704 517 733 b 808 406 733 733 808 621 l 808 331 l 450 331 l 450 296 b 583 72 450 165 496 72 b 717 196 656 72 693 133 l 797 158 b 581 -17 769 74 697 -17 b 378 142 486 -17 417 42 l 374 142 b 196 -17 349 33 282 -17 m 215 69 b 349 214 306 69 349 138 l 349 331 l 276 331 b 115 211 175 331 115 296 l 115 190 b 215 69 115 115 142 69 m 583 653 b 450 457 499 653 450 589 l 450 410 l 717 410 l 717 457 b 583 653 717 589 668 653 "},"ǽ":{"ha":833,"x_min":0,"x_max":0,"o":"m 196 -17 b 14 192 92 -17 14 56 b 261 410 14 336 101 410 l 349 410 l 349 483 b 236 650 349 607 307 650 b 104 540 165 650 131 606 l 31 586 b 240 733 60 661 129 733 b 413 625 324 733 381 694 l 417 625 b 589 733 454 704 517 733 b 808 406 733 733 808 621 l 808 331 l 450 331 l 450 296 b 583 72 450 165 496 72 b 717 196 656 72 693 133 l 797 158 b 581 -17 769 74 697 -17 b 378 142 486 -17 417 42 l 374 142 b 196 -17 349 33 282 -17 m 215 69 b 349 214 306 69 349 138 l 349 331 l 276 331 b 115 211 175 331 115 296 l 115 190 b 215 69 115 115 142 69 m 583 653 b 450 457 499 653 450 589 l 450 410 l 717 410 l 717 457 b 583 653 717 589 668 653 m 426 813 l 354 846 l 472 1082 l 574 1033 "},"ć":{"ha":833,"x_min":0,"x_max":0,"o":"m 442 -17 b 117 358 236 -17 117 132 b 440 733 117 586 238 733 b 706 568 579 733 665 665 l 617 521 b 440 638 590 594 529 638 b 236 419 310 638 236 546 l 236 297 b 443 79 236 171 308 79 b 638 204 539 79 601 126 l 717 150 b 442 -17 675 54 585 -17 m 444 813 l 372 846 l 490 1082 l 592 1033 "},"č":{"ha":833,"x_min":0,"x_max":0,"o":"m 442 -17 b 117 358 236 -17 117 132 b 440 733 117 586 238 733 b 706 568 579 733 665 665 l 617 521 b 440 638 590 594 529 638 b 236 419 310 638 236 546 l 236 297 b 443 79 236 171 308 79 b 638 204 539 79 601 126 l 717 150 b 442 -17 675 54 585 -17 m 365 832 l 211 1031 l 275 1074 l 438 911 l 600 1074 l 658 1031 l 504 832 "},"ç":{"ha":833,"x_min":0,"x_max":0,"o":"m 440 733 b 706 568 579 733 665 665 l 617 521 b 440 638 590 594 529 638 b 236 419 310 638 236 546 l 236 297 b 443 79 236 171 308 79 b 638 204 539 79 601 126 l 717 150 b 453 -17 675 56 590 -12 l 439 -85 l 443 -89 b 497 -81 461 -83 481 -81 b 592 -172 551 -81 592 -112 b 438 -287 592 -251 519 -287 b 300 -231 363 -287 319 -257 l 353 -174 b 438 -212 369 -194 397 -212 b 499 -169 472 -212 499 -199 b 404 -112 499 -144 482 -124 l 365 -107 l 385 -12 b 117 358 215 13 117 154 b 440 733 117 586 238 733 "},"ĉ":{"ha":833,"x_min":0,"x_max":0,"o":"m 442 -17 b 117 358 236 -17 117 132 b 440 733 117 586 238 733 b 706 568 579 733 665 665 l 617 521 b 440 638 590 594 529 638 b 236 419 310 638 236 546 l 236 297 b 443 79 236 171 308 79 b 638 204 539 79 601 126 l 717 150 b 442 -17 675 54 585 -17 m 504 1063 l 658 864 l 596 821 l 433 983 l 271 821 l 211 864 l 365 1063 "},"ċ":{"ha":833,"x_min":0,"x_max":0,"o":"m 442 -17 b 117 358 236 -17 117 132 b 440 733 117 586 238 733 b 706 568 579 733 665 665 l 617 521 b 440 638 590 594 529 638 b 236 419 310 638 236 546 l 236 297 b 443 79 236 171 308 79 b 638 204 539 79 601 126 l 717 150 b 442 -17 675 54 585 -17 m 435 850 b 347 921 371 850 347 881 l 347 943 b 435 1014 347 983 371 1014 b 522 943 499 1014 522 983 l 522 921 b 435 850 522 881 499 850 "},"ď":{"ha":833,"x_min":0,"x_max":0,"o":"m 329 -17 b 63 358 163 -17 63 124 b 329 733 63 593 163 733 b 536 600 422 733 493 688 l 542 600 l 542 1028 l 653 1028 l 653 0 l 542 0 l 542 117 l 536 117 b 329 -17 493 29 422 -17 m 365 82 b 542 229 457 82 542 133 l 542 488 b 365 635 542 583 457 635 b 182 419 244 635 182 553 l 182 297 b 365 82 182 164 244 82 m 757 1028 l 900 1028 l 832 765 l 747 765 "},"đ":{"ha":833,"x_min":0,"x_max":0,"o":"m 590 117 l 585 117 b 364 -17 539 29 464 -17 b 83 358 189 -17 83 124 b 364 733 83 593 189 733 b 585 600 464 733 539 688 l 590 600 l 590 844 l 378 844 l 378 931 l 590 931 l 590 1028 l 701 1028 l 701 931 l 792 931 l 792 844 l 701 844 l 701 0 l 590 0 m 407 82 b 590 229 506 82 590 133 l 590 488 b 407 635 590 583 506 635 b 203 419 278 635 203 549 l 203 297 b 407 82 203 168 278 82 "},"ð":{"ha":833,"x_min":0,"x_max":0,"o":"m 638 983 l 517 899 b 742 369 633 785 742 611 b 421 -17 742 111 618 -17 b 92 342 214 -17 92 124 b 389 700 92 560 215 700 b 618 567 501 700 574 640 l 624 569 b 438 844 578 683 515 771 l 300 747 l 247 810 l 375 899 b 176 1028 314 947 247 989 l 351 1028 b 454 956 382 1008 418 985 l 585 1046 m 417 79 b 624 293 540 79 624 149 l 624 390 b 417 604 624 535 540 604 b 210 390 293 604 210 535 l 210 293 b 417 79 210 149 293 79 "},"é":{"ha":833,"x_min":0,"x_max":0,"o":"m 429 -17 b 93 357 224 -17 93 131 b 422 733 93 586 228 733 b 740 383 615 733 740 586 l 740 331 l 210 331 l 210 297 b 429 79 210 171 294 79 b 635 204 525 79 597 126 l 717 149 b 429 -17 674 53 571 -17 m 422 642 b 210 424 300 642 210 549 l 210 414 l 621 414 l 621 429 b 422 642 621 556 540 642 m 429 813 l 357 846 l 475 1082 l 576 1033 "},"ĕ":{"ha":833,"x_min":0,"x_max":0,"o":"m 429 -17 b 93 357 224 -17 93 131 b 422 733 93 586 228 733 b 740 383 615 733 740 586 l 740 331 l 210 331 l 210 297 b 429 79 210 171 294 79 b 635 204 525 79 597 126 l 717 149 b 429 -17 674 53 571 -17 m 422 642 b 210 424 300 642 210 549 l 210 414 l 621 414 l 621 429 b 422 642 621 556 540 642 m 419 826 b 196 1036 271 826 222 951 l 267 1067 l 296 1019 b 419 917 339 950 358 917 b 543 1019 481 917 500 950 l 572 1067 l 643 1036 b 419 826 617 951 568 826 "},"ě":{"ha":833,"x_min":0,"x_max":0,"o":"m 429 -17 b 93 357 224 -17 93 131 b 422 733 93 586 228 733 b 740 383 615 733 740 586 l 740 331 l 210 331 l 210 297 b 429 79 210 171 294 79 b 635 204 525 79 597 126 l 717 149 b 429 -17 674 53 571 -17 m 422 642 b 210 424 300 642 210 549 l 210 414 l 621 414 l 621 429 b 422 642 621 556 540 642 m 350 832 l 196 1031 l 260 1074 l 422 911 l 585 1074 l 643 1031 l 489 832 "},"ê":{"ha":833,"x_min":0,"x_max":0,"o":"m 429 -17 b 93 357 224 -17 93 131 b 422 733 93 586 228 733 b 740 383 615 733 740 586 l 740 331 l 210 331 l 210 297 b 429 79 210 171 294 79 b 635 204 525 79 597 126 l 717 149 b 429 -17 674 53 571 -17 m 422 642 b 210 424 300 642 210 549 l 210 414 l 621 414 l 621 429 b 422 642 621 556 540 642 m 489 1063 l 643 864 l 581 821 l 418 983 l 256 821 l 196 864 l 350 1063 "},"ë":{"ha":833,"x_min":0,"x_max":0,"o":"m 429 -17 b 93 357 224 -17 93 131 b 422 733 93 586 228 733 b 740 383 615 733 740 586 l 740 331 l 210 331 l 210 297 b 429 79 210 171 294 79 b 635 204 525 79 597 126 l 717 149 b 429 -17 674 53 571 -17 m 422 642 b 210 424 300 642 210 549 l 210 414 l 621 414 l 621 429 b 422 642 621 556 540 642 m 290 858 b 211 922 233 858 211 886 l 211 942 b 290 1006 211 978 233 1006 b 369 942 347 1006 369 978 l 369 922 b 290 858 369 886 347 858 m 549 858 b 469 922 492 858 469 886 l 469 942 b 549 1006 469 978 492 1006 b 628 942 606 1006 628 978 l 628 922 b 549 858 628 886 606 858 "},"ė":{"ha":833,"x_min":0,"x_max":0,"o":"m 429 -17 b 93 357 224 -17 93 131 b 422 733 93 586 228 733 b 740 383 615 733 740 586 l 740 331 l 210 331 l 210 297 b 429 79 210 171 294 79 b 635 204 525 79 597 126 l 717 149 b 429 -17 674 53 571 -17 m 422 642 b 210 424 300 642 210 549 l 210 414 l 621 414 l 621 429 b 422 642 621 556 540 642 m 419 850 b 332 921 356 850 332 881 l 332 943 b 419 1014 332 983 356 1014 b 507 943 483 1014 507 983 l 507 921 b 419 850 507 881 483 850 "},"ẹ":{"ha":833,"x_min":0,"x_max":0,"o":"m 429 -17 b 93 357 224 -17 93 131 b 422 733 93 586 228 733 b 740 383 615 733 740 586 l 740 331 l 210 331 l 210 297 b 429 79 210 171 294 79 b 635 204 525 79 597 126 l 717 149 b 429 -17 674 53 571 -17 m 422 642 b 210 424 300 642 210 549 l 210 414 l 621 414 l 621 429 b 422 642 621 556 540 642 m 429 -239 b 350 -175 372 -239 350 -211 l 350 -156 b 429 -92 350 -119 372 -92 b 508 -156 486 -92 508 -119 l 508 -175 b 429 -239 508 -211 486 -239 "},"è":{"ha":833,"x_min":0,"x_max":0,"o":"m 429 -17 b 93 357 224 -17 93 131 b 422 733 93 586 228 733 b 740 383 615 733 740 586 l 740 331 l 210 331 l 210 297 b 429 79 210 171 294 79 b 635 204 525 79 597 126 l 717 149 b 429 -17 674 53 571 -17 m 422 642 b 210 424 300 642 210 549 l 210 414 l 621 414 l 621 429 b 422 642 621 556 540 642 m 263 1033 l 364 1082 l 482 846 l 410 813 "},"ẻ":{"ha":833,"x_min":0,"x_max":0,"o":"m 429 -17 b 93 357 224 -17 93 131 b 422 733 93 586 228 733 b 740 383 615 733 740 586 l 740 331 l 210 331 l 210 297 b 429 79 210 171 294 79 b 635 204 525 79 597 126 l 717 149 b 429 -17 674 53 571 -17 m 422 642 b 210 424 300 642 210 549 l 210 414 l 621 414 l 621 429 b 422 642 621 556 540 642 m 303 1063 l 454 1063 b 551 986 525 1063 551 1028 b 483 843 551 946 526 897 l 450 801 l 386 833 l 467 978 l 303 978 "},"ē":{"ha":833,"x_min":0,"x_max":0,"o":"m 429 -17 b 93 357 224 -17 93 131 b 422 733 93 586 228 733 b 740 383 615 733 740 586 l 740 331 l 210 331 l 210 297 b 429 79 210 171 294 79 b 635 204 525 79 597 126 l 717 149 b 429 -17 674 53 571 -17 m 422 642 b 210 424 300 642 210 549 l 210 414 l 621 414 l 621 429 b 422 642 621 556 540 642 m 225 979 l 614 979 l 614 885 l 225 885 "},"ę":{"ha":833,"x_min":0,"x_max":0,"o":"m 501 -287 b 350 -176 417 -287 350 -250 b 507 -8 350 -111 404 -57 l 504 -4 b 419 -17 486 -11 457 -17 b 93 358 228 -17 93 131 b 422 733 93 585 228 733 b 740 383 615 733 740 586 l 740 331 l 210 331 l 210 297 b 429 79 210 171 294 79 b 635 204 525 79 597 126 l 717 149 b 563 -17 690 90 621 31 b 444 -158 476 -87 444 -118 b 503 -210 444 -197 474 -210 b 575 -174 533 -210 557 -196 l 631 -231 b 501 -287 613 -261 571 -287 m 621 414 l 621 429 b 422 642 621 556 540 642 b 210 424 300 642 210 549 l 210 414 "},"ẽ":{"ha":833,"x_min":0,"x_max":0,"o":"m 429 -17 b 93 357 224 -17 93 131 b 422 733 93 586 228 733 b 740 383 615 733 740 586 l 740 331 l 210 331 l 210 297 b 429 79 210 171 294 79 b 635 204 525 79 597 126 l 717 149 b 429 -17 674 53 571 -17 m 422 642 b 210 424 300 642 210 549 l 210 414 l 621 414 l 621 429 b 422 642 621 556 540 642 m 521 850 b 410 886 472 850 439 871 b 313 919 365 910 336 919 b 232 882 282 919 260 906 l 186 938 b 318 1011 211 975 254 1011 b 429 975 367 1011 400 990 b 526 942 474 951 503 942 b 607 979 557 942 579 956 l 653 924 b 521 850 628 886 585 850 "},"ế":{"ha":833,"x_min":0,"x_max":0,"o":"m 429 -17 b 93 357 224 -17 93 131 b 422 733 93 586 228 733 b 740 383 615 733 740 586 l 740 331 l 210 331 l 210 297 b 429 79 210 171 294 79 b 635 204 525 79 597 126 l 717 149 b 429 -17 674 53 571 -17 m 422 642 b 210 424 300 642 210 549 l 210 414 l 621 414 l 621 429 b 422 642 621 556 540 642 m 633 989 l 565 1021 l 683 1257 l 781 1210 m 489 1049 l 642 849 l 581 807 l 418 972 l 256 807 l 197 849 l 350 1049 "},"ệ":{"ha":833,"x_min":0,"x_max":0,"o":"m 429 -17 b 93 357 224 -17 93 131 b 422 733 93 586 228 733 b 740 383 615 733 740 586 l 740 331 l 210 331 l 210 297 b 429 79 210 171 294 79 b 635 204 525 79 597 126 l 717 149 b 429 -17 674 53 571 -17 m 422 642 b 210 424 300 642 210 549 l 210 414 l 621 414 l 621 429 b 422 642 621 556 540 642 m 489 1063 l 643 864 l 581 821 l 418 983 l 256 821 l 196 864 l 350 1063 m 429 -239 b 350 -175 372 -239 350 -211 l 350 -156 b 429 -92 350 -119 372 -92 b 508 -156 486 -92 508 -119 l 508 -175 b 429 -239 508 -211 486 -239 "},"ề":{"ha":833,"x_min":0,"x_max":0,"o":"m 429 -17 b 93 357 224 -17 93 131 b 422 733 93 586 228 733 b 740 383 615 733 740 586 l 740 331 l 210 331 l 210 297 b 429 79 210 171 294 79 b 635 204 525 79 597 126 l 717 149 b 429 -17 674 53 571 -17 m 422 642 b 210 424 300 642 210 549 l 210 414 l 621 414 l 621 429 b 422 642 621 556 540 642 m 58 1210 l 156 1257 l 274 1021 l 206 989 m 489 1049 l 642 849 l 581 807 l 418 972 l 256 807 l 197 849 l 350 1049 "},"ể":{"ha":833,"x_min":0,"x_max":0,"o":"m 429 -17 b 93 357 224 -17 93 131 b 422 733 93 586 228 733 b 740 383 615 733 740 586 l 740 331 l 210 331 l 210 297 b 429 79 210 171 294 79 b 635 204 525 79 597 126 l 717 149 b 429 -17 674 53 571 -17 m 422 642 b 210 424 300 642 210 549 l 210 414 l 621 414 l 621 429 b 422 642 621 556 540 642 m 493 1242 l 644 1242 b 742 1165 715 1242 742 1207 b 674 1022 742 1125 717 1076 l 640 981 l 576 1013 l 657 1157 l 493 1157 m 489 1049 l 642 849 l 581 807 l 418 972 l 256 807 l 197 849 l 350 1049 "},"ễ":{"ha":833,"x_min":0,"x_max":0,"o":"m 429 -17 b 93 357 224 -17 93 131 b 422 733 93 586 228 733 b 740 383 615 733 740 586 l 740 331 l 210 331 l 210 297 b 429 79 210 171 294 79 b 635 204 525 79 597 126 l 717 149 b 429 -17 674 53 571 -17 m 422 642 b 210 424 300 642 210 549 l 210 414 l 621 414 l 621 429 b 422 642 621 556 540 642 m 319 1239 b 431 1203 368 1239 401 1218 b 528 1169 475 1179 504 1169 b 608 1207 558 1169 581 1183 l 651 1157 b 519 1083 626 1119 583 1083 b 408 1119 471 1083 438 1104 b 311 1153 364 1143 335 1153 b 231 1115 281 1153 258 1139 l 188 1165 b 319 1239 213 1203 256 1239 m 489 1035 l 642 849 l 581 807 l 418 961 l 256 807 l 197 849 l 350 1035 "},"ə":{"ha":833,"x_min":0,"x_max":0,"o":"m 624 386 l 624 419 b 404 638 624 546 539 638 b 199 513 308 638 236 590 l 117 568 b 404 733 160 664 263 733 b 740 360 610 733 740 586 b 411 -17 740 131 606 -17 b 93 333 218 -17 93 131 l 93 386 m 213 288 b 411 75 213 161 293 75 b 624 293 533 75 624 168 l 624 303 l 213 303 "},"ğ":{"ha":833,"x_min":0,"x_max":0,"o":"m 418 -294 b 93 -117 188 -294 93 -231 b 210 21 93 -40 136 1 l 210 38 b 146 136 169 57 146 88 b 275 261 146 210 201 243 l 275 267 b 135 486 188 306 135 385 b 413 733 135 632 244 733 b 521 717 453 733 489 728 l 772 717 l 772 628 l 642 628 b 692 486 676 590 692 539 b 413 239 692 340 581 239 b 344 244 389 239 367 240 b 242 163 301 236 242 211 b 357 110 242 119 289 110 l 515 110 b 779 -82 700 110 779 35 b 418 -294 779 -226 657 -294 m 413 325 b 575 467 524 325 575 382 l 575 507 b 413 647 575 592 524 647 b 251 507 303 647 251 592 l 251 467 b 413 325 251 382 303 325 m 675 -87 b 519 7 675 -31 635 7 l 271 7 b 199 -90 224 -12 199 -44 b 361 -206 199 -153 244 -206 l 469 -206 b 675 -87 599 -206 675 -165 m 413 826 b 189 1036 264 826 215 951 l 260 1067 l 289 1019 b 413 917 332 950 351 917 b 536 1019 474 917 493 950 l 565 1067 l 636 1036 b 413 826 610 951 561 826 "},"ĝ":{"ha":833,"x_min":0,"x_max":0,"o":"m 418 -294 b 93 -117 188 -294 93 -231 b 210 21 93 -40 136 1 l 210 38 b 146 136 169 57 146 88 b 275 261 146 210 201 243 l 275 267 b 135 486 188 306 135 385 b 413 733 135 632 244 733 b 521 717 453 733 489 728 l 772 717 l 772 628 l 642 628 b 692 486 676 590 692 539 b 413 239 692 340 581 239 b 344 244 389 239 367 240 b 242 163 301 236 242 211 b 357 110 242 119 289 110 l 515 110 b 779 -82 700 110 779 35 b 418 -294 779 -226 657 -294 m 413 325 b 575 467 524 325 575 382 l 575 507 b 413 647 575 592 524 647 b 251 507 303 647 251 592 l 251 467 b 413 325 251 382 303 325 m 675 -87 b 519 7 675 -31 635 7 l 271 7 b 199 -90 224 -12 199 -44 b 361 -206 199 -153 244 -206 l 469 -206 b 675 -87 599 -206 675 -165 m 482 1063 l 636 864 l 574 821 l 411 983 l 249 821 l 189 864 l 343 1063 "},"ģ":{"ha":833,"x_min":0,"x_max":0,"o":"m 779 -82 b 418 -294 779 -226 657 -294 b 93 -117 188 -294 93 -231 b 210 21 93 -40 136 1 l 210 38 b 146 136 169 57 146 88 b 275 261 146 210 201 243 l 275 267 b 135 486 188 306 135 385 b 413 733 135 632 244 733 b 554 704 467 733 514 724 l 554 717 b 640 814 554 772 578 814 l 772 814 l 772 717 l 611 717 l 611 668 b 692 486 663 624 692 561 b 413 239 692 340 581 239 b 344 244 389 239 367 240 b 242 163 301 236 242 211 b 357 110 242 119 289 110 l 515 110 b 779 -82 700 110 779 35 m 675 -87 b 519 7 675 -31 635 7 l 271 7 b 199 -90 224 -12 199 -44 b 361 -206 199 -153 244 -206 l 469 -206 b 675 -87 599 -206 675 -165 m 413 325 b 575 467 524 325 575 382 l 575 507 b 413 647 575 592 524 647 b 251 507 303 647 251 592 l 251 467 b 413 325 251 382 303 325 m 439 1078 l 524 1078 l 485 815 l 333 815 "},"ġ":{"ha":833,"x_min":0,"x_max":0,"o":"m 779 -82 b 418 -294 779 -226 657 -294 b 93 -117 188 -294 93 -231 b 210 21 93 -40 136 1 l 210 38 b 146 136 169 57 146 88 b 275 261 146 210 201 243 l 275 267 b 135 486 188 306 135 385 b 413 733 135 632 244 733 b 554 704 467 733 514 724 l 554 717 b 640 814 554 772 578 814 l 772 814 l 772 717 l 611 717 l 611 668 b 692 486 663 624 692 561 b 413 239 692 340 581 239 b 344 244 389 239 367 240 b 242 163 301 236 242 211 b 357 110 242 119 289 110 l 515 110 b 779 -82 700 110 779 35 m 675 -87 b 519 7 675 -31 635 7 l 271 7 b 199 -90 224 -12 199 -44 b 361 -206 199 -153 244 -206 l 469 -206 b 675 -87 599 -206 675 -165 m 413 325 b 575 467 524 325 575 382 l 575 507 b 413 647 575 592 524 647 b 251 507 303 647 251 592 l 251 467 b 413 325 251 382 303 325 m 413 850 b 325 921 349 850 325 881 l 325 943 b 413 1014 325 983 349 1014 b 500 943 476 1014 500 983 l 500 921 b 413 850 500 881 476 850 "},"ħ":{"ha":833,"x_min":0,"x_max":0,"o":"m 136 0 l 136 844 l 46 844 l 46 931 l 136 931 l 136 1028 l 247 1028 l 247 931 l 460 931 l 460 844 l 247 844 l 247 600 l 253 600 b 457 733 283 671 339 733 b 706 460 607 733 706 633 l 706 0 l 594 0 l 594 440 b 425 635 594 571 535 635 b 247 497 336 635 247 592 l 247 0 "},"ĥ":{"ha":833,"x_min":0,"x_max":0,"o":"m 136 1028 l 247 1028 l 247 600 l 253 600 b 457 733 283 671 339 733 b 706 460 607 733 706 633 l 706 0 l 594 0 l 594 440 b 425 635 594 571 535 635 b 247 497 336 635 247 592 l 247 0 l 136 0 m 261 1315 l 415 1117 l 353 1074 l 190 1236 l 28 1074 l -32 1117 l 122 1315 "},"ı":{"ha":833,"x_min":0,"x_max":0,"o":"m 147 94 l 406 94 l 406 622 l 147 622 l 147 717 l 517 717 l 517 94 l 758 94 l 758 0 l 147 0 "},"í":{"ha":833,"x_min":0,"x_max":0,"o":"m 147 94 l 406 94 l 406 622 l 147 622 l 147 717 l 517 717 l 517 94 l 758 94 l 758 0 l 147 0 m 471 813 l 399 846 l 517 1082 l 618 1033 "},"ĭ":{"ha":833,"x_min":0,"x_max":0,"o":"m 147 94 l 406 94 l 406 622 l 147 622 l 147 717 l 517 717 l 517 94 l 758 94 l 758 0 l 147 0 m 461 826 b 238 1036 313 826 264 951 l 308 1067 l 338 1019 b 461 917 381 950 400 917 b 585 1019 522 917 542 950 l 614 1067 l 685 1036 b 461 826 658 951 610 826 "},"ǐ":{"ha":833,"x_min":0,"x_max":0,"o":"m 147 94 l 406 94 l 406 622 l 147 622 l 147 717 l 517 717 l 517 94 l 758 94 l 758 0 l 147 0 m 392 832 l 238 1031 l 301 1074 l 464 911 l 626 1074 l 685 1031 l 531 832 "},"î":{"ha":833,"x_min":0,"x_max":0,"o":"m 147 94 l 406 94 l 406 622 l 147 622 l 147 717 l 517 717 l 517 94 l 758 94 l 758 0 l 147 0 m 531 1063 l 685 864 l 622 821 l 460 983 l 297 821 l 238 864 l 392 1063 "},"ï":{"ha":833,"x_min":0,"x_max":0,"o":"m 147 94 l 406 94 l 406 622 l 147 622 l 147 717 l 517 717 l 517 94 l 758 94 l 758 0 l 147 0 m 332 858 b 253 922 275 858 253 886 l 253 942 b 332 1006 253 978 275 1006 b 411 942 389 1006 411 978 l 411 922 b 332 858 411 886 389 858 m 590 858 b 511 922 533 858 511 886 l 511 942 b 590 1006 511 978 533 1006 b 669 942 647 1006 669 978 l 669 922 b 590 858 669 886 647 858 "},"ị":{"ha":833,"x_min":0,"x_max":0,"o":"m 461 875 b 374 946 397 875 374 906 l 374 968 b 461 1039 374 1008 397 1039 b 549 968 525 1039 549 1008 l 549 946 b 461 875 549 906 525 875 m 147 94 l 406 94 l 406 622 l 147 622 l 147 717 l 517 717 l 517 94 l 758 94 l 758 0 l 147 0 m 461 -239 b 382 -175 404 -239 382 -211 l 382 -156 b 461 -92 382 -119 404 -92 b 540 -156 518 -92 540 -119 l 540 -175 b 461 -239 540 -211 518 -239 "},"ì":{"ha":833,"x_min":0,"x_max":0,"o":"m 147 94 l 406 94 l 406 622 l 147 622 l 147 717 l 517 717 l 517 94 l 758 94 l 758 0 l 147 0 m 304 1033 l 406 1082 l 524 846 l 451 813 "},"ỉ":{"ha":833,"x_min":0,"x_max":0,"o":"m 147 94 l 406 94 l 406 622 l 147 622 l 147 717 l 517 717 l 517 94 l 758 94 l 758 0 l 147 0 m 344 1063 l 496 1063 b 593 986 567 1063 593 1028 b 525 843 593 946 568 897 l 492 801 l 428 833 l 508 978 l 344 978 "},"ī":{"ha":833,"x_min":0,"x_max":0,"o":"m 147 94 l 406 94 l 406 622 l 147 622 l 147 717 l 517 717 l 517 94 l 758 94 l 758 0 l 147 0 m 267 979 l 656 979 l 656 885 l 267 885 "},"į":{"ha":833,"x_min":0,"x_max":0,"o":"m 658 -287 b 507 -176 574 -287 507 -250 b 667 -4 507 -110 563 -54 l 665 0 l 147 0 l 147 94 l 406 94 l 406 622 l 147 622 l 147 717 l 517 717 l 517 94 l 758 94 l 758 0 b 601 -158 615 -90 601 -131 b 660 -210 601 -197 631 -210 b 732 -174 690 -210 714 -196 l 788 -231 b 658 -287 769 -261 728 -287 m 461 875 b 374 946 397 875 374 906 l 374 968 b 461 1039 374 1008 397 1039 b 549 968 525 1039 549 1008 l 549 946 b 461 875 549 906 525 875 "},"ĩ":{"ha":833,"x_min":0,"x_max":0,"o":"m 147 94 l 406 94 l 406 622 l 147 622 l 147 717 l 517 717 l 517 94 l 758 94 l 758 0 l 147 0 m 563 850 b 451 886 514 850 481 871 b 354 919 407 910 378 919 b 274 882 324 919 301 906 l 228 938 b 360 1011 253 975 296 1011 b 471 975 408 1011 442 990 b 568 942 515 951 544 942 b 649 979 599 942 621 956 l 694 924 b 563 850 669 886 626 850 "},"ĳ":{"ha":833,"x_min":0,"x_max":0,"o":"m 146 717 l 257 717 l 257 0 l 146 0 m 257 -183 l 576 -183 l 576 717 l 688 717 l 688 -114 b 529 -278 688 -210 638 -278 l 257 -278 m 201 875 b 114 946 138 875 114 906 l 114 968 b 201 1039 114 1008 138 1039 b 289 968 265 1039 289 1008 l 289 946 b 201 875 289 906 265 875 m 632 875 b 544 946 568 875 544 906 l 544 968 b 632 1039 544 1008 568 1039 b 719 968 696 1039 719 1008 l 719 946 b 632 875 719 906 696 875 "},"ȷ":{"ha":833,"x_min":0,"x_max":0,"o":"m 142 -183 l 489 -183 l 489 622 l 129 622 l 129 717 l 600 717 l 600 -114 b 442 -278 600 -210 550 -278 l 142 -278 "},"ĵ":{"ha":833,"x_min":0,"x_max":0,"o":"m 142 -183 l 489 -183 l 489 622 l 129 622 l 129 717 l 600 717 l 600 -114 b 442 -278 600 -210 550 -278 l 142 -278 m 614 1063 l 768 864 l 706 821 l 543 983 l 381 821 l 321 864 l 475 1063 "},"ķ":{"ha":833,"x_min":0,"x_max":0,"o":"m 146 1028 l 257 1028 l 257 379 l 263 379 l 388 497 l 626 717 l 763 717 l 465 436 l 797 0 l 660 0 l 381 372 l 257 260 l 257 0 l 146 0 m 376 -86 l 528 -86 l 422 -349 l 338 -349 "},"ĸ":{"ha":833,"x_min":0,"x_max":0,"o":"m 393 351 l 258 229 l 258 0 l 147 0 l 147 717 l 258 717 l 258 354 l 264 354 l 396 483 l 632 717 l 768 717 l 471 425 l 803 0 l 665 0 "},"ĺ":{"ha":833,"x_min":0,"x_max":0,"o":"m 111 94 l 361 94 l 361 933 l 111 933 l 111 1028 l 472 1028 l 472 94 l 722 94 l 722 0 l 111 0 m 426 1065 l 354 1099 l 472 1335 l 574 1286 "},"ľ":{"ha":833,"x_min":0,"x_max":0,"o":"m 111 94 l 361 94 l 361 933 l 111 933 l 111 1028 l 472 1028 l 472 94 l 722 94 l 722 0 l 111 0 m 676 765 l 592 765 l 601 1028 l 744 1028 "},"ļ":{"ha":833,"x_min":0,"x_max":0,"o":"m 111 94 l 361 94 l 361 933 l 111 933 l 111 1028 l 472 1028 l 472 94 l 722 94 l 722 0 l 111 0 m 344 -86 l 496 -86 l 390 -349 l 306 -349 "},"ŀ":{"ha":833,"x_min":0,"x_max":0,"o":"m 111 94 l 361 94 l 361 933 l 111 933 l 111 1028 l 472 1028 l 472 94 l 722 94 l 722 0 l 111 0 m 714 342 b 626 413 650 342 626 372 l 626 435 b 714 506 626 475 650 506 b 801 435 778 506 801 475 l 801 413 b 714 342 801 372 778 342 "},"ł":{"ha":833,"x_min":0,"x_max":0,"o":"m 111 94 l 361 94 l 361 400 l 149 331 l 149 424 l 361 493 l 361 933 l 111 933 l 111 1028 l 472 1028 l 472 525 l 685 594 l 685 501 l 472 432 l 472 94 l 722 94 l 722 0 l 111 0 "},"ń":{"ha":833,"x_min":0,"x_max":0,"o":"m 136 0 l 136 717 l 247 717 l 247 600 l 253 600 b 457 733 283 671 339 733 b 706 460 607 733 706 633 l 706 0 l 594 0 l 594 440 b 425 635 594 571 535 635 b 247 497 336 635 247 592 l 247 0 m 431 813 l 358 846 l 476 1082 l 578 1033 "},"ň":{"ha":833,"x_min":0,"x_max":0,"o":"m 136 0 l 136 717 l 247 717 l 247 600 l 253 600 b 457 733 283 671 339 733 b 706 460 607 733 706 633 l 706 0 l 594 0 l 594 440 b 425 635 594 571 535 635 b 247 497 336 635 247 592 l 247 0 m 351 832 l 197 1031 l 261 1074 l 424 911 l 586 1074 l 644 1031 l 490 832 "},"ņ":{"ha":833,"x_min":0,"x_max":0,"o":"m 136 0 l 136 717 l 247 717 l 247 600 l 253 600 b 457 733 283 671 339 733 b 706 460 607 733 706 633 l 706 0 l 594 0 l 594 440 b 425 635 594 571 535 635 b 247 497 336 635 247 592 l 247 0 m 349 -86 l 500 -86 l 394 -349 l 310 -349 "},"ñ":{"ha":833,"x_min":0,"x_max":0,"o":"m 136 0 l 136 717 l 247 717 l 247 600 l 253 600 b 457 733 283 671 339 733 b 706 460 607 733 706 633 l 706 0 l 594 0 l 594 440 b 425 635 594 571 535 635 b 247 497 336 635 247 592 l 247 0 m 522 850 b 411 886 474 850 440 871 b 314 919 367 910 338 919 b 233 882 283 919 261 906 l 188 938 b 319 1011 213 975 256 1011 b 431 975 368 1011 401 990 b 528 942 475 951 504 942 b 608 979 558 942 581 956 l 654 924 b 522 850 629 886 586 850 "},"ŉ":{"ha":833,"x_min":0,"x_max":0,"o":"m 136 717 l 247 717 l 247 600 l 253 600 b 457 733 283 671 339 733 b 706 460 607 733 706 633 l 706 0 l 594 0 l 594 440 b 425 635 594 571 535 635 b 247 497 336 635 247 592 l 247 0 l 136 0 m 17 1028 l 146 1028 l 74 771 l 0 771 "},"ŋ":{"ha":833,"x_min":0,"x_max":0,"o":"m 247 -183 l 594 -183 l 594 440 b 425 635 594 571 535 635 b 247 497 336 635 247 592 l 247 0 l 136 0 l 136 717 l 247 717 l 247 600 l 253 600 b 457 733 283 671 339 733 b 706 460 607 733 706 633 l 706 -114 b 547 -278 706 -210 656 -278 l 247 -278 "},"ó":{"ha":833,"x_min":0,"x_max":0,"o":"m 417 -17 b 92 358 215 -17 92 131 b 417 733 92 586 215 733 b 742 358 618 733 742 586 b 417 -17 742 131 618 -17 m 417 79 b 624 307 540 79 624 153 l 624 410 b 417 638 624 564 540 638 b 210 410 293 638 210 564 l 210 307 b 417 79 210 153 293 79 m 426 813 l 354 846 l 472 1082 l 574 1033 "},"ŏ":{"ha":833,"x_min":0,"x_max":0,"o":"m 417 -17 b 92 358 215 -17 92 131 b 417 733 92 586 215 733 b 742 358 618 733 742 586 b 417 -17 742 131 618 -17 m 417 79 b 624 307 540 79 624 153 l 624 410 b 417 638 624 564 540 638 b 210 410 293 638 210 564 l 210 307 b 417 79 210 153 293 79 m 417 826 b 193 1036 268 826 219 951 l 264 1067 l 293 1019 b 417 917 336 950 356 917 b 540 1019 478 917 497 950 l 569 1067 l 640 1036 b 417 826 614 951 565 826 "},"ǒ":{"ha":833,"x_min":0,"x_max":0,"o":"m 417 -17 b 92 358 215 -17 92 131 b 417 733 92 586 215 733 b 742 358 618 733 742 586 b 417 -17 742 131 618 -17 m 417 79 b 624 307 540 79 624 153 l 624 410 b 417 638 624 564 540 638 b 210 410 293 638 210 564 l 210 307 b 417 79 210 153 293 79 m 347 832 l 193 1031 l 257 1074 l 419 911 l 582 1074 l 640 1031 l 486 832 "},"ô":{"ha":833,"x_min":0,"x_max":0,"o":"m 417 -17 b 92 358 215 -17 92 131 b 417 733 92 586 215 733 b 742 358 618 733 742 586 b 417 -17 742 131 618 -17 m 417 79 b 624 307 540 79 624 153 l 624 410 b 417 638 624 564 540 638 b 210 410 293 638 210 564 l 210 307 b 417 79 210 153 293 79 m 486 1063 l 640 864 l 578 821 l 415 983 l 253 821 l 193 864 l 347 1063 "},"ö":{"ha":833,"x_min":0,"x_max":0,"o":"m 417 -17 b 92 358 215 -17 92 131 b 417 733 92 586 215 733 b 742 358 618 733 742 586 b 417 -17 742 131 618 -17 m 417 79 b 624 307 540 79 624 153 l 624 410 b 417 638 624 564 540 638 b 210 410 293 638 210 564 l 210 307 b 417 79 210 153 293 79 m 288 858 b 208 922 231 858 208 886 l 208 942 b 288 1006 208 978 231 1006 b 367 942 344 1006 367 978 l 367 922 b 288 858 367 886 344 858 m 546 858 b 467 922 489 858 467 886 l 467 942 b 546 1006 467 978 489 1006 b 625 942 603 1006 625 978 l 625 922 b 546 858 625 886 603 858 "},"ọ":{"ha":833,"x_min":0,"x_max":0,"o":"m 417 -17 b 92 358 215 -17 92 131 b 417 733 92 586 215 733 b 742 358 618 733 742 586 b 417 -17 742 131 618 -17 m 417 79 b 624 307 540 79 624 153 l 624 410 b 417 638 624 564 540 638 b 210 410 293 638 210 564 l 210 307 b 417 79 210 153 293 79 m 417 -239 b 338 -175 360 -239 338 -211 l 338 -156 b 417 -92 338 -119 360 -92 b 496 -156 474 -92 496 -119 l 496 -175 b 417 -239 496 -211 474 -239 "},"ò":{"ha":833,"x_min":0,"x_max":0,"o":"m 417 -17 b 92 358 215 -17 92 131 b 417 733 92 586 215 733 b 742 358 618 733 742 586 b 417 -17 742 131 618 -17 m 417 79 b 624 307 540 79 624 153 l 624 410 b 417 638 624 564 540 638 b 210 410 293 638 210 564 l 210 307 b 417 79 210 153 293 79 m 260 1033 l 361 1082 l 479 846 l 407 813 "},"ỏ":{"ha":833,"x_min":0,"x_max":0,"o":"m 417 -17 b 92 358 215 -17 92 131 b 417 733 92 586 215 733 b 742 358 618 733 742 586 b 417 -17 742 131 618 -17 m 417 79 b 624 307 540 79 624 153 l 624 410 b 417 638 624 564 540 638 b 210 410 293 638 210 564 l 210 307 b 417 79 210 153 293 79 m 300 1063 l 451 1063 b 549 986 522 1063 549 1028 b 481 843 549 946 524 897 l 447 801 l 383 833 l 464 978 l 300 978 "},"ő":{"ha":833,"x_min":0,"x_max":0,"o":"m 417 -17 b 92 358 215 -17 92 131 b 417 733 92 586 215 733 b 742 358 618 733 742 586 b 417 -17 742 131 618 -17 m 417 79 b 624 307 540 79 624 153 l 624 410 b 417 638 624 564 540 638 b 210 410 293 638 210 564 l 210 307 b 417 79 210 153 293 79 m 315 814 l 249 844 l 367 1081 l 463 1035 m 538 814 l 471 844 l 589 1081 l 685 1035 "},"ō":{"ha":833,"x_min":0,"x_max":0,"o":"m 417 -17 b 92 358 215 -17 92 131 b 417 733 92 586 215 733 b 742 358 618 733 742 586 b 417 -17 742 131 618 -17 m 417 79 b 624 307 540 79 624 153 l 624 410 b 417 638 624 564 540 638 b 210 410 293 638 210 564 l 210 307 b 417 79 210 153 293 79 m 222 979 l 611 979 l 611 885 l 222 885 "},"ø":{"ha":833,"x_min":0,"x_max":0,"o":"m 65 -8 l 161 108 b 92 358 117 172 92 258 b 417 733 92 586 215 733 b 618 665 497 733 565 708 l 706 772 l 768 725 l 672 608 b 742 358 717 544 742 458 b 417 -17 742 131 618 -17 b 215 51 336 -17 268 8 l 128 -56 m 417 638 b 210 410 293 638 210 564 l 210 307 b 231 192 210 263 217 222 l 557 590 b 417 638 522 622 474 638 m 417 79 b 624 307 540 79 624 153 l 624 410 b 603 525 624 454 617 494 l 276 126 b 417 79 311 94 360 79 "},"ǿ":{"ha":833,"x_min":0,"x_max":0,"o":"m 65 -8 l 161 108 b 92 358 117 172 92 258 b 417 733 92 586 215 733 b 618 665 497 733 565 708 l 706 772 l 768 725 l 672 608 b 742 358 717 544 742 458 b 417 -17 742 131 618 -17 b 215 51 336 -17 268 8 l 128 -56 m 417 638 b 210 410 293 638 210 564 l 210 307 b 231 192 210 263 217 222 l 557 590 b 417 638 522 622 474 638 m 417 79 b 624 307 540 79 624 153 l 624 410 b 603 525 624 454 617 494 l 276 126 b 417 79 311 94 360 79 m 426 813 l 354 846 l 472 1082 l 574 1033 "},"õ":{"ha":833,"x_min":0,"x_max":0,"o":"m 417 -17 b 92 358 215 -17 92 131 b 417 733 92 586 215 733 b 742 358 618 733 742 586 b 417 -17 742 131 618 -17 m 417 79 b 624 307 540 79 624 153 l 624 410 b 417 638 624 564 540 638 b 210 410 293 638 210 564 l 210 307 b 417 79 210 153 293 79 m 518 850 b 407 886 469 850 436 871 b 310 919 363 910 333 919 b 229 882 279 919 257 906 l 183 938 b 315 1011 208 975 251 1011 b 426 975 364 1011 397 990 b 524 942 471 951 500 942 b 604 979 554 942 576 956 l 650 924 b 518 850 625 886 582 850 "},"ơ":{"ha":833,"x_min":0,"x_max":0,"o":"m 750 872 l 750 733 b 663 649 750 688 732 649 l 632 649 b 742 358 703 583 742 483 b 417 -17 742 131 618 -17 b 92 358 215 -17 92 131 b 417 733 92 586 215 733 b 526 717 456 733 493 728 l 651 717 l 651 872 m 417 79 b 624 307 540 79 624 153 l 624 410 b 417 638 624 564 540 638 b 210 410 293 638 210 564 l 210 307 b 417 79 210 153 293 79 "},"ớ":{"ha":833,"x_min":0,"x_max":0,"o":"m 750 872 l 750 733 b 663 649 750 688 732 649 l 632 649 b 742 358 703 583 742 483 b 417 -17 742 131 618 -17 b 92 358 215 -17 92 131 b 417 733 92 586 215 733 b 526 717 456 733 493 728 l 651 717 l 651 872 m 417 79 b 624 307 540 79 624 153 l 624 410 b 417 638 624 564 540 638 b 210 410 293 638 210 564 l 210 307 b 417 79 210 153 293 79 m 426 813 l 354 846 l 472 1082 l 574 1033 "},"ợ":{"ha":833,"x_min":0,"x_max":0,"o":"m 750 872 l 750 733 b 663 649 750 688 732 649 l 632 649 b 742 358 703 583 742 483 b 417 -17 742 131 618 -17 b 92 358 215 -17 92 131 b 417 733 92 586 215 733 b 526 717 456 733 493 728 l 651 717 l 651 872 m 417 79 b 624 307 540 79 624 153 l 624 410 b 417 638 624 564 540 638 b 210 410 293 638 210 564 l 210 307 b 417 79 210 153 293 79 m 417 -239 b 338 -175 360 -239 338 -211 l 338 -156 b 417 -92 338 -119 360 -92 b 496 -156 474 -92 496 -119 l 496 -175 b 417 -239 496 -211 474 -239 "},"ờ":{"ha":833,"x_min":0,"x_max":0,"o":"m 750 872 l 750 733 b 663 649 750 688 732 649 l 632 649 b 742 358 703 583 742 483 b 417 -17 742 131 618 -17 b 92 358 215 -17 92 131 b 417 733 92 586 215 733 b 526 717 456 733 493 728 l 651 717 l 651 872 m 417 79 b 624 307 540 79 624 153 l 624 410 b 417 638 624 564 540 638 b 210 410 293 638 210 564 l 210 307 b 417 79 210 153 293 79 m 260 1033 l 361 1082 l 479 846 l 407 813 "},"ở":{"ha":833,"x_min":0,"x_max":0,"o":"m 750 872 l 750 733 b 663 649 750 688 732 649 l 632 649 b 742 358 703 583 742 483 b 417 -17 742 131 618 -17 b 92 358 215 -17 92 131 b 417 733 92 586 215 733 b 526 717 456 733 493 728 l 651 717 l 651 872 m 417 79 b 624 307 540 79 624 153 l 624 410 b 417 638 624 564 540 638 b 210 410 293 638 210 564 l 210 307 b 417 79 210 153 293 79 m 300 1063 l 451 1063 b 549 986 522 1063 549 1028 b 481 843 549 946 524 897 l 447 801 l 383 833 l 464 978 l 300 978 "},"ỡ":{"ha":833,"x_min":0,"x_max":0,"o":"m 750 872 l 750 733 b 663 649 750 688 732 649 l 632 649 b 742 358 703 583 742 483 b 417 -17 742 131 618 -17 b 92 358 215 -17 92 131 b 417 733 92 586 215 733 b 526 717 456 733 493 728 l 651 717 l 651 872 m 417 79 b 624 307 540 79 624 153 l 624 410 b 417 638 624 564 540 638 b 210 410 293 638 210 564 l 210 307 b 417 79 210 153 293 79 m 504 856 b 407 886 461 856 432 874 b 328 914 372 904 353 914 b 249 876 299 914 275 900 l 203 932 b 329 1006 228 969 269 1006 b 426 975 372 1006 401 988 b 506 947 461 957 481 947 b 585 985 535 947 558 961 l 631 929 b 504 856 606 892 564 856 "},"ố":{"ha":833,"x_min":0,"x_max":0,"o":"m 417 -17 b 92 358 215 -17 92 131 b 417 733 92 586 215 733 b 742 358 618 733 742 586 b 417 -17 742 131 618 -17 m 417 79 b 624 307 540 79 624 153 l 624 410 b 417 638 624 564 540 638 b 210 410 293 638 210 564 l 210 307 b 417 79 210 153 293 79 m 631 989 l 563 1021 l 681 1257 l 778 1210 m 486 1049 l 639 849 l 578 807 l 415 972 l 253 807 l 194 849 l 347 1049 "},"ộ":{"ha":833,"x_min":0,"x_max":0,"o":"m 417 -17 b 92 358 215 -17 92 131 b 417 733 92 586 215 733 b 742 358 618 733 742 586 b 417 -17 742 131 618 -17 m 417 79 b 624 307 540 79 624 153 l 624 410 b 417 638 624 564 540 638 b 210 410 293 638 210 564 l 210 307 b 417 79 210 153 293 79 m 486 1063 l 640 864 l 578 821 l 415 983 l 253 821 l 193 864 l 347 1063 m 417 -239 b 338 -175 360 -239 338 -211 l 338 -156 b 417 -92 338 -119 360 -92 b 496 -156 474 -92 496 -119 l 496 -175 b 417 -239 496 -211 474 -239 "},"ồ":{"ha":833,"x_min":0,"x_max":0,"o":"m 417 -17 b 92 358 215 -17 92 131 b 417 733 92 586 215 733 b 742 358 618 733 742 586 b 417 -17 742 131 618 -17 m 417 79 b 624 307 540 79 624 153 l 624 410 b 417 638 624 564 540 638 b 210 410 293 638 210 564 l 210 307 b 417 79 210 153 293 79 m 56 1210 l 153 1257 l 271 1021 l 203 989 m 486 1049 l 639 849 l 578 807 l 415 972 l 253 807 l 194 849 l 347 1049 "},"ổ":{"ha":833,"x_min":0,"x_max":0,"o":"m 417 -17 b 92 358 215 -17 92 131 b 417 733 92 586 215 733 b 742 358 618 733 742 586 b 417 -17 742 131 618 -17 m 417 79 b 624 307 540 79 624 153 l 624 410 b 417 638 624 564 540 638 b 210 410 293 638 210 564 l 210 307 b 417 79 210 153 293 79 m 490 1242 l 642 1242 b 739 1165 713 1242 739 1207 b 671 1022 739 1125 714 1076 l 638 981 l 574 1013 l 654 1157 l 490 1157 m 486 1049 l 639 849 l 578 807 l 415 972 l 253 807 l 194 849 l 347 1049 "},"ỗ":{"ha":833,"x_min":0,"x_max":0,"o":"m 417 -17 b 92 358 215 -17 92 131 b 417 733 92 586 215 733 b 742 358 618 733 742 586 b 417 -17 742 131 618 -17 m 417 79 b 624 307 540 79 624 153 l 624 410 b 417 638 624 564 540 638 b 210 410 293 638 210 564 l 210 307 b 417 79 210 153 293 79 m 317 1239 b 428 1203 365 1239 399 1218 b 525 1169 472 1179 501 1169 b 606 1207 556 1169 578 1183 l 649 1157 b 517 1083 624 1119 581 1083 b 406 1119 468 1083 435 1104 b 308 1153 361 1143 332 1153 b 228 1115 278 1153 256 1139 l 185 1165 b 317 1239 210 1203 253 1239 m 486 1035 l 639 849 l 578 807 l 415 961 l 253 807 l 194 849 l 347 1035 "},"œ":{"ha":833,"x_min":0,"x_max":0,"o":"m 244 67 b 363 285 318 67 363 125 l 363 432 b 244 650 363 592 318 650 b 126 432 171 650 126 592 l 126 285 b 244 67 126 125 171 67 m 717 410 l 717 457 b 590 653 717 589 671 653 b 464 457 510 653 464 589 l 464 410 m 593 -17 b 411 101 515 -17 453 26 l 407 101 b 236 -17 371 25 315 -17 b 19 358 89 -17 19 131 b 236 733 19 586 89 733 b 413 603 317 733 379 689 l 417 603 b 600 733 457 699 524 733 b 808 406 738 733 808 621 l 808 331 l 464 331 l 464 296 b 596 72 464 164 511 72 b 717 196 664 72 696 133 l 797 158 b 593 -17 771 74 706 -17 "},"ŕ":{"ha":833,"x_min":0,"x_max":0,"o":"m 107 94 l 317 94 l 317 622 l 107 622 l 107 717 l 428 717 l 428 536 l 435 536 b 676 717 463 631 526 717 l 776 717 l 776 606 l 642 606 b 428 404 501 606 428 515 l 428 94 l 651 94 l 651 0 l 107 0 m 500 813 l 428 846 l 546 1082 l 647 1033 "},"ř":{"ha":833,"x_min":0,"x_max":0,"o":"m 107 94 l 317 94 l 317 622 l 107 622 l 107 717 l 428 717 l 428 536 l 435 536 b 676 717 463 631 526 717 l 776 717 l 776 606 l 642 606 b 428 404 501 606 428 515 l 428 94 l 651 94 l 651 0 l 107 0 m 421 832 l 267 1031 l 331 1074 l 493 911 l 656 1074 l 714 1031 l 560 832 "},"ŗ":{"ha":833,"x_min":0,"x_max":0,"o":"m 107 94 l 317 94 l 317 622 l 107 622 l 107 717 l 428 717 l 428 536 l 435 536 b 676 717 463 631 526 717 l 776 717 l 776 606 l 642 606 b 428 404 501 606 428 515 l 428 94 l 651 94 l 651 0 l 107 0 m 300 -86 l 451 -86 l 346 -349 l 261 -349 "},"ś":{"ha":833,"x_min":0,"x_max":0,"o":"m 425 -17 b 93 124 275 -17 168 39 l 168 189 b 428 76 236 117 314 76 b 618 200 539 76 618 115 b 492 304 618 275 557 294 l 379 321 b 133 519 278 336 133 364 b 422 733 133 663 256 733 b 714 618 551 733 646 690 l 642 550 b 418 640 608 590 544 640 b 243 526 306 640 243 600 b 369 422 243 451 306 432 l 482 406 b 728 207 585 390 728 363 b 425 -17 728 65 608 -17 m 424 813 l 351 846 l 469 1082 l 571 1033 "},"š":{"ha":833,"x_min":0,"x_max":0,"o":"m 425 -17 b 93 124 275 -17 168 39 l 168 189 b 428 76 236 117 314 76 b 618 200 539 76 618 115 b 492 304 618 275 557 294 l 379 321 b 133 519 278 336 133 364 b 422 733 133 663 256 733 b 714 618 551 733 646 690 l 642 550 b 418 640 608 590 544 640 b 243 526 306 640 243 600 b 369 422 243 451 306 432 l 482 406 b 728 207 585 390 728 363 b 425 -17 728 65 608 -17 m 344 832 l 190 1031 l 254 1074 l 417 911 l 579 1074 l 638 1031 l 483 832 "},"ş":{"ha":833,"x_min":0,"x_max":0,"o":"m 431 -287 b 293 -231 356 -287 313 -257 l 346 -174 b 431 -212 363 -194 390 -212 b 492 -169 465 -212 492 -199 b 397 -112 492 -144 475 -124 l 358 -107 l 376 -14 b 93 124 251 -4 160 49 l 168 189 b 428 76 236 117 314 76 b 618 200 539 76 618 115 b 492 304 618 275 557 294 l 379 321 b 133 519 278 336 133 364 b 422 733 133 663 256 733 b 714 618 551 733 646 690 l 642 550 b 418 640 608 590 544 640 b 243 526 306 640 243 600 b 369 422 243 451 306 432 l 482 406 b 728 207 585 390 728 363 b 444 -17 728 71 617 -11 l 432 -85 l 436 -89 b 490 -81 454 -83 474 -81 b 585 -172 544 -81 585 -112 b 431 -287 585 -251 513 -287 "},"ŝ":{"ha":833,"x_min":0,"x_max":0,"o":"m 425 -17 b 93 124 275 -17 168 39 l 168 189 b 428 76 236 117 314 76 b 618 200 539 76 618 115 b 492 304 618 275 557 294 l 379 321 b 133 519 278 336 133 364 b 422 733 133 663 256 733 b 714 618 551 733 646 690 l 642 550 b 418 640 608 590 544 640 b 243 526 306 640 243 600 b 369 422 243 451 306 432 l 482 406 b 728 207 585 390 728 363 b 425 -17 728 65 608 -17 m 483 1063 l 638 864 l 575 821 l 413 983 l 250 821 l 190 864 l 344 1063 "},"ș":{"ha":833,"x_min":0,"x_max":0,"o":"m 425 -17 b 93 124 275 -17 168 39 l 168 189 b 428 76 236 117 314 76 b 618 200 539 76 618 115 b 492 304 618 275 557 294 l 379 321 b 133 519 278 336 133 364 b 422 733 133 663 256 733 b 714 618 551 733 646 690 l 642 550 b 418 640 608 590 544 640 b 243 526 306 640 243 600 b 369 422 243 451 306 432 l 482 406 b 728 207 585 390 728 363 b 425 -17 728 65 608 -17 m 336 -86 l 488 -86 l 382 -349 l 297 -349 "},"ſ":{"ha":833,"x_min":0,"x_max":0,"o":"m 115 94 l 357 94 l 357 622 l 101 622 l 101 717 l 357 717 l 357 864 b 515 1028 357 960 407 1028 l 756 1028 l 756 933 l 468 933 l 468 94 l 724 94 l 724 0 l 115 0 "},"ß":{"ha":833,"x_min":0,"x_max":0,"o":"m 142 0 l 142 864 b 300 1028 142 960 192 1028 l 490 1028 l 490 932 l 253 932 l 253 717 l 729 717 l 729 607 l 489 294 b 794 19 679 282 794 194 b 431 -278 794 -174 653 -278 l 339 -278 l 339 -183 l 431 -183 b 676 4 596 -183 676 -126 l 676 39 b 406 211 676 163 593 211 l 383 211 l 383 306 l 628 622 l 253 622 l 253 0 "},"ŧ":{"ha":833,"x_min":0,"x_max":0,"o":"m 728 0 l 451 0 b 293 164 343 0 293 68 l 293 343 l 142 343 l 142 429 l 293 429 l 293 622 l 54 622 l 54 717 l 232 717 b 297 782 279 717 297 733 l 297 969 l 404 969 l 404 717 l 731 717 l 731 622 l 404 622 l 404 429 l 644 429 l 644 343 l 404 343 l 404 94 l 728 94 "},"ť":{"ha":833,"x_min":0,"x_max":0,"o":"m 451 0 b 293 164 343 0 293 68 l 293 622 l 54 622 l 54 717 l 232 717 b 297 782 279 717 297 733 l 297 969 l 404 969 l 404 717 l 731 717 l 731 622 l 404 622 l 404 94 l 731 94 l 731 0 m 622 793 l 538 793 l 547 1056 l 690 1056 "},"ț":{"ha":833,"x_min":0,"x_max":0,"o":"m 451 0 b 293 164 343 0 293 68 l 293 622 l 54 622 l 54 717 l 232 717 b 297 782 279 717 297 733 l 297 969 l 404 969 l 404 717 l 731 717 l 731 622 l 404 622 l 404 94 l 731 94 l 731 0 m 449 -86 l 600 -86 l 494 -349 l 410 -349 "},"ţ":{"ha":833,"x_min":0,"x_max":0,"o":"m 538 -287 b 400 -231 463 -287 419 -257 l 453 -174 b 538 -212 469 -194 497 -212 b 599 -169 572 -212 599 -199 b 504 -112 599 -144 582 -124 l 465 -107 l 486 0 l 451 0 b 293 164 343 0 293 68 l 293 622 l 54 622 l 54 717 l 232 717 b 297 782 279 717 297 733 l 297 969 l 404 969 l 404 717 l 731 717 l 731 622 l 404 622 l 404 94 l 731 94 l 731 0 l 556 0 l 539 -85 l 543 -89 b 597 -81 561 -83 581 -81 b 692 -172 651 -81 692 -112 b 538 -287 692 -251 619 -287 "},"þ":{"ha":833,"x_min":0,"x_max":0,"o":"m 132 1028 l 243 1028 l 243 600 l 249 600 b 469 733 294 688 369 733 b 750 358 644 733 750 593 b 469 -17 750 124 644 -17 b 249 117 369 -17 294 29 l 243 117 l 243 -278 l 132 -278 m 426 82 b 631 297 556 82 631 168 l 631 419 b 426 635 631 549 556 635 b 243 488 328 635 243 583 l 243 229 b 426 82 243 133 328 82 "},"ú":{"ha":833,"x_min":0,"x_max":0,"o":"m 586 117 l 581 117 b 376 -17 550 46 494 -17 b 128 257 226 -17 128 83 l 128 717 l 239 717 l 239 276 b 408 82 239 146 299 82 b 586 219 497 82 586 125 l 586 717 l 697 717 l 697 0 l 586 0 m 422 813 l 350 846 l 468 1082 l 569 1033 "},"ŭ":{"ha":833,"x_min":0,"x_max":0,"o":"m 586 117 l 581 117 b 376 -17 550 46 494 -17 b 128 257 226 -17 128 83 l 128 717 l 239 717 l 239 276 b 408 82 239 146 299 82 b 586 219 497 82 586 125 l 586 717 l 697 717 l 697 0 l 586 0 m 413 826 b 189 1036 264 826 215 951 l 260 1067 l 289 1019 b 413 917 332 950 351 917 b 536 1019 474 917 493 950 l 565 1067 l 636 1036 b 413 826 610 951 561 826 "},"ǔ":{"ha":833,"x_min":0,"x_max":0,"o":"m 586 117 l 581 117 b 376 -17 550 46 494 -17 b 128 257 226 -17 128 83 l 128 717 l 239 717 l 239 276 b 408 82 239 146 299 82 b 586 219 497 82 586 125 l 586 717 l 697 717 l 697 0 l 586 0 m 343 832 l 189 1031 l 253 1074 l 415 911 l 578 1074 l 636 1031 l 482 832 "},"û":{"ha":833,"x_min":0,"x_max":0,"o":"m 586 117 l 581 117 b 376 -17 550 46 494 -17 b 128 257 226 -17 128 83 l 128 717 l 239 717 l 239 276 b 408 82 239 146 299 82 b 586 219 497 82 586 125 l 586 717 l 697 717 l 697 0 l 586 0 m 482 1063 l 636 864 l 574 821 l 411 983 l 249 821 l 189 864 l 343 1063 "},"ü":{"ha":833,"x_min":0,"x_max":0,"o":"m 586 117 l 581 117 b 376 -17 550 46 494 -17 b 128 257 226 -17 128 83 l 128 717 l 239 717 l 239 276 b 408 82 239 146 299 82 b 586 219 497 82 586 125 l 586 717 l 697 717 l 697 0 l 586 0 m 283 858 b 204 922 226 858 204 886 l 204 942 b 283 1006 204 978 226 1006 b 363 942 340 1006 363 978 l 363 922 b 283 858 363 886 340 858 m 542 858 b 463 922 485 858 463 886 l 463 942 b 542 1006 463 978 485 1006 b 621 942 599 1006 621 978 l 621 922 b 542 858 621 886 599 858 "},"ụ":{"ha":833,"x_min":0,"x_max":0,"o":"m 586 117 l 581 117 b 376 -17 550 46 494 -17 b 128 257 226 -17 128 83 l 128 717 l 239 717 l 239 276 b 408 82 239 146 299 82 b 586 219 497 82 586 125 l 586 717 l 697 717 l 697 0 l 586 0 m 413 -239 b 333 -175 356 -239 333 -211 l 333 -156 b 413 -92 333 -119 356 -92 b 492 -156 469 -92 492 -119 l 492 -175 b 413 -239 492 -211 469 -239 "},"ù":{"ha":833,"x_min":0,"x_max":0,"o":"m 586 117 l 581 117 b 376 -17 550 46 494 -17 b 128 257 226 -17 128 83 l 128 717 l 239 717 l 239 276 b 408 82 239 146 299 82 b 586 219 497 82 586 125 l 586 717 l 697 717 l 697 0 l 586 0 m 256 1033 l 357 1082 l 475 846 l 403 813 "},"ủ":{"ha":833,"x_min":0,"x_max":0,"o":"m 586 117 l 581 117 b 376 -17 550 46 494 -17 b 128 257 226 -17 128 83 l 128 717 l 239 717 l 239 276 b 408 82 239 146 299 82 b 586 219 497 82 586 125 l 586 717 l 697 717 l 697 0 l 586 0 m 296 1063 l 447 1063 b 544 986 518 1063 544 1028 b 476 843 544 946 519 897 l 443 801 l 379 833 l 460 978 l 296 978 "},"ű":{"ha":833,"x_min":0,"x_max":0,"o":"m 586 117 l 581 117 b 376 -17 550 46 494 -17 b 128 257 226 -17 128 83 l 128 717 l 239 717 l 239 276 b 408 82 239 146 299 82 b 586 219 497 82 586 125 l 586 717 l 697 717 l 697 0 l 586 0 m 311 814 l 244 844 l 363 1081 l 458 1035 m 533 814 l 467 844 l 585 1081 l 681 1035 "},"ū":{"ha":833,"x_min":0,"x_max":0,"o":"m 586 117 l 581 117 b 376 -17 550 46 494 -17 b 128 257 226 -17 128 83 l 128 717 l 239 717 l 239 276 b 408 82 239 146 299 82 b 586 219 497 82 586 125 l 586 717 l 697 717 l 697 0 l 586 0 m 218 979 l 607 979 l 607 885 l 218 885 "},"ų":{"ha":833,"x_min":0,"x_max":0,"o":"m 697 0 b 540 -158 554 -90 540 -131 b 599 -210 540 -197 569 -210 b 671 -174 629 -210 653 -196 l 726 -231 b 597 -287 708 -261 667 -287 b 446 -176 513 -287 446 -250 b 606 -4 446 -110 501 -54 l 604 0 l 586 0 l 586 117 l 581 117 b 376 -17 550 46 494 -17 b 128 257 226 -17 128 83 l 128 717 l 239 717 l 239 276 b 408 82 239 146 299 82 b 586 219 497 82 586 125 l 586 717 l 697 717 "},"ů":{"ha":833,"x_min":0,"x_max":0,"o":"m 586 117 l 581 117 b 376 -17 550 46 494 -17 b 128 257 226 -17 128 83 l 128 717 l 239 717 l 239 276 b 408 82 239 146 299 82 b 586 219 497 82 586 125 l 586 717 l 697 717 l 697 0 l 586 0 m 413 800 b 251 960 322 800 251 868 b 413 1119 251 1051 322 1119 b 574 960 503 1119 574 1051 b 413 800 574 868 503 800 m 413 868 b 493 944 463 868 493 896 l 493 975 b 413 1051 493 1024 463 1051 b 332 975 363 1051 332 1024 l 332 944 b 413 868 332 896 363 868 "},"ũ":{"ha":833,"x_min":0,"x_max":0,"o":"m 586 117 l 581 117 b 376 -17 550 46 494 -17 b 128 257 226 -17 128 83 l 128 717 l 239 717 l 239 276 b 408 82 239 146 299 82 b 586 219 497 82 586 125 l 586 717 l 697 717 l 697 0 l 586 0 m 514 850 b 403 886 465 850 432 871 b 306 919 358 910 329 919 b 225 882 275 919 253 906 l 179 938 b 311 1011 204 975 247 1011 b 422 975 360 1011 393 990 b 519 942 467 951 496 942 b 600 979 550 942 572 956 l 646 924 b 514 850 621 886 578 850 "},"ư":{"ha":833,"x_min":0,"x_max":0,"o":"m 815 731 b 728 643 815 682 797 643 l 697 643 l 697 0 l 586 0 l 586 117 l 581 117 b 376 -17 550 46 494 -17 b 128 257 226 -17 128 83 l 128 717 l 239 717 l 239 276 b 408 82 239 146 299 82 b 586 219 497 82 586 125 l 586 717 l 717 717 l 717 872 l 815 872 "},"ứ":{"ha":833,"x_min":0,"x_max":0,"o":"m 815 731 b 728 643 815 682 797 643 l 697 643 l 697 0 l 586 0 l 586 117 l 581 117 b 376 -17 550 46 494 -17 b 128 257 226 -17 128 83 l 128 717 l 239 717 l 239 276 b 408 82 239 146 299 82 b 586 219 497 82 586 125 l 586 717 l 717 717 l 717 872 l 815 872 m 422 813 l 350 846 l 468 1082 l 569 1033 "},"ự":{"ha":833,"x_min":0,"x_max":0,"o":"m 815 731 b 728 643 815 682 797 643 l 697 643 l 697 0 l 586 0 l 586 117 l 581 117 b 376 -17 550 46 494 -17 b 128 257 226 -17 128 83 l 128 717 l 239 717 l 239 276 b 408 82 239 146 299 82 b 586 219 497 82 586 125 l 586 717 l 717 717 l 717 872 l 815 872 m 413 -239 b 333 -175 356 -239 333 -211 l 333 -156 b 413 -92 333 -119 356 -92 b 492 -156 469 -92 492 -119 l 492 -175 b 413 -239 492 -211 469 -239 "},"ừ":{"ha":833,"x_min":0,"x_max":0,"o":"m 815 731 b 728 643 815 682 797 643 l 697 643 l 697 0 l 586 0 l 586 117 l 581 117 b 376 -17 550 46 494 -17 b 128 257 226 -17 128 83 l 128 717 l 239 717 l 239 276 b 408 82 239 146 299 82 b 586 219 497 82 586 125 l 586 717 l 717 717 l 717 872 l 815 872 m 256 1033 l 357 1082 l 475 846 l 403 813 "},"ử":{"ha":833,"x_min":0,"x_max":0,"o":"m 815 731 b 728 643 815 682 797 643 l 697 643 l 697 0 l 586 0 l 586 117 l 581 117 b 376 -17 550 46 494 -17 b 128 257 226 -17 128 83 l 128 717 l 239 717 l 239 276 b 408 82 239 146 299 82 b 586 219 497 82 586 125 l 586 717 l 717 717 l 717 872 l 815 872 m 296 1063 l 447 1063 b 544 986 518 1063 544 1028 b 476 843 544 946 519 897 l 443 801 l 379 833 l 460 978 l 296 978 "},"ữ":{"ha":833,"x_min":0,"x_max":0,"o":"m 815 731 b 728 643 815 682 797 643 l 697 643 l 697 0 l 586 0 l 586 117 l 581 117 b 376 -17 550 46 494 -17 b 128 257 226 -17 128 83 l 128 717 l 239 717 l 239 276 b 408 82 239 146 299 82 b 586 219 497 82 586 125 l 586 717 l 717 717 l 717 872 l 815 872 m 500 856 b 403 886 457 856 428 874 b 324 914 368 904 349 914 b 244 876 294 914 271 900 l 199 932 b 325 1006 224 969 265 1006 b 422 975 368 1006 397 988 b 501 947 457 957 476 947 b 581 985 531 947 554 961 l 626 929 b 500 856 601 892 560 856 "},"ǖ":{"ha":833,"x_min":0,"x_max":0,"o":"m 586 117 l 581 117 b 376 -17 550 46 494 -17 b 128 257 226 -17 128 83 l 128 717 l 239 717 l 239 276 b 408 82 239 146 299 82 b 586 219 497 82 586 125 l 586 717 l 697 717 l 697 0 l 586 0 m 218 1146 l 607 1146 l 607 1051 l 218 1051 m 275 829 b 196 893 218 829 196 857 l 196 913 b 275 976 196 949 218 976 b 354 913 332 976 354 949 l 354 893 b 275 829 354 857 332 829 m 550 829 b 471 893 493 829 471 857 l 471 913 b 550 976 471 949 493 976 b 629 913 607 976 629 949 l 629 893 b 550 829 629 857 607 829 "},"ǘ":{"ha":833,"x_min":0,"x_max":0,"o":"m 586 117 l 581 117 b 376 -17 550 46 494 -17 b 128 257 226 -17 128 83 l 128 717 l 239 717 l 239 276 b 408 82 239 146 299 82 b 586 219 497 82 586 125 l 586 717 l 697 717 l 697 0 l 586 0 m 429 989 l 361 1021 l 479 1257 l 576 1210 m 275 829 b 196 893 218 829 196 857 l 196 913 b 275 976 196 949 218 976 b 354 913 332 976 354 949 l 354 893 b 275 829 354 857 332 829 m 550 829 b 471 893 493 829 471 857 l 471 913 b 550 976 471 949 493 976 b 629 913 607 976 629 949 l 629 893 b 550 829 629 857 607 829 "},"ǜ":{"ha":833,"x_min":0,"x_max":0,"o":"m 586 117 l 581 117 b 376 -17 550 46 494 -17 b 128 257 226 -17 128 83 l 128 717 l 239 717 l 239 276 b 408 82 239 146 299 82 b 586 219 497 82 586 125 l 586 717 l 697 717 l 697 0 l 586 0 m 249 1210 l 346 1257 l 464 1021 l 396 989 m 275 829 b 196 893 218 829 196 857 l 196 913 b 275 976 196 949 218 976 b 354 913 332 976 354 949 l 354 893 b 275 829 354 857 332 829 m 550 829 b 471 893 493 829 471 857 l 471 913 b 550 976 471 949 493 976 b 629 913 607 976 629 949 l 629 893 b 550 829 629 857 607 829 "},"ǚ":{"ha":833,"x_min":0,"x_max":0,"o":"m 586 117 l 581 117 b 376 -17 550 46 494 -17 b 128 257 226 -17 128 83 l 128 717 l 239 717 l 239 276 b 408 82 239 146 299 82 b 586 219 497 82 586 125 l 586 717 l 697 717 l 697 0 l 586 0 m 351 1013 l 190 1213 l 249 1254 l 411 1094 l 574 1254 l 635 1213 l 474 1013 m 275 829 b 196 893 218 829 196 857 l 196 913 b 275 976 196 949 218 976 b 354 913 332 976 354 949 l 354 893 b 275 829 354 857 332 829 m 550 829 b 471 893 493 829 471 857 l 471 913 b 550 976 471 949 493 976 b 629 913 607 976 629 949 l 629 893 b 550 829 629 857 607 829 "},"ẃ":{"ha":833,"x_min":0,"x_max":0,"o":"m 42 717 l 140 717 l 222 97 l 235 97 l 357 717 l 479 717 l 601 97 l 614 97 l 696 717 l 792 717 l 682 0 l 538 0 l 424 600 l 413 600 l 296 0 l 151 0 m 426 813 l 354 846 l 472 1082 l 574 1033 "},"ŵ":{"ha":833,"x_min":0,"x_max":0,"o":"m 42 717 l 140 717 l 222 97 l 235 97 l 357 717 l 479 717 l 601 97 l 614 97 l 696 717 l 792 717 l 682 0 l 538 0 l 424 600 l 413 600 l 296 0 l 151 0 m 486 1063 l 640 864 l 578 821 l 415 983 l 253 821 l 193 864 l 347 1063 "},"ẅ":{"ha":833,"x_min":0,"x_max":0,"o":"m 42 717 l 140 717 l 222 97 l 235 97 l 357 717 l 479 717 l 601 97 l 614 97 l 696 717 l 792 717 l 682 0 l 538 0 l 424 600 l 413 600 l 296 0 l 151 0 m 288 858 b 208 922 231 858 208 886 l 208 942 b 288 1006 208 978 231 1006 b 367 942 344 1006 367 978 l 367 922 b 288 858 367 886 344 858 m 546 858 b 467 922 489 858 467 886 l 467 942 b 546 1006 467 978 489 1006 b 625 942 603 1006 625 978 l 625 922 b 546 858 625 886 603 858 "},"ẁ":{"ha":833,"x_min":0,"x_max":0,"o":"m 42 717 l 140 717 l 222 97 l 235 97 l 357 717 l 479 717 l 601 97 l 614 97 l 696 717 l 792 717 l 682 0 l 538 0 l 424 600 l 413 600 l 296 0 l 151 0 m 260 1033 l 361 1082 l 479 846 l 407 813 "},"ý":{"ha":833,"x_min":0,"x_max":0,"o":"m 649 717 l 760 717 l 404 -157 b 221 -278 371 -239 329 -278 l 115 -278 l 115 -183 l 282 -183 l 363 14 l 74 717 l 188 717 l 308 417 l 415 144 l 421 144 l 528 417 m 426 813 l 354 846 l 472 1082 l 574 1033 "},"ŷ":{"ha":833,"x_min":0,"x_max":0,"o":"m 649 717 l 760 717 l 404 -157 b 221 -278 371 -239 329 -278 l 115 -278 l 115 -183 l 282 -183 l 363 14 l 74 717 l 188 717 l 308 417 l 415 144 l 421 144 l 528 417 m 486 1063 l 640 864 l 578 821 l 415 983 l 253 821 l 193 864 l 347 1063 "},"ÿ":{"ha":833,"x_min":0,"x_max":0,"o":"m 649 717 l 760 717 l 404 -157 b 221 -278 371 -239 329 -278 l 115 -278 l 115 -183 l 282 -183 l 363 14 l 74 717 l 188 717 l 308 417 l 415 144 l 421 144 l 528 417 m 288 858 b 208 922 231 858 208 886 l 208 942 b 288 1006 208 978 231 1006 b 367 942 344 1006 367 978 l 367 922 b 288 858 367 886 344 858 m 546 858 b 467 922 489 858 467 886 l 467 942 b 546 1006 467 978 489 1006 b 625 942 603 1006 625 978 l 625 922 b 546 858 625 886 603 858 "},"ỵ":{"ha":833,"x_min":0,"x_max":0,"o":"m 649 717 l 760 717 l 404 -157 b 221 -278 371 -239 329 -278 l 115 -278 l 115 -183 l 282 -183 l 363 14 l 74 717 l 188 717 l 308 417 l 415 144 l 421 144 l 528 417 m 639 -239 b 560 -175 582 -239 560 -211 l 560 -156 b 639 -92 560 -119 582 -92 b 718 -156 696 -92 718 -119 l 718 -175 b 639 -239 718 -211 696 -239 "},"ỳ":{"ha":833,"x_min":0,"x_max":0,"o":"m 649 717 l 760 717 l 404 -157 b 221 -278 371 -239 329 -278 l 115 -278 l 115 -183 l 282 -183 l 363 14 l 74 717 l 188 717 l 308 417 l 415 144 l 421 144 l 528 417 m 260 1033 l 361 1082 l 479 846 l 407 813 "},"ỷ":{"ha":833,"x_min":0,"x_max":0,"o":"m 649 717 l 760 717 l 404 -157 b 221 -278 371 -239 329 -278 l 115 -278 l 115 -183 l 282 -183 l 363 14 l 74 717 l 188 717 l 308 417 l 415 144 l 421 144 l 528 417 m 300 1063 l 451 1063 b 549 986 522 1063 549 1028 b 481 843 549 946 524 897 l 447 801 l 383 833 l 464 978 l 300 978 "},"ỹ":{"ha":833,"x_min":0,"x_max":0,"o":"m 649 717 l 760 717 l 404 -157 b 221 -278 371 -239 329 -278 l 115 -278 l 115 -183 l 282 -183 l 363 14 l 74 717 l 188 717 l 308 417 l 415 144 l 421 144 l 528 417 m 518 850 b 407 886 469 850 436 871 b 310 919 363 910 333 919 b 229 882 279 919 257 906 l 183 938 b 315 1011 208 975 251 1011 b 426 975 364 1011 397 990 b 524 942 471 951 500 942 b 604 979 554 942 576 956 l 650 924 b 518 850 625 886 582 850 "},"ź":{"ha":833,"x_min":0,"x_max":0,"o":"m 118 0 l 118 107 l 581 622 l 133 622 l 133 717 l 701 717 l 701 610 l 239 94 l 715 94 l 715 0 m 426 813 l 354 846 l 472 1082 l 574 1033 "},"ž":{"ha":833,"x_min":0,"x_max":0,"o":"m 118 0 l 118 107 l 581 622 l 133 622 l 133 717 l 701 717 l 701 610 l 239 94 l 715 94 l 715 0 m 347 832 l 193 1031 l 257 1074 l 419 911 l 582 1074 l 640 1031 l 486 832 "},"ż":{"ha":833,"x_min":0,"x_max":0,"o":"m 118 0 l 118 107 l 581 622 l 133 622 l 133 717 l 701 717 l 701 610 l 239 94 l 715 94 l 715 0 m 417 850 b 329 921 353 850 329 881 l 329 943 b 417 1014 329 983 353 1014 b 504 943 481 1014 504 983 l 504 921 b 417 850 504 881 481 850 "},"Á":{"ha":833,"x_min":0,"x_max":0,"o":"m 668 0 l 586 276 l 246 276 l 164 0 l 43 0 l 340 969 l 494 969 l 792 0 m 422 846 l 410 846 l 274 378 l 558 378 m 426 1049 l 354 1082 l 472 1318 l 574 1269 "},"Ă":{"ha":833,"x_min":0,"x_max":0,"o":"m 668 0 l 586 276 l 246 276 l 164 0 l 43 0 l 340 969 l 494 969 l 792 0 m 422 846 l 410 846 l 274 378 l 558 378 m 417 1063 b 193 1272 268 1063 219 1188 l 264 1303 l 293 1256 b 417 1153 336 1186 356 1153 b 540 1256 478 1153 497 1186 l 569 1303 l 640 1272 b 417 1063 614 1188 565 1063 "},"Ǎ":{"ha":833,"x_min":0,"x_max":0,"o":"m 668 0 l 586 276 l 246 276 l 164 0 l 43 0 l 340 969 l 494 969 l 792 0 m 422 846 l 410 846 l 274 378 l 558 378 m 347 1068 l 193 1267 l 256 1310 l 418 1147 l 581 1310 l 640 1267 l 486 1068 "},"Â":{"ha":833,"x_min":0,"x_max":0,"o":"m 668 0 l 586 276 l 246 276 l 164 0 l 43 0 l 340 969 l 494 969 l 792 0 m 422 846 l 410 846 l 274 378 l 558 378 m 486 1299 l 640 1100 l 578 1057 l 415 1219 l 253 1057 l 193 1100 l 347 1299 "},"Ä":{"ha":833,"x_min":0,"x_max":0,"o":"m 668 0 l 586 276 l 246 276 l 164 0 l 43 0 l 340 969 l 494 969 l 792 0 m 422 846 l 410 846 l 274 378 l 558 378 m 288 1094 b 208 1158 231 1094 208 1122 l 208 1178 b 288 1242 208 1214 231 1242 b 367 1178 344 1242 367 1214 l 367 1158 b 288 1094 367 1122 344 1094 m 546 1094 b 467 1158 489 1094 467 1122 l 467 1178 b 546 1242 467 1214 489 1242 b 625 1178 603 1242 625 1214 l 625 1158 b 546 1094 625 1122 603 1094 "},"Ạ":{"ha":833,"x_min":0,"x_max":0,"o":"m 668 0 l 586 276 l 246 276 l 164 0 l 43 0 l 340 969 l 494 969 l 792 0 m 422 846 l 410 846 l 274 378 l 558 378 m 417 -239 b 338 -175 360 -239 338 -211 l 338 -156 b 417 -92 338 -119 360 -92 b 496 -156 474 -92 496 -119 l 496 -175 b 417 -239 496 -211 474 -239 "},"À":{"ha":833,"x_min":0,"x_max":0,"o":"m 668 0 l 586 276 l 246 276 l 164 0 l 43 0 l 340 969 l 494 969 l 792 0 m 422 846 l 410 846 l 274 378 l 558 378 m 260 1269 l 361 1318 l 479 1082 l 407 1049 "},"Ả":{"ha":833,"x_min":0,"x_max":0,"o":"m 668 0 l 586 276 l 246 276 l 164 0 l 43 0 l 340 969 l 494 969 l 792 0 m 422 846 l 410 846 l 274 378 l 558 378 m 300 1299 l 451 1299 b 549 1222 522 1299 549 1264 b 481 1079 549 1182 524 1133 l 447 1038 l 383 1069 l 464 1214 l 300 1214 "},"Ā":{"ha":833,"x_min":0,"x_max":0,"o":"m 668 0 l 586 276 l 246 276 l 164 0 l 43 0 l 340 969 l 494 969 l 792 0 m 422 846 l 410 846 l 274 378 l 558 378 m 222 1215 l 611 1215 l 611 1121 l 222 1121 "},"Ą":{"ha":833,"x_min":0,"x_max":0,"o":"m 340 969 l 494 969 l 792 0 b 635 -158 649 -90 635 -131 b 693 -210 635 -197 664 -210 b 765 -174 724 -210 747 -196 l 821 -231 b 692 -287 803 -261 761 -287 b 540 -176 607 -287 540 -250 b 700 -4 540 -110 596 -54 l 699 0 l 668 0 l 586 276 l 246 276 l 164 0 l 43 0 m 422 846 l 410 846 l 274 378 l 558 378 "},"Å":{"ha":833,"x_min":0,"x_max":0,"o":"m 668 0 l 586 276 l 246 276 l 164 0 l 43 0 l 340 969 l 494 969 l 792 0 m 422 846 l 410 846 l 274 378 l 558 378 m 417 1036 b 256 1196 326 1036 256 1104 b 417 1356 256 1288 326 1356 b 578 1196 507 1356 578 1288 b 417 1036 578 1104 507 1036 m 417 1104 b 497 1181 467 1104 497 1132 l 497 1211 b 417 1288 497 1260 467 1288 b 336 1211 367 1288 336 1260 l 336 1181 b 417 1104 336 1132 367 1104 "},"Ǻ":{"ha":833,"x_min":0,"x_max":0,"o":"m 668 0 l 586 276 l 246 276 l 164 0 l 43 0 l 340 969 l 494 969 l 792 0 m 422 846 l 410 846 l 274 378 l 558 378 m 436 1371 l 371 1397 l 472 1554 l 569 1519 m 417 1022 b 256 1182 326 1022 256 1090 b 417 1342 256 1274 326 1342 b 578 1182 507 1342 578 1274 b 417 1022 578 1090 507 1022 m 417 1090 b 497 1167 467 1090 497 1118 l 497 1197 b 417 1274 497 1246 467 1274 b 336 1197 367 1274 336 1246 l 336 1167 b 417 1090 336 1118 367 1090 "},"Ã":{"ha":833,"x_min":0,"x_max":0,"o":"m 668 0 l 586 276 l 246 276 l 164 0 l 43 0 l 340 969 l 494 969 l 792 0 m 422 846 l 410 846 l 274 378 l 558 378 m 518 1086 b 407 1122 469 1086 436 1107 b 310 1156 363 1146 333 1156 b 229 1118 279 1156 257 1142 l 183 1174 b 315 1247 208 1211 251 1247 b 426 1211 364 1247 397 1226 b 524 1178 471 1188 500 1178 b 604 1215 554 1178 576 1192 l 650 1160 b 518 1086 625 1122 582 1086 "},"Ắ":{"ha":833,"x_min":0,"x_max":0,"o":"m 668 0 l 586 276 l 246 276 l 164 0 l 43 0 l 340 969 l 494 969 l 792 0 m 422 846 l 410 846 l 274 378 l 558 378 m 415 1049 b 186 1242 267 1049 213 1160 l 251 1274 l 281 1229 b 417 1138 325 1163 356 1138 b 553 1229 478 1138 508 1163 l 582 1274 l 647 1242 b 415 1049 618 1151 560 1049 m 426 1219 l 358 1251 l 476 1488 l 574 1440 "},"Ặ":{"ha":833,"x_min":0,"x_max":0,"o":"m 668 0 l 586 276 l 246 276 l 164 0 l 43 0 l 340 969 l 494 969 l 792 0 m 422 846 l 410 846 l 274 378 l 558 378 m 417 1063 b 193 1272 268 1063 219 1188 l 264 1303 l 293 1256 b 417 1153 336 1186 356 1153 b 540 1256 478 1153 497 1186 l 569 1303 l 640 1272 b 417 1063 614 1188 565 1063 m 417 -239 b 338 -175 360 -239 338 -211 l 338 -156 b 417 -92 338 -119 360 -92 b 496 -156 474 -92 496 -119 l 496 -175 b 417 -239 496 -211 474 -239 "},"Ằ":{"ha":833,"x_min":0,"x_max":0,"o":"m 668 0 l 586 276 l 246 276 l 164 0 l 43 0 l 340 969 l 494 969 l 792 0 m 422 846 l 410 846 l 274 378 l 558 378 m 418 1049 b 186 1242 274 1049 215 1151 l 251 1274 l 281 1229 b 417 1138 325 1163 356 1138 b 553 1229 478 1138 508 1163 l 582 1274 l 647 1242 b 418 1049 621 1160 567 1049 m 260 1440 l 357 1488 l 475 1251 l 407 1219 "},"Ẳ":{"ha":833,"x_min":0,"x_max":0,"o":"m 668 0 l 586 276 l 246 276 l 164 0 l 43 0 l 340 969 l 494 969 l 792 0 m 422 846 l 410 846 l 274 378 l 558 378 m 299 1472 l 429 1472 b 526 1396 500 1472 526 1438 b 458 1253 526 1356 501 1307 l 425 1211 l 361 1243 l 442 1388 l 299 1388 m 418 1049 b 186 1242 274 1049 215 1151 l 251 1274 l 281 1229 b 417 1138 325 1163 356 1138 b 553 1229 478 1138 508 1163 l 582 1274 l 647 1242 b 418 1049 621 1160 567 1049 "},"Ẵ":{"ha":833,"x_min":0,"x_max":0,"o":"m 668 0 l 586 276 l 246 276 l 164 0 l 43 0 l 340 969 l 494 969 l 792 0 m 422 846 l 410 846 l 274 378 l 558 378 m 517 1304 b 406 1340 468 1304 435 1325 b 308 1374 361 1364 332 1374 b 228 1336 278 1374 256 1360 l 185 1386 b 317 1460 210 1424 253 1460 b 428 1424 365 1460 399 1439 b 525 1390 472 1400 501 1390 b 606 1428 556 1390 578 1404 l 649 1378 b 517 1304 624 1340 581 1304 m 418 1049 b 186 1242 274 1049 215 1151 l 251 1274 l 281 1229 b 417 1138 325 1163 356 1138 b 553 1229 478 1138 508 1163 l 582 1274 l 647 1242 b 418 1049 621 1160 567 1049 "},"Ấ":{"ha":833,"x_min":0,"x_max":0,"o":"m 668 0 l 586 276 l 246 276 l 164 0 l 43 0 l 340 969 l 494 969 l 792 0 m 422 846 l 410 846 l 274 378 l 558 378 m 631 1225 l 563 1257 l 681 1493 l 778 1446 m 486 1285 l 639 1085 l 578 1043 l 415 1208 l 253 1043 l 194 1085 l 347 1285 "},"Ậ":{"ha":833,"x_min":0,"x_max":0,"o":"m 668 0 l 586 276 l 246 276 l 164 0 l 43 0 l 340 969 l 494 969 l 792 0 m 422 846 l 410 846 l 274 378 l 558 378 m 486 1299 l 640 1100 l 578 1057 l 415 1219 l 253 1057 l 193 1100 l 347 1299 m 417 -239 b 338 -175 360 -239 338 -211 l 338 -156 b 417 -92 338 -119 360 -92 b 496 -156 474 -92 496 -119 l 496 -175 b 417 -239 496 -211 474 -239 "},"Ầ":{"ha":833,"x_min":0,"x_max":0,"o":"m 668 0 l 586 276 l 246 276 l 164 0 l 43 0 l 340 969 l 494 969 l 792 0 m 422 846 l 410 846 l 274 378 l 558 378 m 56 1446 l 153 1493 l 271 1257 l 203 1225 m 486 1285 l 639 1085 l 578 1043 l 415 1208 l 253 1043 l 194 1085 l 347 1285 "},"Ẩ":{"ha":833,"x_min":0,"x_max":0,"o":"m 668 0 l 586 276 l 246 276 l 164 0 l 43 0 l 340 969 l 494 969 l 792 0 m 422 846 l 410 846 l 274 378 l 558 378 m 490 1478 l 642 1478 b 739 1401 713 1478 739 1443 b 671 1258 739 1361 714 1313 l 638 1217 l 574 1249 l 654 1393 l 490 1393 m 486 1285 l 639 1085 l 578 1043 l 415 1208 l 253 1043 l 194 1085 l 347 1285 "},"Ẫ":{"ha":833,"x_min":0,"x_max":0,"o":"m 668 0 l 586 276 l 246 276 l 164 0 l 43 0 l 340 969 l 494 969 l 792 0 m 422 846 l 410 846 l 274 378 l 558 378 m 317 1475 b 428 1439 365 1475 399 1454 b 525 1406 472 1415 501 1406 b 606 1443 556 1406 578 1419 l 649 1393 b 517 1319 624 1356 581 1319 b 406 1356 468 1319 435 1340 b 308 1389 361 1379 332 1389 b 228 1351 278 1389 256 1375 l 185 1401 b 317 1475 210 1439 253 1475 m 486 1271 l 639 1085 l 578 1043 l 415 1197 l 253 1043 l 194 1085 l 347 1271 "},"Æ":{"ha":833,"x_min":0,"x_max":0,"o":"m 433 279 l 222 279 l 144 0 l 28 0 l 314 969 l 778 969 l 778 874 l 544 874 l 544 539 l 761 539 l 761 443 l 544 443 l 544 96 l 778 96 l 778 0 l 433 0 m 390 886 l 247 375 l 433 375 l 433 886 "},"Ǽ":{"ha":833,"x_min":0,"x_max":0,"o":"m 433 279 l 222 279 l 144 0 l 28 0 l 314 969 l 778 969 l 778 874 l 544 874 l 544 539 l 761 539 l 761 443 l 544 443 l 544 96 l 778 96 l 778 0 l 433 0 m 390 886 l 247 375 l 433 375 l 433 886 m 556 1049 l 483 1082 l 601 1318 l 703 1269 "},"Ć":{"ha":833,"x_min":0,"x_max":0,"o":"m 449 -17 b 97 485 213 -17 97 163 b 449 986 97 807 213 986 b 747 774 626 986 700 879 l 647 728 b 449 885 613 814 567 885 b 221 564 294 885 221 758 l 221 406 b 449 85 221 211 294 85 b 647 242 567 85 613 156 l 747 196 b 449 -17 700 90 626 -17 m 465 1049 l 393 1082 l 511 1318 l 613 1269 "},"Č":{"ha":833,"x_min":0,"x_max":0,"o":"m 449 -17 b 97 485 213 -17 97 163 b 449 986 97 807 213 986 b 747 774 626 986 700 879 l 647 728 b 449 885 613 814 567 885 b 221 564 294 885 221 758 l 221 406 b 449 85 221 211 294 85 b 647 242 567 85 613 156 l 747 196 b 449 -17 700 90 626 -17 m 386 1068 l 232 1267 l 294 1310 l 457 1147 l 619 1310 l 679 1267 l 525 1068 "},"Ç":{"ha":833,"x_min":0,"x_max":0,"o":"m 449 885 b 221 564 294 885 221 758 l 221 406 b 449 85 221 211 294 85 b 647 242 567 85 613 156 l 747 196 b 458 -17 700 92 629 -12 l 446 -85 l 450 -89 b 504 -81 468 -83 488 -81 b 599 -172 558 -81 599 -112 b 444 -287 599 -251 526 -287 b 307 -231 369 -287 326 -257 l 360 -174 b 444 -212 376 -194 404 -212 b 506 -169 479 -212 506 -199 b 411 -112 506 -144 489 -124 l 372 -107 l 390 -12 b 97 485 193 15 97 189 b 449 986 97 807 213 986 b 747 774 626 986 700 879 l 647 728 b 449 885 613 814 567 885 "},"Ĉ":{"ha":833,"x_min":0,"x_max":0,"o":"m 449 -17 b 97 485 213 -17 97 163 b 449 986 97 807 213 986 b 747 774 626 986 700 879 l 647 728 b 449 885 613 814 567 885 b 221 564 294 885 221 758 l 221 406 b 449 85 221 211 294 85 b 647 242 567 85 613 156 l 747 196 b 449 -17 700 90 626 -17 m 525 1299 l 679 1100 l 617 1057 l 454 1219 l 292 1057 l 232 1100 l 386 1299 "},"Ċ":{"ha":833,"x_min":0,"x_max":0,"o":"m 449 -17 b 97 485 213 -17 97 163 b 449 986 97 807 213 986 b 747 774 626 986 700 879 l 647 728 b 449 885 613 814 567 885 b 221 564 294 885 221 758 l 221 406 b 449 85 221 211 294 85 b 647 242 567 85 613 156 l 747 196 b 449 -17 700 90 626 -17 m 456 1086 b 368 1157 392 1086 368 1117 l 368 1179 b 456 1250 368 1219 392 1250 b 543 1179 519 1250 543 1219 l 543 1157 b 456 1086 543 1117 519 1086 "},"Ď":{"ha":833,"x_min":0,"x_max":0,"o":"m 132 969 l 403 969 b 756 485 639 969 756 803 b 403 0 756 167 639 0 l 132 0 m 397 101 b 632 410 551 101 632 215 l 632 560 b 397 868 632 754 551 868 l 249 868 l 249 101 m 315 1068 l 161 1267 l 224 1310 l 386 1147 l 549 1310 l 608 1267 l 454 1068 "},"Đ":{"ha":833,"x_min":0,"x_max":0,"o":"m 142 467 l 31 467 l 31 556 l 142 556 l 142 969 l 403 969 b 756 485 639 969 756 803 b 403 0 756 167 639 0 l 142 0 m 397 101 b 632 410 551 101 632 215 l 632 560 b 397 868 632 754 551 868 l 258 868 l 258 556 l 454 556 l 454 467 l 258 467 l 258 101 "},"Ð":{"ha":833,"x_min":0,"x_max":0,"o":"m 142 467 l 31 467 l 31 556 l 142 556 l 142 969 l 403 969 b 756 485 639 969 756 803 b 403 0 756 167 639 0 l 142 0 m 397 101 b 632 410 551 101 632 215 l 632 560 b 397 868 632 754 551 868 l 258 868 l 258 556 l 454 556 l 454 467 l 258 467 l 258 101 "},"É":{"ha":833,"x_min":0,"x_max":0,"o":"m 125 0 l 125 969 l 722 969 l 722 868 l 242 868 l 242 542 l 706 542 l 706 440 l 242 440 l 242 101 l 722 101 l 722 0 m 433 1049 l 361 1082 l 479 1318 l 581 1269 "},"Ĕ":{"ha":833,"x_min":0,"x_max":0,"o":"m 125 0 l 125 969 l 722 969 l 722 868 l 242 868 l 242 542 l 706 542 l 706 440 l 242 440 l 242 101 l 722 101 l 722 0 m 424 1063 b 200 1272 275 1063 226 1188 l 271 1303 l 300 1256 b 424 1153 343 1186 363 1153 b 547 1256 485 1153 504 1186 l 576 1303 l 647 1272 b 424 1063 621 1188 572 1063 "},"Ě":{"ha":833,"x_min":0,"x_max":0,"o":"m 125 0 l 125 969 l 722 969 l 722 868 l 242 868 l 242 542 l 706 542 l 706 440 l 242 440 l 242 101 l 722 101 l 722 0 m 354 1068 l 200 1267 l 263 1310 l 425 1147 l 588 1310 l 647 1267 l 493 1068 "},"Ê":{"ha":833,"x_min":0,"x_max":0,"o":"m 125 0 l 125 969 l 722 969 l 722 868 l 242 868 l 242 542 l 706 542 l 706 440 l 242 440 l 242 101 l 722 101 l 722 0 m 493 1299 l 647 1100 l 585 1057 l 422 1219 l 260 1057 l 200 1100 l 354 1299 "},"Ë":{"ha":833,"x_min":0,"x_max":0,"o":"m 125 0 l 125 969 l 722 969 l 722 868 l 242 868 l 242 542 l 706 542 l 706 440 l 242 440 l 242 101 l 722 101 l 722 0 m 294 1094 b 215 1158 238 1094 215 1122 l 215 1178 b 294 1242 215 1214 238 1242 b 374 1178 351 1242 374 1214 l 374 1158 b 294 1094 374 1122 351 1094 m 553 1094 b 474 1158 496 1094 474 1122 l 474 1178 b 553 1242 474 1214 496 1242 b 632 1178 610 1242 632 1214 l 632 1158 b 553 1094 632 1122 610 1094 "},"Ė":{"ha":833,"x_min":0,"x_max":0,"o":"m 125 0 l 125 969 l 722 969 l 722 868 l 242 868 l 242 542 l 706 542 l 706 440 l 242 440 l 242 101 l 722 101 l 722 0 m 424 1086 b 336 1157 360 1086 336 1117 l 336 1179 b 424 1250 336 1219 360 1250 b 511 1179 488 1250 511 1219 l 511 1157 b 424 1086 511 1117 488 1086 "},"Ẹ":{"ha":833,"x_min":0,"x_max":0,"o":"m 125 0 l 125 969 l 722 969 l 722 868 l 242 868 l 242 542 l 706 542 l 706 440 l 242 440 l 242 101 l 722 101 l 722 0 m 424 -239 b 344 -175 367 -239 344 -211 l 344 -156 b 424 -92 344 -119 367 -92 b 503 -156 481 -92 503 -119 l 503 -175 b 424 -239 503 -211 481 -239 "},"È":{"ha":833,"x_min":0,"x_max":0,"o":"m 125 0 l 125 969 l 722 969 l 722 868 l 242 868 l 242 542 l 706 542 l 706 440 l 242 440 l 242 101 l 722 101 l 722 0 m 267 1269 l 368 1318 l 486 1082 l 414 1049 "},"Ẻ":{"ha":833,"x_min":0,"x_max":0,"o":"m 125 0 l 125 969 l 722 969 l 722 868 l 242 868 l 242 542 l 706 542 l 706 440 l 242 440 l 242 101 l 722 101 l 722 0 m 307 1299 l 458 1299 b 556 1222 529 1299 556 1264 b 488 1079 556 1182 531 1133 l 454 1038 l 390 1069 l 471 1214 l 307 1214 "},"Ē":{"ha":833,"x_min":0,"x_max":0,"o":"m 125 0 l 125 969 l 722 969 l 722 868 l 242 868 l 242 542 l 706 542 l 706 440 l 242 440 l 242 101 l 722 101 l 722 0 m 229 1215 l 618 1215 l 618 1121 l 229 1121 "},"Ę":{"ha":833,"x_min":0,"x_max":0,"o":"m 125 969 l 722 969 l 722 868 l 242 868 l 242 542 l 706 542 l 706 440 l 242 440 l 242 101 l 722 101 l 722 0 b 565 -158 579 -90 565 -131 b 624 -210 565 -197 594 -210 b 696 -174 654 -210 678 -196 l 751 -231 b 622 -287 733 -261 692 -287 b 471 -176 538 -287 471 -250 b 631 -4 471 -110 526 -54 l 629 0 l 125 0 "},"Ẽ":{"ha":833,"x_min":0,"x_max":0,"o":"m 125 0 l 125 969 l 722 969 l 722 868 l 242 868 l 242 542 l 706 542 l 706 440 l 242 440 l 242 101 l 722 101 l 722 0 m 525 1086 b 414 1122 476 1086 443 1107 b 317 1156 369 1146 340 1156 b 236 1118 286 1156 264 1142 l 190 1174 b 322 1247 215 1211 258 1247 b 433 1211 371 1247 404 1226 b 531 1178 478 1188 507 1178 b 611 1215 561 1178 583 1192 l 657 1160 b 525 1086 632 1122 589 1086 "},"Ế":{"ha":833,"x_min":0,"x_max":0,"o":"m 125 0 l 125 969 l 722 969 l 722 868 l 242 868 l 242 542 l 706 542 l 706 440 l 242 440 l 242 101 l 722 101 l 722 0 m 638 1225 l 569 1257 l 688 1493 l 785 1446 m 493 1285 l 646 1085 l 585 1043 l 422 1208 l 260 1043 l 201 1085 l 354 1285 "},"Ệ":{"ha":833,"x_min":0,"x_max":0,"o":"m 125 0 l 125 969 l 722 969 l 722 868 l 242 868 l 242 542 l 706 542 l 706 440 l 242 440 l 242 101 l 722 101 l 722 0 m 493 1299 l 647 1100 l 585 1057 l 422 1219 l 260 1057 l 200 1100 l 354 1299 m 424 -239 b 344 -175 367 -239 344 -211 l 344 -156 b 424 -92 344 -119 367 -92 b 503 -156 481 -92 503 -119 l 503 -175 b 424 -239 503 -211 481 -239 "},"Ề":{"ha":833,"x_min":0,"x_max":0,"o":"m 125 0 l 125 969 l 722 969 l 722 868 l 242 868 l 242 542 l 706 542 l 706 440 l 242 440 l 242 101 l 722 101 l 722 0 m 63 1446 l 160 1493 l 278 1257 l 210 1225 m 493 1285 l 646 1085 l 585 1043 l 422 1208 l 260 1043 l 201 1085 l 354 1285 "},"Ể":{"ha":833,"x_min":0,"x_max":0,"o":"m 125 0 l 125 969 l 722 969 l 722 868 l 242 868 l 242 542 l 706 542 l 706 440 l 242 440 l 242 101 l 722 101 l 722 0 m 497 1478 l 649 1478 b 746 1401 719 1478 746 1443 b 678 1258 746 1361 721 1313 l 644 1217 l 581 1249 l 661 1393 l 497 1393 m 493 1285 l 646 1085 l 585 1043 l 422 1208 l 260 1043 l 201 1085 l 354 1285 "},"Ễ":{"ha":833,"x_min":0,"x_max":0,"o":"m 125 0 l 125 969 l 722 969 l 722 868 l 242 868 l 242 542 l 706 542 l 706 440 l 242 440 l 242 101 l 722 101 l 722 0 m 324 1475 b 435 1439 372 1475 406 1454 b 532 1406 479 1415 508 1406 b 613 1443 563 1406 585 1419 l 656 1393 b 524 1319 631 1356 588 1319 b 413 1356 475 1319 442 1340 b 315 1389 368 1379 339 1389 b 235 1351 285 1389 263 1375 l 192 1401 b 324 1475 217 1439 260 1475 m 493 1271 l 646 1085 l 585 1043 l 422 1197 l 260 1043 l 201 1085 l 354 1271 "},"Ə":{"ha":833,"x_min":0,"x_max":0,"o":"m 417 -17 b 78 485 181 -17 78 168 l 78 515 l 632 515 l 632 561 b 401 885 632 756 572 885 b 185 693 324 885 236 858 l 88 739 b 410 986 131 899 242 986 b 756 486 658 986 756 797 b 417 -17 756 168 653 -17 m 415 85 b 632 406 569 85 632 211 l 632 419 l 199 419 l 199 406 b 415 85 199 211 261 85 "},"Ğ":{"ha":833,"x_min":0,"x_max":0,"o":"m 617 129 l 610 129 b 390 -17 578 54 524 -17 b 78 478 181 -17 78 161 b 424 986 78 808 190 986 b 725 774 606 986 683 879 l 625 728 b 428 885 590 814 544 885 b 201 564 272 885 201 758 l 201 414 b 417 82 201 219 258 82 b 617 286 542 82 617 167 l 617 386 l 413 386 l 413 479 l 725 479 l 725 0 l 617 0 m 425 1063 b 201 1272 276 1063 228 1188 l 272 1303 l 301 1256 b 425 1153 344 1186 364 1153 b 549 1256 486 1153 506 1186 l 578 1303 l 649 1272 b 425 1063 622 1188 574 1063 "},"Ĝ":{"ha":833,"x_min":0,"x_max":0,"o":"m 617 129 l 610 129 b 390 -17 578 54 524 -17 b 78 478 181 -17 78 161 b 424 986 78 808 190 986 b 725 774 606 986 683 879 l 625 728 b 428 885 590 814 544 885 b 201 564 272 885 201 758 l 201 414 b 417 82 201 219 258 82 b 617 286 542 82 617 167 l 617 386 l 413 386 l 413 479 l 725 479 l 725 0 l 617 0 m 494 1299 l 649 1100 l 586 1057 l 424 1219 l 261 1057 l 201 1100 l 356 1299 "},"Ģ":{"ha":833,"x_min":0,"x_max":0,"o":"m 617 129 l 610 129 b 390 -17 578 54 524 -17 b 78 478 181 -17 78 161 b 424 986 78 808 190 986 b 725 774 606 986 683 879 l 625 728 b 428 885 590 814 544 885 b 201 564 272 885 201 758 l 201 414 b 417 82 201 219 258 82 b 617 286 542 82 617 167 l 617 386 l 413 386 l 413 479 l 725 479 l 725 0 l 617 0 m 344 -86 l 496 -86 l 390 -349 l 306 -349 "},"Ġ":{"ha":833,"x_min":0,"x_max":0,"o":"m 617 129 l 610 129 b 390 -17 578 54 524 -17 b 78 478 181 -17 78 161 b 424 986 78 808 190 986 b 725 774 606 986 683 879 l 625 728 b 428 885 590 814 544 885 b 201 564 272 885 201 758 l 201 414 b 417 82 201 219 258 82 b 617 286 542 82 617 167 l 617 386 l 413 386 l 413 479 l 725 479 l 725 0 l 617 0 m 425 1086 b 338 1157 361 1086 338 1117 l 338 1179 b 425 1250 338 1219 361 1250 b 513 1179 489 1250 513 1219 l 513 1157 b 425 1086 513 1117 489 1086 "},"Ħ":{"ha":833,"x_min":0,"x_max":0,"o":"m 606 440 l 228 440 l 228 0 l 111 0 l 111 719 l 14 719 l 14 808 l 111 808 l 111 969 l 228 969 l 228 808 l 606 808 l 606 969 l 722 969 l 722 808 l 819 808 l 819 719 l 722 719 l 722 0 l 606 0 m 606 542 l 606 719 l 228 719 l 228 542 "},"Ĥ":{"ha":833,"x_min":0,"x_max":0,"o":"m 606 440 l 228 440 l 228 0 l 111 0 l 111 969 l 228 969 l 228 542 l 606 542 l 606 969 l 722 969 l 722 0 l 606 0 m 486 1299 l 640 1100 l 578 1057 l 415 1219 l 253 1057 l 193 1100 l 347 1299 "},"Í":{"ha":833,"x_min":0,"x_max":0,"o":"m 117 0 l 117 93 l 358 93 l 358 876 l 117 876 l 117 969 l 717 969 l 717 876 l 475 876 l 475 93 l 717 93 l 717 0 m 426 1049 l 354 1082 l 472 1318 l 574 1269 "},"Ĭ":{"ha":833,"x_min":0,"x_max":0,"o":"m 117 0 l 117 93 l 358 93 l 358 876 l 117 876 l 117 969 l 717 969 l 717 876 l 475 876 l 475 93 l 717 93 l 717 0 m 417 1063 b 193 1272 268 1063 219 1188 l 264 1303 l 293 1256 b 417 1153 336 1186 356 1153 b 540 1256 478 1153 497 1186 l 569 1303 l 640 1272 b 417 1063 614 1188 565 1063 "},"Ǐ":{"ha":833,"x_min":0,"x_max":0,"o":"m 117 0 l 117 93 l 358 93 l 358 876 l 117 876 l 117 969 l 717 969 l 717 876 l 475 876 l 475 93 l 717 93 l 717 0 m 347 1068 l 193 1267 l 256 1310 l 418 1147 l 581 1310 l 640 1267 l 486 1068 "},"Î":{"ha":833,"x_min":0,"x_max":0,"o":"m 117 0 l 117 93 l 358 93 l 358 876 l 117 876 l 117 969 l 717 969 l 717 876 l 475 876 l 475 93 l 717 93 l 717 0 m 486 1299 l 640 1100 l 578 1057 l 415 1219 l 253 1057 l 193 1100 l 347 1299 "},"Ï":{"ha":833,"x_min":0,"x_max":0,"o":"m 117 0 l 117 93 l 358 93 l 358 876 l 117 876 l 117 969 l 717 969 l 717 876 l 475 876 l 475 93 l 717 93 l 717 0 m 288 1094 b 208 1158 231 1094 208 1122 l 208 1178 b 288 1242 208 1214 231 1242 b 367 1178 344 1242 367 1214 l 367 1158 b 288 1094 367 1122 344 1094 m 546 1094 b 467 1158 489 1094 467 1122 l 467 1178 b 546 1242 467 1214 489 1242 b 625 1178 603 1242 625 1214 l 625 1158 b 546 1094 625 1122 603 1094 "},"İ":{"ha":833,"x_min":0,"x_max":0,"o":"m 117 0 l 117 93 l 358 93 l 358 876 l 117 876 l 117 969 l 717 969 l 717 876 l 475 876 l 475 93 l 717 93 l 717 0 m 417 1086 b 329 1157 353 1086 329 1117 l 329 1179 b 417 1250 329 1219 353 1250 b 504 1179 481 1250 504 1219 l 504 1157 b 417 1086 504 1117 481 1086 "},"Ị":{"ha":833,"x_min":0,"x_max":0,"o":"m 117 0 l 117 93 l 358 93 l 358 876 l 117 876 l 117 969 l 717 969 l 717 876 l 475 876 l 475 93 l 717 93 l 717 0 m 417 -239 b 338 -175 360 -239 338 -211 l 338 -156 b 417 -92 338 -119 360 -92 b 496 -156 474 -92 496 -119 l 496 -175 b 417 -239 496 -211 474 -239 "},"Ì":{"ha":833,"x_min":0,"x_max":0,"o":"m 117 0 l 117 93 l 358 93 l 358 876 l 117 876 l 117 969 l 717 969 l 717 876 l 475 876 l 475 93 l 717 93 l 717 0 m 260 1269 l 361 1318 l 479 1082 l 407 1049 "},"Ỉ":{"ha":833,"x_min":0,"x_max":0,"o":"m 117 0 l 117 93 l 358 93 l 358 876 l 117 876 l 117 969 l 717 969 l 717 876 l 475 876 l 475 93 l 717 93 l 717 0 m 300 1299 l 451 1299 b 549 1222 522 1299 549 1264 b 481 1079 549 1182 524 1133 l 447 1038 l 383 1069 l 464 1214 l 300 1214 "},"Ī":{"ha":833,"x_min":0,"x_max":0,"o":"m 117 0 l 117 93 l 358 93 l 358 876 l 117 876 l 117 969 l 717 969 l 717 876 l 475 876 l 475 93 l 717 93 l 717 0 m 222 1215 l 611 1215 l 611 1121 l 222 1121 "},"Į":{"ha":833,"x_min":0,"x_max":0,"o":"m 117 93 l 358 93 l 358 876 l 117 876 l 117 969 l 717 969 l 717 876 l 475 876 l 475 93 l 717 93 l 717 0 b 560 -158 574 -90 560 -131 b 618 -210 560 -197 589 -210 b 690 -174 649 -210 672 -196 l 746 -231 b 617 -287 728 -261 686 -287 b 465 -176 532 -287 465 -250 b 625 -4 465 -110 521 -54 l 624 0 l 117 0 "},"Ĩ":{"ha":833,"x_min":0,"x_max":0,"o":"m 117 0 l 117 93 l 358 93 l 358 876 l 117 876 l 117 969 l 717 969 l 717 876 l 475 876 l 475 93 l 717 93 l 717 0 m 518 1086 b 407 1122 469 1086 436 1107 b 310 1156 363 1146 333 1156 b 229 1118 279 1156 257 1142 l 183 1174 b 315 1247 208 1211 251 1247 b 426 1211 364 1247 397 1226 b 524 1178 471 1188 500 1178 b 604 1215 554 1178 576 1192 l 650 1160 b 518 1086 625 1122 582 1086 "},"Ĳ":{"ha":833,"x_min":0,"x_max":0,"o":"m 708 969 l 708 265 b 407 -17 708 93 585 -17 b 118 201 256 -17 147 63 l 235 231 b 411 86 251 158 290 86 b 592 286 525 86 592 150 l 592 969 m 125 969 l 242 969 l 242 403 l 125 403 "},"Ĵ":{"ha":833,"x_min":0,"x_max":0,"o":"m 667 969 l 667 251 b 381 -17 667 88 549 -17 b 103 203 233 -17 132 64 l 214 226 b 383 86 232 149 275 86 b 550 272 489 86 550 146 l 550 868 l 200 868 l 200 969 m 504 1299 l 658 1100 l 596 1057 l 433 1219 l 271 1057 l 211 1100 l 365 1299 "},"Ķ":{"ha":833,"x_min":0,"x_max":0,"o":"m 374 475 l 235 311 l 235 0 l 118 0 l 118 969 l 235 969 l 235 464 l 239 464 l 367 625 l 653 969 l 793 969 l 453 561 l 803 0 l 667 0 m 375 -86 l 526 -86 l 421 -349 l 336 -349 "},"Ĺ":{"ha":833,"x_min":0,"x_max":0,"o":"m 167 0 l 167 969 l 283 969 l 283 101 l 743 101 l 743 0 m 235 1049 l 163 1082 l 281 1318 l 382 1269 "},"Ľ":{"ha":833,"x_min":0,"x_max":0,"o":"m 167 0 l 167 969 l 283 969 l 283 101 l 743 101 l 743 0 m 488 765 l 403 765 l 413 1028 l 556 1028 "},"Ļ":{"ha":833,"x_min":0,"x_max":0,"o":"m 167 0 l 167 969 l 283 969 l 283 101 l 743 101 l 743 0 m 382 -86 l 533 -86 l 428 -349 l 343 -349 "},"Ŀ":{"ha":833,"x_min":0,"x_max":0,"o":"m 167 0 l 167 969 l 283 969 l 283 101 l 743 101 l 743 0 m 604 369 b 517 440 540 369 517 400 l 517 463 b 604 533 517 503 540 533 b 692 463 668 533 692 503 l 692 440 b 604 369 692 400 668 369 "},"Ł":{"ha":833,"x_min":0,"x_max":0,"o":"m 743 0 l 167 0 l 167 376 l 56 340 l 56 436 l 167 472 l 167 969 l 283 969 l 283 506 l 576 601 l 576 506 l 283 410 l 283 101 l 743 101 "},"Ń":{"ha":833,"x_min":0,"x_max":0,"o":"m 226 817 l 217 817 l 217 0 l 111 0 l 111 969 l 276 969 l 607 153 l 617 153 l 617 969 l 722 969 l 722 0 l 557 0 m 426 1049 l 354 1082 l 472 1318 l 574 1269 "},"Ň":{"ha":833,"x_min":0,"x_max":0,"o":"m 226 817 l 217 817 l 217 0 l 111 0 l 111 969 l 276 969 l 607 153 l 617 153 l 617 969 l 722 969 l 722 0 l 557 0 m 347 1068 l 193 1267 l 256 1310 l 418 1147 l 581 1310 l 640 1267 l 486 1068 "},"Ņ":{"ha":833,"x_min":0,"x_max":0,"o":"m 226 817 l 217 817 l 217 0 l 111 0 l 111 969 l 276 969 l 607 153 l 617 153 l 617 969 l 722 969 l 722 0 l 557 0 m 344 -86 l 496 -86 l 390 -349 l 306 -349 "},"Ñ":{"ha":833,"x_min":0,"x_max":0,"o":"m 226 817 l 217 817 l 217 0 l 111 0 l 111 969 l 276 969 l 607 153 l 617 153 l 617 969 l 722 969 l 722 0 l 557 0 m 518 1086 b 407 1122 469 1086 436 1107 b 310 1156 363 1146 333 1156 b 229 1118 279 1156 257 1142 l 183 1174 b 315 1247 208 1211 251 1247 b 426 1211 364 1247 397 1226 b 524 1178 471 1188 500 1178 b 604 1215 554 1178 576 1192 l 650 1160 b 518 1086 625 1122 582 1086 "},"Ŋ":{"ha":833,"x_min":0,"x_max":0,"o":"m 111 0 l 111 969 l 276 969 l 607 157 l 617 157 l 617 969 l 722 969 l 722 -114 b 564 -278 722 -210 672 -278 l 218 -278 l 218 -183 l 617 -183 l 617 0 l 557 0 l 226 821 l 217 821 l 217 0 "},"Ó":{"ha":833,"x_min":0,"x_max":0,"o":"m 417 -17 b 78 485 181 -17 78 168 b 417 986 78 801 181 986 b 756 485 653 986 756 801 b 417 -17 756 168 653 -17 m 417 85 b 632 406 571 85 632 211 l 632 564 b 417 885 632 758 571 885 b 201 564 263 885 201 758 l 201 406 b 417 85 201 211 263 85 m 426 1049 l 354 1082 l 472 1318 l 574 1269 "},"Ŏ":{"ha":833,"x_min":0,"x_max":0,"o":"m 417 -17 b 78 485 181 -17 78 168 b 417 986 78 801 181 986 b 756 485 653 986 756 801 b 417 -17 756 168 653 -17 m 417 85 b 632 406 571 85 632 211 l 632 564 b 417 885 632 758 571 885 b 201 564 263 885 201 758 l 201 406 b 417 85 201 211 263 85 m 417 1063 b 193 1272 268 1063 219 1188 l 264 1303 l 293 1256 b 417 1153 336 1186 356 1153 b 540 1256 478 1153 497 1186 l 569 1303 l 640 1272 b 417 1063 614 1188 565 1063 "},"Ǒ":{"ha":833,"x_min":0,"x_max":0,"o":"m 417 -17 b 78 485 181 -17 78 168 b 417 986 78 801 181 986 b 756 485 653 986 756 801 b 417 -17 756 168 653 -17 m 417 85 b 632 406 571 85 632 211 l 632 564 b 417 885 632 758 571 885 b 201 564 263 885 201 758 l 201 406 b 417 85 201 211 263 85 m 347 1068 l 193 1267 l 256 1310 l 418 1147 l 581 1310 l 640 1267 l 486 1068 "},"Ô":{"ha":833,"x_min":0,"x_max":0,"o":"m 417 -17 b 78 485 181 -17 78 168 b 417 986 78 801 181 986 b 756 485 653 986 756 801 b 417 -17 756 168 653 -17 m 417 85 b 632 406 571 85 632 211 l 632 564 b 417 885 632 758 571 885 b 201 564 263 885 201 758 l 201 406 b 417 85 201 211 263 85 m 486 1299 l 640 1100 l 578 1057 l 415 1219 l 253 1057 l 193 1100 l 347 1299 "},"Ö":{"ha":833,"x_min":0,"x_max":0,"o":"m 417 -17 b 78 485 181 -17 78 168 b 417 986 78 801 181 986 b 756 485 653 986 756 801 b 417 -17 756 168 653 -17 m 417 85 b 632 406 571 85 632 211 l 632 564 b 417 885 632 758 571 885 b 201 564 263 885 201 758 l 201 406 b 417 85 201 211 263 85 m 288 1094 b 208 1158 231 1094 208 1122 l 208 1178 b 288 1242 208 1214 231 1242 b 367 1178 344 1242 367 1214 l 367 1158 b 288 1094 367 1122 344 1094 m 546 1094 b 467 1158 489 1094 467 1122 l 467 1178 b 546 1242 467 1214 489 1242 b 625 1178 603 1242 625 1214 l 625 1158 b 546 1094 625 1122 603 1094 "},"Ọ":{"ha":833,"x_min":0,"x_max":0,"o":"m 417 -17 b 78 485 181 -17 78 168 b 417 986 78 801 181 986 b 756 485 653 986 756 801 b 417 -17 756 168 653 -17 m 417 85 b 632 406 571 85 632 211 l 632 564 b 417 885 632 758 571 885 b 201 564 263 885 201 758 l 201 406 b 417 85 201 211 263 85 m 417 -239 b 338 -175 360 -239 338 -211 l 338 -156 b 417 -92 338 -119 360 -92 b 496 -156 474 -92 496 -119 l 496 -175 b 417 -239 496 -211 474 -239 "},"Ò":{"ha":833,"x_min":0,"x_max":0,"o":"m 417 -17 b 78 485 181 -17 78 168 b 417 986 78 801 181 986 b 756 485 653 986 756 801 b 417 -17 756 168 653 -17 m 417 85 b 632 406 571 85 632 211 l 632 564 b 417 885 632 758 571 885 b 201 564 263 885 201 758 l 201 406 b 417 85 201 211 263 85 m 260 1269 l 361 1318 l 479 1082 l 407 1049 "},"Ỏ":{"ha":833,"x_min":0,"x_max":0,"o":"m 417 -17 b 78 485 181 -17 78 168 b 417 986 78 801 181 986 b 756 485 653 986 756 801 b 417 -17 756 168 653 -17 m 417 85 b 632 406 571 85 632 211 l 632 564 b 417 885 632 758 571 885 b 201 564 263 885 201 758 l 201 406 b 417 85 201 211 263 85 m 300 1299 l 451 1299 b 549 1222 522 1299 549 1264 b 481 1079 549 1182 524 1133 l 447 1038 l 383 1069 l 464 1214 l 300 1214 "},"Ő":{"ha":833,"x_min":0,"x_max":0,"o":"m 417 -17 b 78 485 181 -17 78 168 b 417 986 78 801 181 986 b 756 485 653 986 756 801 b 417 -17 756 168 653 -17 m 417 85 b 632 406 571 85 632 211 l 632 564 b 417 885 632 758 571 885 b 201 564 263 885 201 758 l 201 406 b 417 85 201 211 263 85 m 315 1050 l 249 1081 l 367 1317 l 463 1271 m 538 1050 l 471 1081 l 589 1317 l 685 1271 "},"Ō":{"ha":833,"x_min":0,"x_max":0,"o":"m 417 -17 b 78 485 181 -17 78 168 b 417 986 78 801 181 986 b 756 485 653 986 756 801 b 417 -17 756 168 653 -17 m 417 85 b 632 406 571 85 632 211 l 632 564 b 417 885 632 758 571 885 b 201 564 263 885 201 758 l 201 406 b 417 85 201 211 263 85 m 222 1215 l 611 1215 l 611 1121 l 222 1121 "},"Ø":{"ha":833,"x_min":0,"x_max":0,"o":"m 417 -17 b 214 50 333 -17 265 6 l 149 -61 l 65 -11 l 149 131 b 78 485 100 215 78 336 b 417 986 78 801 181 986 b 619 919 500 986 568 964 l 685 1031 l 768 981 l 685 839 b 756 485 733 754 756 633 b 417 -17 756 168 653 -17 m 201 406 b 221 242 201 343 207 288 l 565 821 b 417 885 531 861 482 885 b 201 564 263 885 201 758 l 201 406 m 417 85 b 632 406 571 85 632 211 l 632 564 b 613 728 632 626 626 682 l 268 149 b 417 85 303 108 351 85 "},"Ǿ":{"ha":833,"x_min":0,"x_max":0,"o":"m 417 -17 b 214 50 333 -17 265 6 l 149 -61 l 65 -11 l 149 131 b 78 485 100 215 78 336 b 417 986 78 801 181 986 b 619 919 500 986 568 964 l 685 1031 l 768 981 l 685 839 b 756 485 733 754 756 633 b 417 -17 756 168 653 -17 m 201 406 b 221 242 201 343 207 288 l 565 821 b 417 885 531 861 482 885 b 201 564 263 885 201 758 l 201 406 m 417 85 b 632 406 571 85 632 211 l 632 564 b 613 728 632 626 626 682 l 268 149 b 417 85 303 108 351 85 m 426 1049 l 354 1082 l 472 1318 l 574 1269 "},"Õ":{"ha":833,"x_min":0,"x_max":0,"o":"m 417 -17 b 78 485 181 -17 78 168 b 417 986 78 801 181 986 b 756 485 653 986 756 801 b 417 -17 756 168 653 -17 m 417 85 b 632 406 571 85 632 211 l 632 564 b 417 885 632 758 571 885 b 201 564 263 885 201 758 l 201 406 b 417 85 201 211 263 85 m 518 1086 b 407 1122 469 1086 436 1107 b 310 1156 363 1146 333 1156 b 229 1118 279 1156 257 1142 l 183 1174 b 315 1247 208 1211 251 1247 b 426 1211 364 1247 397 1226 b 524 1178 471 1188 500 1178 b 604 1215 554 1178 576 1192 l 650 1160 b 518 1086 625 1122 582 1086 "},"Ơ":{"ha":833,"x_min":0,"x_max":0,"o":"m 763 986 b 675 899 763 938 744 899 l 636 899 b 756 485 721 818 756 678 b 417 -17 756 168 653 -17 b 78 485 181 -17 78 168 b 417 986 78 801 181 986 b 528 969 457 986 494 981 l 664 969 l 664 1125 l 763 1125 m 417 85 b 632 406 571 85 632 211 l 632 564 b 417 885 632 758 571 885 b 201 564 263 885 201 758 l 201 406 b 417 85 201 211 263 85 "},"Ớ":{"ha":833,"x_min":0,"x_max":0,"o":"m 763 986 b 675 899 763 938 744 899 l 636 899 b 756 485 721 818 756 678 b 417 -17 756 168 653 -17 b 78 485 181 -17 78 168 b 417 986 78 801 181 986 b 528 969 457 986 494 981 l 664 969 l 664 1125 l 763 1125 m 417 85 b 632 406 571 85 632 211 l 632 564 b 417 885 632 758 571 885 b 201 564 263 885 201 758 l 201 406 b 417 85 201 211 263 85 m 426 1049 l 354 1082 l 472 1318 l 574 1269 "},"Ợ":{"ha":833,"x_min":0,"x_max":0,"o":"m 763 986 b 675 899 763 938 744 899 l 636 899 b 756 485 721 818 756 678 b 417 -17 756 168 653 -17 b 78 485 181 -17 78 168 b 417 986 78 801 181 986 b 528 969 457 986 494 981 l 664 969 l 664 1125 l 763 1125 m 417 85 b 632 406 571 85 632 211 l 632 564 b 417 885 632 758 571 885 b 201 564 263 885 201 758 l 201 406 b 417 85 201 211 263 85 m 417 -239 b 338 -175 360 -239 338 -211 l 338 -156 b 417 -92 338 -119 360 -92 b 496 -156 474 -92 496 -119 l 496 -175 b 417 -239 496 -211 474 -239 "},"Ờ":{"ha":833,"x_min":0,"x_max":0,"o":"m 763 986 b 675 899 763 938 744 899 l 636 899 b 756 485 721 818 756 678 b 417 -17 756 168 653 -17 b 78 485 181 -17 78 168 b 417 986 78 801 181 986 b 528 969 457 986 494 981 l 664 969 l 664 1125 l 763 1125 m 417 85 b 632 406 571 85 632 211 l 632 564 b 417 885 632 758 571 885 b 201 564 263 885 201 758 l 201 406 b 417 85 201 211 263 85 m 260 1269 l 361 1318 l 479 1082 l 407 1049 "},"Ở":{"ha":833,"x_min":0,"x_max":0,"o":"m 763 986 b 675 899 763 938 744 899 l 636 899 b 756 485 721 818 756 678 b 417 -17 756 168 653 -17 b 78 485 181 -17 78 168 b 417 986 78 801 181 986 b 528 969 457 986 494 981 l 664 969 l 664 1125 l 763 1125 m 417 85 b 632 406 571 85 632 211 l 632 564 b 417 885 632 758 571 885 b 201 564 263 885 201 758 l 201 406 b 417 85 201 211 263 85 m 300 1299 l 451 1299 b 549 1222 522 1299 549 1264 b 481 1079 549 1182 524 1133 l 447 1038 l 383 1069 l 464 1214 l 300 1214 "},"Ỡ":{"ha":833,"x_min":0,"x_max":0,"o":"m 763 986 b 675 899 763 938 744 899 l 636 899 b 756 485 721 818 756 678 b 417 -17 756 168 653 -17 b 78 485 181 -17 78 168 b 417 986 78 801 181 986 b 528 969 457 986 494 981 l 664 969 l 664 1125 l 763 1125 m 417 85 b 632 406 571 85 632 211 l 632 564 b 417 885 632 758 571 885 b 201 564 263 885 201 758 l 201 406 b 417 85 201 211 263 85 m 504 1092 b 407 1122 461 1092 432 1110 b 328 1150 372 1140 353 1150 b 249 1113 299 1150 275 1136 l 203 1168 b 329 1242 228 1206 269 1242 b 426 1211 372 1242 401 1224 b 506 1183 461 1193 481 1183 b 585 1221 535 1183 558 1197 l 631 1165 b 504 1092 606 1128 564 1092 "},"Ố":{"ha":833,"x_min":0,"x_max":0,"o":"m 417 -17 b 78 485 181 -17 78 168 b 417 986 78 801 181 986 b 756 485 653 986 756 801 b 417 -17 756 168 653 -17 m 417 85 b 632 406 571 85 632 211 l 632 564 b 417 885 632 758 571 885 b 201 564 263 885 201 758 l 201 406 b 417 85 201 211 263 85 m 631 1225 l 563 1257 l 681 1493 l 778 1446 m 486 1285 l 639 1085 l 578 1043 l 415 1208 l 253 1043 l 194 1085 l 347 1285 "},"Ộ":{"ha":833,"x_min":0,"x_max":0,"o":"m 417 -17 b 78 485 181 -17 78 168 b 417 986 78 801 181 986 b 756 485 653 986 756 801 b 417 -17 756 168 653 -17 m 417 85 b 632 406 571 85 632 211 l 632 564 b 417 885 632 758 571 885 b 201 564 263 885 201 758 l 201 406 b 417 85 201 211 263 85 m 486 1299 l 640 1100 l 578 1057 l 415 1219 l 253 1057 l 193 1100 l 347 1299 m 417 -239 b 338 -175 360 -239 338 -211 l 338 -156 b 417 -92 338 -119 360 -92 b 496 -156 474 -92 496 -119 l 496 -175 b 417 -239 496 -211 474 -239 "},"Ồ":{"ha":833,"x_min":0,"x_max":0,"o":"m 417 -17 b 78 485 181 -17 78 168 b 417 986 78 801 181 986 b 756 485 653 986 756 801 b 417 -17 756 168 653 -17 m 417 85 b 632 406 571 85 632 211 l 632 564 b 417 885 632 758 571 885 b 201 564 263 885 201 758 l 201 406 b 417 85 201 211 263 85 m 56 1446 l 153 1493 l 271 1257 l 203 1225 m 486 1285 l 639 1085 l 578 1043 l 415 1208 l 253 1043 l 194 1085 l 347 1285 "},"Ổ":{"ha":833,"x_min":0,"x_max":0,"o":"m 417 -17 b 78 485 181 -17 78 168 b 417 986 78 801 181 986 b 756 485 653 986 756 801 b 417 -17 756 168 653 -17 m 417 85 b 632 406 571 85 632 211 l 632 564 b 417 885 632 758 571 885 b 201 564 263 885 201 758 l 201 406 b 417 85 201 211 263 85 m 490 1478 l 642 1478 b 739 1401 713 1478 739 1443 b 671 1258 739 1361 714 1313 l 638 1217 l 574 1249 l 654 1393 l 490 1393 m 486 1285 l 639 1085 l 578 1043 l 415 1208 l 253 1043 l 194 1085 l 347 1285 "},"Ỗ":{"ha":833,"x_min":0,"x_max":0,"o":"m 417 -17 b 78 485 181 -17 78 168 b 417 986 78 801 181 986 b 756 485 653 986 756 801 b 417 -17 756 168 653 -17 m 417 85 b 632 406 571 85 632 211 l 632 564 b 417 885 632 758 571 885 b 201 564 263 885 201 758 l 201 406 b 417 85 201 211 263 85 m 317 1475 b 428 1439 365 1475 399 1454 b 525 1406 472 1415 501 1406 b 606 1443 556 1406 578 1419 l 649 1393 b 517 1319 624 1356 581 1319 b 406 1356 468 1319 435 1340 b 308 1389 361 1379 332 1389 b 228 1351 278 1389 256 1375 l 185 1401 b 317 1475 210 1439 253 1475 m 486 1271 l 639 1085 l 578 1043 l 415 1197 l 253 1043 l 194 1085 l 347 1271 "},"Œ":{"ha":833,"x_min":0,"x_max":0,"o":"m 401 0 b 51 485 167 0 51 167 b 401 969 51 803 167 969 l 778 969 l 778 874 l 544 874 l 544 539 l 761 539 l 761 443 l 544 443 l 544 96 l 778 96 l 778 0 m 433 96 l 433 874 l 407 874 b 169 560 251 874 169 758 l 169 410 b 407 96 169 211 251 96 "},"Ŕ":{"ha":833,"x_min":0,"x_max":0,"o":"m 242 0 l 125 0 l 125 969 l 478 969 b 754 690 657 969 754 865 b 515 419 754 535 669 435 l 763 0 l 632 0 l 396 414 l 242 414 m 475 513 b 631 654 572 513 631 564 l 631 726 b 475 868 631 817 572 868 l 242 868 l 242 513 m 438 1049 l 365 1082 l 483 1318 l 585 1269 "},"Ř":{"ha":833,"x_min":0,"x_max":0,"o":"m 242 0 l 125 0 l 125 969 l 478 969 b 754 690 657 969 754 865 b 515 419 754 535 669 435 l 763 0 l 632 0 l 396 414 l 242 414 m 475 513 b 631 654 572 513 631 564 l 631 726 b 475 868 631 817 572 868 l 242 868 l 242 513 m 358 1068 l 204 1267 l 267 1310 l 429 1147 l 592 1310 l 651 1267 l 497 1068 "},"Ŗ":{"ha":833,"x_min":0,"x_max":0,"o":"m 242 0 l 125 0 l 125 969 l 478 969 b 754 690 657 969 754 865 b 515 419 754 535 669 435 l 763 0 l 632 0 l 396 414 l 242 414 m 475 513 b 631 654 572 513 631 564 l 631 726 b 475 868 631 817 572 868 l 242 868 l 242 513 m 356 -86 l 507 -86 l 401 -349 l 317 -349 "},"Ś":{"ha":833,"x_min":0,"x_max":0,"o":"m 414 -17 b 63 154 240 -17 135 54 l 147 224 b 418 83 222 129 301 83 b 635 268 558 83 635 151 b 454 435 635 363 586 413 l 346 453 b 96 717 156 485 96 594 b 419 986 96 894 222 986 b 744 838 574 986 679 931 l 663 767 b 418 886 608 838 539 886 b 214 719 288 886 214 829 b 396 554 214 633 258 578 l 500 536 b 753 271 690 503 753 397 b 414 -17 753 92 629 -17 m 424 1049 l 351 1082 l 469 1318 l 571 1269 "},"Š":{"ha":833,"x_min":0,"x_max":0,"o":"m 414 -17 b 63 154 240 -17 135 54 l 147 224 b 418 83 222 129 301 83 b 635 268 558 83 635 151 b 454 435 635 363 586 413 l 346 453 b 96 717 156 485 96 594 b 419 986 96 894 222 986 b 744 838 574 986 679 931 l 663 767 b 418 886 608 838 539 886 b 214 719 288 886 214 829 b 396 554 214 633 258 578 l 500 536 b 753 271 690 503 753 397 b 414 -17 753 92 629 -17 m 344 1068 l 190 1267 l 253 1310 l 415 1147 l 578 1310 l 638 1267 l 483 1068 "},"Ş":{"ha":833,"x_min":0,"x_max":0,"o":"m 429 -287 b 292 -231 354 -287 311 -257 l 344 -174 b 429 -212 361 -194 389 -212 b 490 -169 464 -212 490 -199 b 396 -112 490 -144 474 -124 l 357 -107 l 375 -15 b 63 154 224 -6 129 61 l 147 224 b 418 83 222 129 301 83 b 635 268 558 83 635 151 b 454 435 635 363 586 413 l 346 453 b 96 717 156 485 96 594 b 419 986 96 894 222 986 b 744 838 574 986 679 931 l 663 767 b 418 886 608 838 539 886 b 214 719 288 886 214 829 b 396 554 214 633 258 578 l 500 536 b 753 271 690 503 753 397 b 444 -15 753 100 640 -6 l 431 -85 l 435 -89 b 489 -81 453 -83 472 -81 b 583 -172 543 -81 583 -112 b 429 -287 583 -251 511 -287 "},"Ŝ":{"ha":833,"x_min":0,"x_max":0,"o":"m 414 -17 b 63 154 240 -17 135 54 l 147 224 b 418 83 222 129 301 83 b 635 268 558 83 635 151 b 454 435 635 363 586 413 l 346 453 b 96 717 156 485 96 594 b 419 986 96 894 222 986 b 744 838 574 986 679 931 l 663 767 b 418 886 608 838 539 886 b 214 719 288 886 214 829 b 396 554 214 633 258 578 l 500 536 b 753 271 690 503 753 397 b 414 -17 753 92 629 -17 m 483 1299 l 638 1100 l 575 1057 l 413 1219 l 250 1057 l 190 1100 l 344 1299 "},"Ș":{"ha":833,"x_min":0,"x_max":0,"o":"m 414 -17 b 63 154 240 -17 135 54 l 147 224 b 418 83 222 129 301 83 b 635 268 558 83 635 151 b 454 435 635 363 586 413 l 346 453 b 96 717 156 485 96 594 b 419 986 96 894 222 986 b 744 838 574 986 679 931 l 663 767 b 418 886 608 838 539 886 b 214 719 288 886 214 829 b 396 554 214 633 258 578 l 500 536 b 753 271 690 503 753 397 b 414 -17 753 92 629 -17 m 340 -86 l 492 -86 l 386 -349 l 301 -349 "},"ẞ":{"ha":833,"x_min":0,"x_max":0,"o":"m 88 969 l 744 969 l 744 856 l 510 563 l 510 557 b 806 271 693 554 806 453 b 514 -17 806 90 693 -17 b 263 101 408 -17 321 21 l 343 169 b 518 81 386 113 447 81 b 682 246 618 81 682 144 l 682 296 b 517 461 682 397 618 461 l 386 461 l 386 568 l 626 868 l 204 868 l 204 0 l 88 0 "},"Ŧ":{"ha":833,"x_min":0,"x_max":0,"o":"m 475 467 l 475 0 l 358 0 l 358 467 l 118 467 l 118 556 l 358 556 l 358 868 l 35 868 l 35 969 l 799 969 l 799 868 l 475 868 l 475 556 l 715 556 l 715 467 "},"Ť":{"ha":833,"x_min":0,"x_max":0,"o":"m 475 868 l 475 0 l 358 0 l 358 868 l 35 868 l 35 969 l 799 969 l 799 868 m 347 1068 l 193 1267 l 256 1310 l 418 1147 l 581 1310 l 640 1267 l 486 1068 "},"Ț":{"ha":833,"x_min":0,"x_max":0,"o":"m 475 868 l 475 0 l 358 0 l 358 868 l 35 868 l 35 969 l 799 969 l 799 868 m 344 -86 l 496 -86 l 390 -349 l 306 -349 "},"Ţ":{"ha":833,"x_min":0,"x_max":0,"o":"m 433 -287 b 296 -231 358 -287 315 -257 l 349 -174 b 433 -212 365 -194 393 -212 b 494 -169 468 -212 494 -199 b 400 -112 494 -144 478 -124 l 361 -107 l 382 0 l 358 0 l 358 868 l 35 868 l 35 969 l 799 969 l 799 868 l 475 868 l 475 0 l 451 0 l 435 -85 l 439 -89 b 493 -81 457 -83 476 -81 b 588 -172 547 -81 588 -112 b 433 -287 588 -251 515 -287 "},"Þ":{"ha":833,"x_min":0,"x_max":0,"o":"m 125 0 l 125 969 l 242 969 l 242 768 l 478 768 b 754 492 657 768 754 661 b 478 215 754 322 657 215 l 242 215 l 242 0 m 242 317 l 478 317 b 633 456 575 317 633 367 l 633 528 b 478 667 633 617 575 667 l 242 667 "},"Ú":{"ha":833,"x_min":0,"x_max":0,"o":"m 228 969 l 228 388 b 417 85 228 200 235 85 b 606 388 599 85 606 200 l 606 969 l 722 969 l 722 415 b 417 -17 722 128 681 -17 b 111 415 153 -17 111 128 l 111 969 m 426 1049 l 354 1082 l 472 1318 l 574 1269 "},"Ŭ":{"ha":833,"x_min":0,"x_max":0,"o":"m 228 969 l 228 388 b 417 85 228 200 235 85 b 606 388 599 85 606 200 l 606 969 l 722 969 l 722 415 b 417 -17 722 128 681 -17 b 111 415 153 -17 111 128 l 111 969 m 417 1063 b 193 1272 268 1063 219 1188 l 264 1303 l 293 1256 b 417 1153 336 1186 356 1153 b 540 1256 478 1153 497 1186 l 569 1303 l 640 1272 b 417 1063 614 1188 565 1063 "},"Ǔ":{"ha":833,"x_min":0,"x_max":0,"o":"m 228 969 l 228 388 b 417 85 228 200 235 85 b 606 388 599 85 606 200 l 606 969 l 722 969 l 722 415 b 417 -17 722 128 681 -17 b 111 415 153 -17 111 128 l 111 969 m 347 1068 l 193 1267 l 256 1310 l 418 1147 l 581 1310 l 640 1267 l 486 1068 "},"Û":{"ha":833,"x_min":0,"x_max":0,"o":"m 228 969 l 228 388 b 417 85 228 200 235 85 b 606 388 599 85 606 200 l 606 969 l 722 969 l 722 415 b 417 -17 722 128 681 -17 b 111 415 153 -17 111 128 l 111 969 m 486 1299 l 640 1100 l 578 1057 l 415 1219 l 253 1057 l 193 1100 l 347 1299 "},"Ü":{"ha":833,"x_min":0,"x_max":0,"o":"m 228 969 l 228 388 b 417 85 228 200 235 85 b 606 388 599 85 606 200 l 606 969 l 722 969 l 722 415 b 417 -17 722 128 681 -17 b 111 415 153 -17 111 128 l 111 969 m 288 1094 b 208 1158 231 1094 208 1122 l 208 1178 b 288 1242 208 1214 231 1242 b 367 1178 344 1242 367 1214 l 367 1158 b 288 1094 367 1122 344 1094 m 546 1094 b 467 1158 489 1094 467 1122 l 467 1178 b 546 1242 467 1214 489 1242 b 625 1178 603 1242 625 1214 l 625 1158 b 546 1094 625 1122 603 1094 "},"Ụ":{"ha":833,"x_min":0,"x_max":0,"o":"m 228 969 l 228 388 b 417 85 228 200 235 85 b 606 388 599 85 606 200 l 606 969 l 722 969 l 722 415 b 417 -17 722 128 681 -17 b 111 415 153 -17 111 128 l 111 969 m 417 -239 b 338 -175 360 -239 338 -211 l 338 -156 b 417 -92 338 -119 360 -92 b 496 -156 474 -92 496 -119 l 496 -175 b 417 -239 496 -211 474 -239 "},"Ù":{"ha":833,"x_min":0,"x_max":0,"o":"m 228 969 l 228 388 b 417 85 228 200 235 85 b 606 388 599 85 606 200 l 606 969 l 722 969 l 722 415 b 417 -17 722 128 681 -17 b 111 415 153 -17 111 128 l 111 969 m 260 1269 l 361 1318 l 479 1082 l 407 1049 "},"Ủ":{"ha":833,"x_min":0,"x_max":0,"o":"m 228 969 l 228 388 b 417 85 228 200 235 85 b 606 388 599 85 606 200 l 606 969 l 722 969 l 722 415 b 417 -17 722 128 681 -17 b 111 415 153 -17 111 128 l 111 969 m 300 1299 l 451 1299 b 549 1222 522 1299 549 1264 b 481 1079 549 1182 524 1133 l 447 1038 l 383 1069 l 464 1214 l 300 1214 "},"Ű":{"ha":833,"x_min":0,"x_max":0,"o":"m 228 969 l 228 388 b 417 85 228 200 235 85 b 606 388 599 85 606 200 l 606 969 l 722 969 l 722 415 b 417 -17 722 128 681 -17 b 111 415 153 -17 111 128 l 111 969 m 315 1050 l 249 1081 l 367 1317 l 463 1271 m 538 1050 l 471 1081 l 589 1317 l 685 1271 "},"Ū":{"ha":833,"x_min":0,"x_max":0,"o":"m 228 969 l 228 388 b 417 85 228 200 235 85 b 606 388 599 85 606 200 l 606 969 l 722 969 l 722 415 b 417 -17 722 128 681 -17 b 111 415 153 -17 111 128 l 111 969 m 222 1215 l 611 1215 l 611 1121 l 222 1121 "},"Ų":{"ha":833,"x_min":0,"x_max":0,"o":"m 228 969 l 228 388 b 417 85 228 200 235 85 b 606 388 599 85 606 200 l 606 969 l 722 969 l 722 415 b 574 0 722 203 708 99 b 417 -161 513 -44 417 -100 b 475 -210 417 -194 444 -210 b 547 -174 506 -210 529 -196 l 603 -231 b 474 -287 585 -261 543 -287 b 322 -178 389 -287 322 -249 b 482 -15 322 -114 378 -62 l 479 -10 b 410 -17 457 -15 435 -17 b 111 415 153 -17 111 132 l 111 969 "},"Ů":{"ha":833,"x_min":0,"x_max":0,"o":"m 228 969 l 228 388 b 417 85 228 200 235 85 b 606 388 599 85 606 200 l 606 969 l 722 969 l 722 415 b 417 -17 722 128 681 -17 b 111 415 153 -17 111 128 l 111 969 m 417 1036 b 256 1196 326 1036 256 1104 b 417 1356 256 1288 326 1356 b 578 1196 507 1356 578 1288 b 417 1036 578 1104 507 1036 m 417 1104 b 497 1181 467 1104 497 1132 l 497 1211 b 417 1288 497 1260 467 1288 b 336 1211 367 1288 336 1260 l 336 1181 b 417 1104 336 1132 367 1104 "},"Ũ":{"ha":833,"x_min":0,"x_max":0,"o":"m 228 969 l 228 388 b 417 85 228 200 235 85 b 606 388 599 85 606 200 l 606 969 l 722 969 l 722 415 b 417 -17 722 128 681 -17 b 111 415 153 -17 111 128 l 111 969 m 518 1086 b 407 1122 469 1086 436 1107 b 310 1156 363 1146 333 1156 b 229 1118 279 1156 257 1142 l 183 1174 b 315 1247 208 1211 251 1247 b 426 1211 364 1247 397 1226 b 524 1178 471 1188 500 1178 b 604 1215 554 1178 576 1192 l 650 1160 b 518 1086 625 1122 582 1086 "},"Ư":{"ha":833,"x_min":0,"x_max":0,"o":"m 228 969 l 228 388 b 417 85 228 200 235 85 b 606 388 599 85 606 200 l 606 969 l 735 969 l 735 1125 l 833 1125 l 833 983 b 746 896 833 935 815 896 l 722 896 l 722 415 b 417 -17 722 128 681 -17 b 111 415 153 -17 111 128 l 111 969 "},"Ứ":{"ha":833,"x_min":0,"x_max":0,"o":"m 228 969 l 228 388 b 417 85 228 200 235 85 b 606 388 599 85 606 200 l 606 969 l 735 969 l 735 1125 l 833 1125 l 833 983 b 746 896 833 935 815 896 l 722 896 l 722 415 b 417 -17 722 128 681 -17 b 111 415 153 -17 111 128 l 111 969 m 426 1049 l 354 1082 l 472 1318 l 574 1269 "},"Ự":{"ha":833,"x_min":0,"x_max":0,"o":"m 228 969 l 228 388 b 417 85 228 200 235 85 b 606 388 599 85 606 200 l 606 969 l 735 969 l 735 1125 l 833 1125 l 833 983 b 746 896 833 935 815 896 l 722 896 l 722 415 b 417 -17 722 128 681 -17 b 111 415 153 -17 111 128 l 111 969 m 417 -239 b 338 -175 360 -239 338 -211 l 338 -156 b 417 -92 338 -119 360 -92 b 496 -156 474 -92 496 -119 l 496 -175 b 417 -239 496 -211 474 -239 "},"Ừ":{"ha":833,"x_min":0,"x_max":0,"o":"m 228 969 l 228 388 b 417 85 228 200 235 85 b 606 388 599 85 606 200 l 606 969 l 735 969 l 735 1125 l 833 1125 l 833 983 b 746 896 833 935 815 896 l 722 896 l 722 415 b 417 -17 722 128 681 -17 b 111 415 153 -17 111 128 l 111 969 m 260 1269 l 361 1318 l 479 1082 l 407 1049 "},"Ử":{"ha":833,"x_min":0,"x_max":0,"o":"m 228 969 l 228 388 b 417 85 228 200 235 85 b 606 388 599 85 606 200 l 606 969 l 735 969 l 735 1125 l 833 1125 l 833 983 b 746 896 833 935 815 896 l 722 896 l 722 415 b 417 -17 722 128 681 -17 b 111 415 153 -17 111 128 l 111 969 m 300 1299 l 451 1299 b 549 1222 522 1299 549 1264 b 481 1079 549 1182 524 1133 l 447 1038 l 383 1069 l 464 1214 l 300 1214 "},"Ữ":{"ha":833,"x_min":0,"x_max":0,"o":"m 228 969 l 228 388 b 417 85 228 200 235 85 b 606 388 599 85 606 200 l 606 969 l 735 969 l 735 1125 l 833 1125 l 833 983 b 746 896 833 935 815 896 l 722 896 l 722 415 b 417 -17 722 128 681 -17 b 111 415 153 -17 111 128 l 111 969 m 504 1092 b 407 1122 461 1092 432 1110 b 328 1150 372 1140 353 1150 b 249 1113 299 1150 275 1136 l 203 1168 b 329 1242 228 1206 269 1242 b 426 1211 372 1242 401 1224 b 506 1183 461 1193 481 1183 b 585 1221 535 1183 558 1197 l 631 1165 b 504 1092 606 1128 564 1092 "},"Ǖ":{"ha":833,"x_min":0,"x_max":0,"o":"m 228 969 l 228 388 b 417 85 228 200 235 85 b 606 388 599 85 606 200 l 606 969 l 722 969 l 722 415 b 417 -17 722 128 681 -17 b 111 415 153 -17 111 128 l 111 969 m 222 1382 l 611 1382 l 611 1288 l 222 1288 m 279 1065 b 200 1129 222 1065 200 1093 l 200 1149 b 279 1213 200 1185 222 1213 b 358 1149 336 1213 358 1185 l 358 1129 b 279 1065 358 1093 336 1065 m 554 1065 b 475 1129 497 1065 475 1093 l 475 1149 b 554 1213 475 1185 497 1213 b 633 1149 611 1213 633 1185 l 633 1129 b 554 1065 633 1093 611 1065 "},"Ǘ":{"ha":833,"x_min":0,"x_max":0,"o":"m 228 969 l 228 388 b 417 85 228 200 235 85 b 606 388 599 85 606 200 l 606 969 l 722 969 l 722 415 b 417 -17 722 128 681 -17 b 111 415 153 -17 111 128 l 111 969 m 433 1225 l 365 1257 l 483 1493 l 581 1446 m 279 1065 b 200 1129 222 1065 200 1093 l 200 1149 b 279 1213 200 1185 222 1213 b 358 1149 336 1213 358 1185 l 358 1129 b 279 1065 358 1093 336 1065 m 554 1065 b 475 1129 497 1065 475 1093 l 475 1149 b 554 1213 475 1185 497 1213 b 633 1149 611 1213 633 1185 l 633 1129 b 554 1065 633 1093 611 1065 "},"Ǜ":{"ha":833,"x_min":0,"x_max":0,"o":"m 228 969 l 228 388 b 417 85 228 200 235 85 b 606 388 599 85 606 200 l 606 969 l 722 969 l 722 415 b 417 -17 722 128 681 -17 b 111 415 153 -17 111 128 l 111 969 m 253 1446 l 350 1493 l 468 1257 l 400 1225 m 279 1065 b 200 1129 222 1065 200 1093 l 200 1149 b 279 1213 200 1185 222 1213 b 358 1149 336 1213 358 1185 l 358 1129 b 279 1065 358 1093 336 1065 m 554 1065 b 475 1129 497 1065 475 1093 l 475 1149 b 554 1213 475 1185 497 1213 b 633 1149 611 1213 633 1185 l 633 1129 b 554 1065 633 1093 611 1065 "},"Ǚ":{"ha":833,"x_min":0,"x_max":0,"o":"m 228 969 l 228 388 b 417 85 228 200 235 85 b 606 388 599 85 606 200 l 606 969 l 722 969 l 722 415 b 417 -17 722 128 681 -17 b 111 415 153 -17 111 128 l 111 969 m 356 1249 l 194 1449 l 256 1490 l 418 1331 l 581 1490 l 639 1449 l 478 1249 m 279 1065 b 200 1129 222 1065 200 1093 l 200 1149 b 279 1213 200 1185 222 1213 b 358 1149 336 1213 358 1185 l 358 1129 b 279 1065 358 1093 336 1065 m 554 1065 b 475 1129 497 1065 475 1093 l 475 1149 b 554 1213 475 1185 497 1213 b 633 1149 611 1213 633 1185 l 633 1129 b 554 1065 633 1093 611 1065 "},"Ẃ":{"ha":833,"x_min":0,"x_max":0,"o":"m 125 0 l 49 969 l 153 969 l 193 414 l 214 121 l 225 121 l 353 717 l 483 717 l 611 121 l 622 121 l 643 414 l 683 969 l 785 969 l 708 0 l 540 0 l 422 579 l 411 579 l 293 0 m 426 1049 l 354 1082 l 472 1318 l 574 1269 "},"Ŵ":{"ha":833,"x_min":0,"x_max":0,"o":"m 125 0 l 49 969 l 153 969 l 193 414 l 214 121 l 225 121 l 353 717 l 483 717 l 611 121 l 622 121 l 643 414 l 683 969 l 785 969 l 708 0 l 540 0 l 422 579 l 411 579 l 293 0 m 486 1299 l 640 1100 l 578 1057 l 415 1219 l 253 1057 l 193 1100 l 347 1299 "},"Ẅ":{"ha":833,"x_min":0,"x_max":0,"o":"m 125 0 l 49 969 l 153 969 l 193 414 l 214 121 l 225 121 l 353 717 l 483 717 l 611 121 l 622 121 l 643 414 l 683 969 l 785 969 l 708 0 l 540 0 l 422 579 l 411 579 l 293 0 m 288 1094 b 208 1158 231 1094 208 1122 l 208 1178 b 288 1242 208 1214 231 1242 b 367 1178 344 1242 367 1214 l 367 1158 b 288 1094 367 1122 344 1094 m 546 1094 b 467 1158 489 1094 467 1122 l 467 1178 b 546 1242 467 1214 489 1242 b 625 1178 603 1242 625 1214 l 625 1158 b 546 1094 625 1122 603 1094 "},"Ẁ":{"ha":833,"x_min":0,"x_max":0,"o":"m 125 0 l 49 969 l 153 969 l 193 414 l 214 121 l 225 121 l 353 717 l 483 717 l 611 121 l 622 121 l 643 414 l 683 969 l 785 969 l 708 0 l 540 0 l 422 579 l 411 579 l 293 0 m 260 1269 l 361 1318 l 479 1082 l 407 1049 "},"Ý":{"ha":833,"x_min":0,"x_max":0,"o":"m 358 0 l 358 381 l 24 969 l 157 969 l 296 717 l 414 496 l 419 496 l 540 717 l 679 969 l 810 969 l 475 381 l 475 0 m 426 1049 l 354 1082 l 472 1318 l 574 1269 "},"Ŷ":{"ha":833,"x_min":0,"x_max":0,"o":"m 358 0 l 358 381 l 24 969 l 157 969 l 296 717 l 414 496 l 419 496 l 540 717 l 679 969 l 810 969 l 475 381 l 475 0 m 486 1299 l 640 1100 l 578 1057 l 415 1219 l 253 1057 l 193 1100 l 347 1299 "},"Ỵ":{"ha":833,"x_min":0,"x_max":0,"o":"m 358 0 l 358 381 l 24 969 l 157 969 l 296 717 l 414 496 l 419 496 l 540 717 l 679 969 l 810 969 l 475 381 l 475 0 m 417 -239 b 338 -175 360 -239 338 -211 l 338 -156 b 417 -92 338 -119 360 -92 b 496 -156 474 -92 496 -119 l 496 -175 b 417 -239 496 -211 474 -239 "},"Ÿ":{"ha":833,"x_min":0,"x_max":0,"o":"m 358 0 l 358 381 l 24 969 l 157 969 l 296 717 l 414 496 l 419 496 l 540 717 l 679 969 l 810 969 l 475 381 l 475 0 m 288 1094 b 208 1158 231 1094 208 1122 l 208 1178 b 288 1242 208 1214 231 1242 b 367 1178 344 1242 367 1214 l 367 1158 b 288 1094 367 1122 344 1094 m 546 1094 b 467 1158 489 1094 467 1122 l 467 1178 b 546 1242 467 1214 489 1242 b 625 1178 603 1242 625 1214 l 625 1158 b 546 1094 625 1122 603 1094 "},"Ỳ":{"ha":833,"x_min":0,"x_max":0,"o":"m 358 0 l 358 381 l 24 969 l 157 969 l 296 717 l 414 496 l 419 496 l 540 717 l 679 969 l 810 969 l 475 381 l 475 0 m 260 1269 l 361 1318 l 479 1082 l 407 1049 "},"Ỷ":{"ha":833,"x_min":0,"x_max":0,"o":"m 358 0 l 358 381 l 24 969 l 157 969 l 296 717 l 414 496 l 419 496 l 540 717 l 679 969 l 810 969 l 475 381 l 475 0 m 300 1299 l 451 1299 b 549 1222 522 1299 549 1264 b 481 1079 549 1182 524 1133 l 447 1038 l 383 1069 l 464 1214 l 300 1214 "},"Ỹ":{"ha":833,"x_min":0,"x_max":0,"o":"m 358 0 l 358 381 l 24 969 l 157 969 l 296 717 l 414 496 l 419 496 l 540 717 l 679 969 l 810 969 l 475 381 l 475 0 m 518 1086 b 407 1122 469 1086 436 1107 b 310 1156 363 1146 333 1156 b 229 1118 279 1156 257 1142 l 183 1174 b 315 1247 208 1211 251 1247 b 426 1211 364 1247 397 1226 b 524 1178 471 1188 500 1178 b 604 1215 554 1178 576 1192 l 650 1160 b 518 1086 625 1122 582 1086 "},"Ź":{"ha":833,"x_min":0,"x_max":0,"o":"m 767 0 l 67 0 l 67 104 l 615 868 l 90 868 l 90 969 l 743 969 l 743 865 l 193 101 l 767 101 m 426 1049 l 354 1082 l 472 1318 l 574 1269 "},"Ž":{"ha":833,"x_min":0,"x_max":0,"o":"m 767 0 l 67 0 l 67 104 l 615 868 l 90 868 l 90 969 l 743 969 l 743 865 l 193 101 l 767 101 m 347 1068 l 193 1267 l 256 1310 l 418 1147 l 581 1310 l 640 1267 l 486 1068 "},"Ż":{"ha":833,"x_min":0,"x_max":0,"o":"m 767 0 l 67 0 l 67 104 l 615 868 l 90 868 l 90 969 l 743 969 l 743 865 l 193 101 l 767 101 m 417 1086 b 329 1157 353 1086 329 1117 l 329 1179 b 417 1250 329 1219 353 1250 b 504 1179 481 1250 504 1219 l 504 1157 b 417 1086 504 1117 481 1086 "},"µ":{"ha":833,"x_min":0,"x_max":0,"o":"m 136 -278 l 136 717 l 247 717 l 247 276 b 413 82 247 146 304 82 b 586 219 501 82 586 125 l 586 717 l 697 717 l 697 0 l 586 0 l 586 117 l 581 117 b 386 -17 549 43 497 -17 b 243 56 315 -17 269 7 l 238 56 l 247 -61 l 247 -278 "},"∆":{"ha":833,"x_min":0,"x_max":0,"o":"m 64 104 l 340 969 l 494 969 l 769 104 l 769 0 l 64 0 m 422 847 l 410 847 l 182 101 l 649 101 "},"∏":{"ha":833,"x_min":0,"x_max":0,"o":"m 108 969 l 725 969 l 725 0 l 608 0 l 608 868 l 225 868 l 225 0 l 108 0 "},"∑":{"ha":833,"x_min":0,"x_max":0,"o":"m 738 -278 l 88 -278 l 88 -174 l 458 343 l 458 349 l 88 865 l 88 969 l 738 969 l 738 868 l 213 868 l 561 383 l 561 308 l 213 -176 l 738 -176 "},"Ω":{"ha":833,"x_min":0,"x_max":0,"o":"m 75 94 l 265 94 l 265 108 b 89 546 144 179 89 339 b 417 986 89 819 186 986 b 744 546 647 986 744 819 b 568 108 744 339 689 179 l 568 94 l 758 94 l 758 0 l 469 0 l 469 144 b 621 460 560 176 621 318 l 621 608 b 417 886 621 783 564 886 b 213 608 271 886 213 783 l 213 460 b 364 144 213 318 274 176 l 364 0 l 75 0 "},"π":{"ha":833,"x_min":0,"x_max":0,"o":"m 156 622 l 28 622 l 28 717 l 785 717 l 785 622 l 657 622 l 657 94 l 785 94 l 785 0 l 704 0 b 546 164 596 0 546 68 l 546 622 l 267 622 l 267 0 l 156 0 "},"а":{"ha":833,"x_min":0,"x_max":0,"o":"m 688 0 b 560 117 601 0 568 50 l 553 117 b 338 -17 522 35 454 -17 b 92 201 188 -17 92 67 b 400 410 92 333 185 410 l 553 410 l 553 481 b 382 639 553 585 490 639 b 190 533 286 639 228 599 l 115 589 b 389 733 151 664 243 733 b 664 492 557 733 664 643 l 664 97 l 764 97 l 764 0 m 357 76 b 553 208 471 76 553 135 l 553 326 l 400 326 b 208 218 268 326 208 288 l 208 189 b 357 76 208 115 265 76 "},"б":{"ha":833,"x_min":0,"x_max":0,"o":"m 418 -17 b 96 424 226 -17 96 121 b 467 1025 96 846 208 1008 l 686 1039 l 686 929 l 456 914 b 213 571 297 903 235 826 l 219 571 b 433 717 258 663 328 717 b 742 349 615 717 742 582 b 418 -17 742 132 610 -17 m 418 79 b 624 300 538 79 624 157 l 624 388 b 421 621 624 542 540 621 b 214 440 281 621 214 546 l 214 300 b 418 79 214 156 297 79 "},"в":{"ha":833,"x_min":0,"x_max":0,"o":"m 149 717 l 514 717 b 701 535 631 717 701 644 b 561 383 701 446 653 394 l 561 378 b 726 214 672 369 726 303 b 518 0 726 99 653 0 l 149 0 m 490 89 b 608 193 565 89 608 128 l 608 225 b 499 328 608 290 565 328 l 260 328 l 260 89 m 485 415 b 583 506 546 415 583 449 l 583 536 b 485 628 583 593 546 628 l 260 628 l 260 415 "},"г":{"ha":833,"x_min":0,"x_max":0,"o":"m 188 717 l 701 717 l 701 622 l 299 622 l 299 0 l 188 0 "},"д":{"ha":833,"x_min":0,"x_max":0,"o":"m 31 94 l 111 94 b 207 489 169 189 207 315 l 207 717 l 669 717 l 669 94 l 788 94 l 788 -194 l 686 -194 l 686 0 l 132 0 l 132 -194 l 31 -194 m 558 94 l 558 622 l 315 622 l 315 483 b 232 94 315 311 288 194 "},"е":{"ha":833,"x_min":0,"x_max":0,"o":"m 429 -17 b 93 357 224 -17 93 131 b 422 733 93 586 228 733 b 740 383 615 733 740 586 l 740 331 l 210 331 l 210 297 b 429 79 210 171 294 79 b 635 204 525 79 597 126 l 717 149 b 429 -17 674 53 571 -17 m 422 642 b 210 424 300 642 210 549 l 210 414 l 621 414 l 621 429 b 422 642 621 556 540 642 "},"ж":{"ha":833,"x_min":0,"x_max":0,"o":"m 365 324 l 243 324 l 153 0 l 42 0 l 121 282 b 199 367 136 335 160 361 l 199 372 b 126 454 163 381 140 406 l 50 717 l 156 717 l 243 415 l 365 415 l 365 717 l 468 717 l 468 415 l 590 415 l 679 717 l 783 717 l 706 454 b 635 372 690 406 671 381 l 635 367 b 714 282 674 361 700 335 l 792 0 l 679 0 l 590 324 l 468 324 l 468 0 l 365 0 "},"з":{"ha":833,"x_min":0,"x_max":0,"o":"m 388 -17 b 85 122 240 -17 146 33 l 167 189 b 388 79 211 118 282 79 b 576 193 519 79 576 126 l 576 213 b 439 324 576 285 528 324 l 246 324 l 246 417 l 425 417 b 561 518 514 417 561 453 l 561 535 b 390 638 561 596 515 638 b 174 532 279 638 215 599 l 96 585 b 396 733 160 679 247 733 b 679 540 586 733 679 660 b 547 381 679 451 631 401 l 547 375 b 694 208 643 361 694 299 b 388 -17 694 71 582 -17 "},"и":{"ha":833,"x_min":0,"x_max":0,"o":"m 132 717 l 243 717 l 243 351 l 232 168 l 238 168 l 597 717 l 701 717 l 701 0 l 590 0 l 590 365 l 601 549 l 596 549 l 236 0 l 132 0 "},"й":{"ha":833,"x_min":0,"x_max":0,"o":"m 132 717 l 243 717 l 243 351 l 232 168 l 238 168 l 597 717 l 701 717 l 701 0 l 590 0 l 590 365 l 601 549 l 596 549 l 236 0 l 132 0 m 411 826 b 218 956 317 826 263 867 l 179 1035 l 279 1067 l 335 919 b 411 911 354 913 389 911 b 488 919 433 911 468 913 l 543 1067 l 643 1035 l 604 956 b 411 826 560 867 506 826 "},"к":{"ha":833,"x_min":0,"x_max":0,"o":"m 149 717 l 260 717 l 260 417 l 413 417 l 606 717 l 721 717 l 546 444 b 461 372 514 396 494 381 l 461 367 b 549 297 497 361 521 344 l 665 94 l 746 94 l 746 0 l 665 0 b 550 83 618 0 585 24 l 413 322 l 260 322 l 260 0 l 149 0 "},"л":{"ha":833,"x_min":0,"x_max":0,"o":"m 36 94 l 125 94 b 210 513 181 167 210 279 l 210 717 l 686 717 l 686 0 l 575 0 l 575 622 l 318 622 l 318 510 b 214 47 318 251 276 110 b 79 0 179 13 138 0 l 36 0 "},"м":{"ha":833,"x_min":0,"x_max":0,"o":"m 100 717 l 253 717 l 418 351 l 426 351 l 592 717 l 733 717 l 733 0 l 626 0 l 626 449 l 631 576 l 622 576 l 417 122 l 211 576 l 203 576 l 207 449 l 207 0 l 100 0 "},"н":{"ha":833,"x_min":0,"x_max":0,"o":"m 132 717 l 243 717 l 243 417 l 590 417 l 590 717 l 701 717 l 701 0 l 590 0 l 590 322 l 243 322 l 243 0 l 132 0 "},"о":{"ha":833,"x_min":0,"x_max":0,"o":"m 417 -17 b 92 358 215 -17 92 131 b 417 733 92 586 215 733 b 742 358 618 733 742 586 b 417 -17 742 131 618 -17 m 417 79 b 624 307 540 79 624 153 l 624 410 b 417 638 624 564 540 638 b 210 410 293 638 210 564 l 210 307 b 417 79 210 153 293 79 "},"п":{"ha":833,"x_min":0,"x_max":0,"o":"m 135 717 l 699 717 l 699 0 l 588 0 l 588 622 l 246 622 l 246 0 l 135 0 "},"р":{"ha":833,"x_min":0,"x_max":0,"o":"m 132 717 l 243 717 l 243 600 l 249 600 b 469 733 294 688 369 733 b 750 358 644 733 750 593 b 469 -17 750 124 644 -17 b 249 117 369 -17 294 29 l 243 117 l 243 -278 l 132 -278 m 426 82 b 631 297 556 82 631 168 l 631 419 b 426 635 631 549 556 635 b 243 488 328 635 243 583 l 243 229 b 426 82 243 133 328 82 "},"с":{"ha":833,"x_min":0,"x_max":0,"o":"m 442 -17 b 117 358 236 -17 117 132 b 440 733 117 586 238 733 b 706 568 579 733 665 665 l 617 521 b 440 638 590 594 529 638 b 236 419 310 638 236 546 l 236 297 b 443 79 236 171 308 79 b 638 204 539 79 601 126 l 717 150 b 442 -17 675 54 585 -17 "},"т":{"ha":833,"x_min":0,"x_max":0,"o":"m 361 622 l 97 622 l 97 717 l 736 717 l 736 622 l 472 622 l 472 0 l 361 0 "},"у":{"ha":833,"x_min":0,"x_max":0,"o":"m 649 717 l 760 717 l 404 -157 b 221 -278 371 -239 329 -278 l 115 -278 l 115 -183 l 282 -183 l 363 14 l 74 717 l 188 717 l 308 417 l 415 144 l 421 144 l 528 417 "},"ф":{"ha":833,"x_min":0,"x_max":0,"o":"m 269 76 b 365 182 331 76 365 113 l 365 535 b 269 640 365 604 331 640 b 167 421 203 640 167 594 l 167 296 b 269 76 167 122 203 76 m 365 74 l 361 74 b 235 -17 331 10 288 -17 b 61 358 122 -17 61 67 b 235 733 61 650 122 733 b 361 643 288 733 331 707 l 365 643 l 365 986 l 468 986 l 468 643 l 472 643 b 599 733 503 707 546 733 b 772 358 711 733 772 650 b 599 -17 772 67 711 -17 b 472 74 546 -17 503 10 l 468 74 l 468 -278 l 365 -278 m 564 76 b 667 296 631 76 667 122 l 667 421 b 564 640 667 594 631 640 b 468 535 503 640 468 604 l 468 182 b 564 76 468 113 503 76 "},"х":{"ha":833,"x_min":0,"x_max":0,"o":"m 85 0 l 351 364 l 92 717 l 225 717 l 333 565 l 419 446 l 425 446 l 508 565 l 615 717 l 743 717 l 481 365 l 750 0 l 617 0 l 496 168 l 414 282 l 408 282 l 329 168 l 213 0 "},"ц":{"ha":833,"x_min":0,"x_max":0,"o":"m 690 0 l 117 0 l 117 717 l 228 717 l 228 94 l 563 94 l 563 717 l 674 717 l 674 94 l 792 94 l 792 -194 l 690 -194 "},"ч":{"ha":833,"x_min":0,"x_max":0,"o":"m 569 329 l 563 329 b 349 243 511 272 450 243 b 111 464 194 243 111 317 l 111 717 l 222 717 l 222 474 b 382 343 222 386 269 343 b 569 431 492 343 569 372 l 569 717 l 681 717 l 681 0 l 569 0 "},"ш":{"ha":833,"x_min":0,"x_max":0,"o":"m 75 717 l 178 717 l 178 92 l 365 92 l 365 717 l 468 717 l 468 92 l 656 92 l 656 717 l 758 717 l 758 0 l 75 0 "},"щ":{"ha":833,"x_min":0,"x_max":0,"o":"m 736 0 l 75 0 l 75 717 l 178 717 l 178 92 l 365 92 l 365 717 l 468 717 l 468 92 l 656 92 l 656 717 l 758 717 l 758 94 l 833 94 l 833 -194 l 736 -194 "},"ъ":{"ha":833,"x_min":0,"x_max":0,"o":"m 224 622 l 15 622 l 15 717 l 335 717 l 335 457 l 538 457 b 774 228 682 457 774 369 b 539 0 774 85 685 0 l 224 0 m 522 94 b 656 200 606 94 656 126 l 656 258 b 522 363 656 332 606 363 l 335 363 l 335 94 "},"ы":{"ha":833,"x_min":0,"x_max":0,"o":"m 75 717 l 186 717 l 186 457 l 307 457 b 543 228 451 457 543 369 b 308 0 543 85 454 0 l 75 0 m 292 94 b 425 200 375 94 425 126 l 425 258 b 292 363 425 332 375 363 l 186 363 l 186 94 m 647 717 l 758 717 l 758 0 l 647 0 "},"ь":{"ha":833,"x_min":0,"x_max":0,"o":"m 154 717 l 265 717 l 265 457 l 488 457 b 724 228 632 457 724 369 b 489 0 724 85 635 0 l 154 0 m 472 94 b 606 200 556 94 606 126 l 606 258 b 472 363 606 332 556 363 l 265 363 l 265 94 "},"э":{"ha":833,"x_min":0,"x_max":0,"o":"m 286 408 l 597 408 l 597 419 b 390 638 597 546 525 638 b 203 521 293 638 236 596 l 117 567 b 392 733 158 663 242 733 b 717 358 597 733 717 585 b 393 -17 717 131 596 -17 b 117 147 249 -17 158 56 l 199 204 b 393 79 235 128 294 79 b 597 297 524 79 597 171 l 597 315 l 286 315 "},"ю":{"ha":833,"x_min":0,"x_max":0,"o":"m 540 -17 b 311 325 399 -17 318 50 l 178 325 l 178 0 l 75 0 l 75 717 l 178 717 l 178 413 l 313 413 b 540 733 322 669 401 733 b 769 358 688 733 769 661 b 540 -17 769 56 688 -17 m 540 75 b 663 293 621 75 663 118 l 663 424 b 540 642 663 599 621 642 b 418 424 460 642 418 599 l 418 293 b 540 75 418 118 460 75 "},"я":{"ha":833,"x_min":0,"x_max":0,"o":"m 94 94 l 175 94 l 238 213 b 321 282 260 254 285 276 l 321 288 b 124 496 206 293 124 363 b 358 717 124 632 213 717 l 681 717 l 681 0 l 569 0 l 569 276 l 396 276 l 297 92 b 171 0 264 31 229 0 l 94 0 m 569 622 l 375 622 b 242 517 292 622 242 590 l 242 474 b 375 368 242 400 292 368 l 569 368 "},"А":{"ha":833,"x_min":0,"x_max":0,"o":"m 668 0 l 586 276 l 246 276 l 164 0 l 43 0 l 340 969 l 494 969 l 792 0 m 422 846 l 410 846 l 274 378 l 558 378 "},"Б":{"ha":833,"x_min":0,"x_max":0,"o":"m 118 969 l 665 969 l 665 868 l 235 868 l 235 581 l 474 581 b 744 290 647 581 744 476 b 474 0 744 104 647 0 l 118 0 m 471 101 b 621 254 563 101 621 150 l 621 326 b 471 479 621 431 563 479 l 235 479 l 235 101 "},"В":{"ha":833,"x_min":0,"x_max":0,"o":"m 122 969 l 451 969 b 718 719 617 969 718 871 b 567 511 718 604 656 539 l 567 507 b 754 279 675 482 754 414 b 493 0 754 122 643 0 l 122 0 m 458 101 b 631 249 565 101 631 150 l 631 306 b 458 453 631 403 565 453 l 239 453 l 239 101 m 439 549 b 596 681 536 549 596 592 l 596 735 b 439 868 596 824 536 868 l 239 868 l 239 549 "},"Г":{"ha":833,"x_min":0,"x_max":0,"o":"m 183 969 l 726 969 l 726 868 l 300 868 l 300 0 l 183 0 "},"Д":{"ha":833,"x_min":0,"x_max":0,"o":"m 19 101 l 103 101 b 229 685 186 221 229 397 l 229 969 l 682 969 l 682 101 l 800 101 l 800 -208 l 693 -208 l 693 0 l 126 0 l 126 -208 l 19 -208 m 565 868 l 343 868 l 343 676 b 236 101 343 382 300 204 l 565 101 "},"Е":{"ha":833,"x_min":0,"x_max":0,"o":"m 125 0 l 125 969 l 722 969 l 722 868 l 242 868 l 242 542 l 706 542 l 706 440 l 242 440 l 242 101 l 722 101 l 722 0 "},"Ж":{"ha":833,"x_min":0,"x_max":0,"o":"m 360 442 l 264 442 l 122 0 l 3 0 l 119 368 b 218 489 149 458 176 481 l 218 496 b 128 610 179 504 150 531 l 25 969 l 139 969 l 264 542 l 360 542 l 360 969 l 474 969 l 474 542 l 569 542 l 696 969 l 808 969 l 704 611 b 615 496 681 531 654 504 l 615 489 b 715 368 657 481 688 457 l 831 0 l 710 0 l 569 442 l 474 442 l 474 0 l 360 0 "},"З":{"ha":833,"x_min":0,"x_max":0,"o":"m 390 -17 b 56 154 232 -17 125 57 l 140 224 b 390 83 210 129 290 83 b 600 260 518 83 600 147 l 600 289 b 400 450 600 383 536 450 l 264 450 l 264 551 l 392 551 b 579 710 518 551 579 604 l 579 739 b 394 886 579 826 517 886 b 178 778 288 886 222 844 l 90 835 b 394 986 157 932 251 986 b 701 731 597 986 701 885 b 517 507 701 596 622 524 l 517 500 b 724 272 631 486 724 418 b 390 -17 724 101 599 -17 "},"И":{"ha":833,"x_min":0,"x_max":0,"o":"m 111 969 l 228 969 l 228 481 l 208 200 l 215 200 l 611 969 l 722 969 l 722 0 l 606 0 l 606 489 l 625 769 l 618 769 l 222 0 l 111 0 "},"Й":{"ha":833,"x_min":0,"x_max":0,"o":"m 111 969 l 228 969 l 228 481 l 208 200 l 215 200 l 611 969 l 722 969 l 722 0 l 606 0 l 606 489 l 625 769 l 618 769 l 222 0 l 111 0 m 417 1063 b 224 1192 322 1063 268 1103 l 185 1271 l 285 1303 l 340 1156 b 417 1147 360 1149 394 1147 b 493 1156 439 1147 474 1149 l 549 1303 l 649 1271 l 610 1192 b 417 1063 565 1103 511 1063 "},"К":{"ha":833,"x_min":0,"x_max":0,"o":"m 111 969 l 228 969 l 228 542 l 399 542 l 604 969 l 728 969 l 543 586 b 453 496 511 521 486 501 l 453 489 b 550 382 494 481 517 458 l 675 101 l 765 101 l 765 0 l 678 0 b 549 103 622 0 581 31 l 399 442 l 228 442 l 228 0 l 111 0 "},"Л":{"ha":833,"x_min":0,"x_max":0,"o":"m 607 868 l 335 868 l 335 693 b 201 56 335 292 286 140 b 50 0 163 17 117 0 l 7 0 l 7 101 l 100 101 b 221 701 186 185 221 317 l 221 969 l 724 969 l 724 0 l 607 0 "},"М":{"ha":833,"x_min":0,"x_max":0,"o":"m 632 486 l 632 793 l 621 793 l 417 294 l 213 793 l 201 793 l 201 486 l 201 0 l 94 0 l 94 969 l 244 969 l 415 542 l 424 542 l 594 969 l 739 969 l 739 0 l 632 0 "},"Н":{"ha":833,"x_min":0,"x_max":0,"o":"m 606 440 l 228 440 l 228 0 l 111 0 l 111 969 l 228 969 l 228 542 l 606 542 l 606 969 l 722 969 l 722 0 l 606 0 "},"О":{"ha":833,"x_min":0,"x_max":0,"o":"m 417 -17 b 78 485 181 -17 78 168 b 417 986 78 801 181 986 b 756 485 653 986 756 801 b 417 -17 756 168 653 -17 m 417 85 b 632 406 571 85 632 211 l 632 564 b 417 885 632 758 571 885 b 201 564 263 885 201 758 l 201 406 b 417 85 201 211 263 85 "},"П":{"ha":833,"x_min":0,"x_max":0,"o":"m 115 969 l 718 969 l 718 0 l 601 0 l 601 868 l 232 868 l 232 0 l 115 0 "},"Р":{"ha":833,"x_min":0,"x_max":0,"o":"m 125 0 l 125 969 l 478 969 b 754 690 657 969 754 865 b 478 411 754 515 657 411 l 242 411 l 242 0 m 242 513 l 475 513 b 631 654 572 513 631 564 l 631 726 b 475 868 631 817 572 868 l 242 868 "},"С":{"ha":833,"x_min":0,"x_max":0,"o":"m 449 -17 b 97 485 213 -17 97 163 b 449 986 97 807 213 986 b 747 774 626 986 700 879 l 647 728 b 449 885 613 814 567 885 b 221 564 294 885 221 758 l 221 406 b 449 85 221 211 294 85 b 647 242 567 85 613 156 l 747 196 b 449 -17 700 90 626 -17 "},"Т":{"ha":833,"x_min":0,"x_max":0,"o":"m 475 868 l 475 0 l 358 0 l 358 868 l 35 868 l 35 969 l 799 969 l 799 868 "},"У":{"ha":833,"x_min":0,"x_max":0,"o":"m 193 101 l 338 101 l 386 226 l 61 969 l 186 969 l 379 514 l 436 358 l 439 358 l 492 513 l 661 969 l 781 969 l 464 133 b 276 0 422 22 382 0 l 193 0 "},"Ф":{"ha":833,"x_min":0,"x_max":0,"o":"m 358 85 b 36 483 131 99 36 269 b 358 882 36 697 131 868 l 358 1007 l 475 1007 l 475 882 b 797 483 703 868 797 697 b 475 85 797 269 703 99 l 475 -40 l 358 -40 m 361 783 b 157 540 215 769 157 674 l 157 426 b 361 183 157 293 215 197 m 472 183 b 676 426 618 197 676 293 l 676 540 b 472 783 676 674 618 769 l 472 183 "},"Х":{"ha":833,"x_min":0,"x_max":0,"o":"m 799 0 l 667 0 l 551 193 l 424 404 l 418 404 l 286 193 l 164 0 l 36 0 l 353 494 l 54 969 l 186 969 l 299 782 l 419 586 l 425 586 l 544 782 l 661 969 l 789 969 l 489 496 "},"Ц":{"ha":833,"x_min":0,"x_max":0,"o":"m 690 0 l 111 0 l 111 969 l 228 969 l 228 101 l 576 101 l 576 969 l 693 969 l 693 101 l 797 101 l 797 -208 l 690 -208 "},"Ч":{"ha":833,"x_min":0,"x_max":0,"o":"m 594 382 l 588 382 b 393 350 538 363 471 350 b 83 694 163 350 83 461 l 83 969 l 200 969 l 200 694 b 397 451 200 517 249 451 b 594 485 481 451 536 463 l 594 969 l 711 969 l 711 0 l 594 0 "},"Ш":{"ha":833,"x_min":0,"x_max":0,"o":"m 67 969 l 181 969 l 181 101 l 360 101 l 360 969 l 474 969 l 474 101 l 653 101 l 653 969 l 767 969 l 767 0 l 67 0 "},"Щ":{"ha":833,"x_min":0,"x_max":0,"o":"m 722 0 l 67 0 l 67 969 l 181 969 l 181 101 l 338 101 l 338 969 l 451 969 l 451 101 l 608 101 l 608 969 l 722 969 l 722 101 l 826 101 l 826 -208 l 722 -208 "},"Ъ":{"ha":833,"x_min":0,"x_max":0,"o":"m 236 868 l 14 868 l 14 969 l 353 969 l 353 581 l 535 581 b 806 290 708 581 806 476 b 535 0 806 104 708 0 l 236 0 m 532 101 b 682 254 624 101 682 150 l 682 326 b 532 479 682 431 624 479 l 353 479 l 353 101 "},"Ы":{"ha":833,"x_min":0,"x_max":0,"o":"m 67 969 l 181 969 l 181 581 l 278 581 b 549 290 451 581 549 476 b 278 0 549 104 451 0 l 67 0 m 278 101 b 428 254 369 101 428 150 l 428 326 b 278 479 428 431 369 479 l 181 479 l 181 101 m 653 969 l 767 969 l 767 0 l 653 0 "},"Ь":{"ha":833,"x_min":0,"x_max":0,"o":"m 128 969 l 244 969 l 244 581 l 482 581 b 753 290 656 581 753 476 b 482 0 753 104 656 0 l 128 0 m 479 101 b 629 254 571 101 629 150 l 629 326 b 479 479 629 431 571 479 l 244 479 l 244 101 "},"Э":{"ha":833,"x_min":0,"x_max":0,"o":"m 385 -17 b 82 196 204 -17 129 90 l 182 242 b 385 85 217 156 264 85 b 617 406 542 85 617 211 l 617 440 l 296 440 l 296 542 l 617 542 l 617 564 b 385 885 617 758 542 885 b 182 728 264 885 217 814 l 82 774 b 385 986 129 879 204 986 b 740 485 624 986 740 807 b 385 -17 740 163 624 -17 "},"Ю":{"ha":833,"x_min":0,"x_max":0,"o":"m 531 -17 b 289 440 358 -17 296 69 l 181 440 l 181 0 l 67 0 l 67 969 l 181 969 l 181 542 l 289 542 b 531 986 296 899 360 986 b 772 485 703 986 772 901 b 531 -17 772 68 703 -17 m 531 85 b 651 364 613 85 651 124 l 651 606 b 531 885 651 846 613 885 b 410 606 449 885 410 846 l 410 364 b 531 85 410 124 449 85 "},"Я":{"ha":833,"x_min":0,"x_max":0,"o":"m 54 101 l 143 101 l 257 339 b 356 428 285 397 311 419 l 356 435 b 103 694 186 443 103 542 b 374 969 103 863 200 969 l 714 969 l 714 0 l 597 0 l 597 417 l 422 417 l 269 99 b 142 0 233 24 194 0 l 54 0 m 597 868 l 376 868 b 226 715 285 868 226 819 l 226 669 b 376 517 226 565 285 517 l 597 517 "},"ӓ":{"ha":833,"x_min":0,"x_max":0,"o":"m 688 0 b 560 117 601 0 568 50 l 553 117 b 338 -17 522 35 454 -17 b 92 201 188 -17 92 67 b 400 410 92 333 185 410 l 553 410 l 553 481 b 382 639 553 585 490 639 b 190 533 286 639 228 599 l 115 589 b 389 733 151 664 243 733 b 664 492 557 733 664 643 l 664 97 l 764 97 l 764 0 m 357 76 b 553 208 471 76 553 135 l 553 326 l 400 326 b 208 218 268 326 208 288 l 208 189 b 357 76 208 115 265 76 m 264 858 b 185 922 207 858 185 886 l 185 942 b 264 1006 185 978 207 1006 b 343 942 321 1006 343 978 l 343 922 b 264 858 343 886 321 858 m 522 858 b 443 922 465 858 443 886 l 443 942 b 522 1006 443 978 465 1006 b 601 942 579 1006 601 978 l 601 922 b 522 858 601 886 579 858 "},"ӑ":{"ha":833,"x_min":0,"x_max":0,"o":"m 688 0 b 560 117 601 0 568 50 l 553 117 b 338 -17 522 35 454 -17 b 92 201 188 -17 92 67 b 400 410 92 333 185 410 l 553 410 l 553 481 b 382 639 553 585 490 639 b 190 533 286 639 228 599 l 115 589 b 389 733 151 664 243 733 b 664 492 557 733 664 643 l 664 97 l 764 97 l 764 0 m 357 76 b 553 208 471 76 553 135 l 553 326 l 400 326 b 208 218 268 326 208 288 l 208 189 b 357 76 208 115 265 76 m 393 826 b 200 956 299 826 244 867 l 161 1035 l 261 1067 l 317 919 b 393 911 336 913 371 911 b 469 919 415 911 450 913 l 525 1067 l 625 1035 l 586 956 b 393 826 542 867 488 826 "},"ӕ":{"ha":833,"x_min":0,"x_max":0,"o":"m 196 -17 b 14 192 92 -17 14 56 b 261 410 14 336 101 410 l 349 410 l 349 483 b 236 650 349 607 307 650 b 104 540 165 650 131 606 l 31 586 b 240 733 60 661 129 733 b 413 625 324 733 381 694 l 417 625 b 589 733 454 704 517 733 b 808 406 733 733 808 621 l 808 331 l 450 331 l 450 296 b 583 72 450 165 496 72 b 717 196 656 72 693 133 l 797 158 b 581 -17 769 74 697 -17 b 378 142 486 -17 417 42 l 374 142 b 196 -17 349 33 282 -17 m 215 69 b 349 214 306 69 349 138 l 349 331 l 276 331 b 115 211 175 331 115 296 l 115 190 b 215 69 115 115 142 69 m 583 653 b 450 457 499 653 450 589 l 450 410 l 717 410 l 717 457 b 583 653 717 589 668 653 "},"ѓ":{"ha":833,"x_min":0,"x_max":0,"o":"m 188 717 l 701 717 l 701 622 l 299 622 l 299 0 l 188 0 m 454 813 l 382 846 l 500 1082 l 601 1033 "},"ґ":{"ha":833,"x_min":0,"x_max":0,"o":"m 188 717 l 600 717 l 600 911 l 701 911 l 701 622 l 299 622 l 299 0 l 188 0 "},"ғ":{"ha":833,"x_min":0,"x_max":0,"o":"m 213 310 l 61 310 l 61 396 l 213 396 l 213 717 l 726 717 l 726 622 l 324 622 l 324 396 l 592 396 l 592 310 l 324 310 l 324 0 l 213 0 "},"ҕ":{"ha":833,"x_min":0,"x_max":0,"o":"m 449 -183 l 565 -183 b 611 -7 593 -150 611 -90 l 611 128 b 451 296 611 253 564 296 b 264 208 342 296 264 267 l 264 0 l 153 0 l 153 717 l 606 717 l 606 622 l 264 622 l 264 310 l 271 310 b 485 396 322 367 383 396 b 722 142 639 396 722 322 l 722 -24 b 513 -278 722 -204 638 -278 l 449 -278 "},"ѐ":{"ha":833,"x_min":0,"x_max":0,"o":"m 429 -17 b 93 357 224 -17 93 131 b 422 733 93 586 228 733 b 740 383 615 733 740 586 l 740 331 l 210 331 l 210 297 b 429 79 210 171 294 79 b 635 204 525 79 597 126 l 717 149 b 429 -17 674 53 571 -17 m 422 642 b 210 424 300 642 210 549 l 210 414 l 621 414 l 621 429 b 422 642 621 556 540 642 m 263 1033 l 364 1082 l 482 846 l 410 813 "},"ё":{"ha":833,"x_min":0,"x_max":0,"o":"m 429 -17 b 93 357 224 -17 93 131 b 422 733 93 586 228 733 b 740 383 615 733 740 586 l 740 331 l 210 331 l 210 297 b 429 79 210 171 294 79 b 635 204 525 79 597 126 l 717 149 b 429 -17 674 53 571 -17 m 422 642 b 210 424 300 642 210 549 l 210 414 l 621 414 l 621 429 b 422 642 621 556 540 642 m 290 858 b 211 922 233 858 211 886 l 211 942 b 290 1006 211 978 233 1006 b 369 942 347 1006 369 978 l 369 922 b 290 858 369 886 347 858 m 549 858 b 469 922 492 858 469 886 l 469 942 b 549 1006 469 978 492 1006 b 628 942 606 1006 628 978 l 628 922 b 549 858 628 886 606 858 "},"ӗ":{"ha":833,"x_min":0,"x_max":0,"o":"m 429 -17 b 93 357 224 -17 93 131 b 422 733 93 586 228 733 b 740 383 615 733 740 586 l 740 331 l 210 331 l 210 297 b 429 79 210 171 294 79 b 635 204 525 79 597 126 l 717 149 b 429 -17 674 53 571 -17 m 422 642 b 210 424 300 642 210 549 l 210 414 l 621 414 l 621 429 b 422 642 621 556 540 642 m 419 826 b 226 956 325 826 271 867 l 188 1035 l 288 1067 l 343 919 b 419 911 363 913 397 911 b 496 919 442 911 476 913 l 551 1067 l 651 1035 l 613 956 b 419 826 568 867 514 826 "},"є":{"ha":833,"x_min":0,"x_max":0,"o":"m 442 -17 b 117 358 236 -17 117 132 b 440 733 117 586 238 733 b 706 568 579 733 665 665 l 617 521 b 440 638 590 594 529 638 b 236 419 310 638 236 546 l 236 408 l 547 408 l 547 315 l 236 315 l 236 297 b 443 79 236 171 308 79 b 638 204 539 79 601 126 l 717 150 b 442 -17 675 54 585 -17 "},"ӝ":{"ha":833,"x_min":0,"x_max":0,"o":"m 365 324 l 243 324 l 153 0 l 42 0 l 121 282 b 199 367 136 335 160 361 l 199 372 b 126 454 163 381 140 406 l 50 717 l 156 717 l 243 415 l 365 415 l 365 717 l 468 717 l 468 415 l 590 415 l 679 717 l 783 717 l 706 454 b 635 372 690 406 671 381 l 635 367 b 714 282 674 361 700 335 l 792 0 l 679 0 l 590 324 l 468 324 l 468 0 l 365 0 m 288 858 b 208 922 231 858 208 886 l 208 942 b 288 1006 208 978 231 1006 b 367 942 344 1006 367 978 l 367 922 b 288 858 367 886 344 858 m 546 858 b 467 922 489 858 467 886 l 467 942 b 546 1006 467 978 489 1006 b 625 942 603 1006 625 978 l 625 922 b 546 858 625 886 603 858 "},"ӂ":{"ha":833,"x_min":0,"x_max":0,"o":"m 365 324 l 243 324 l 153 0 l 42 0 l 121 282 b 199 367 136 335 160 361 l 199 372 b 126 454 163 381 140 406 l 50 717 l 156 717 l 243 415 l 365 415 l 365 717 l 468 717 l 468 415 l 590 415 l 679 717 l 783 717 l 706 454 b 635 372 690 406 671 381 l 635 367 b 714 282 674 361 700 335 l 792 0 l 679 0 l 590 324 l 468 324 l 468 0 l 365 0 m 417 826 b 224 956 322 826 268 867 l 185 1035 l 285 1067 l 340 919 b 417 911 360 913 394 911 b 493 919 439 911 474 913 l 549 1067 l 649 1035 l 610 956 b 417 826 565 867 511 826 "},"җ":{"ha":833,"x_min":0,"x_max":0,"o":"m 732 0 l 668 0 l 579 324 l 457 324 l 457 0 l 354 0 l 354 324 l 232 324 l 142 0 l 31 0 l 110 282 b 188 367 125 335 149 361 l 188 372 b 115 454 151 381 129 406 l 39 717 l 144 717 l 232 415 l 354 415 l 354 717 l 457 717 l 457 415 l 579 415 l 668 717 l 772 717 l 694 454 b 624 372 679 406 660 381 l 624 367 b 703 282 663 361 689 335 l 754 94 l 829 94 l 829 -194 l 732 -194 "},"ӟ":{"ha":833,"x_min":0,"x_max":0,"o":"m 388 -17 b 85 122 240 -17 146 33 l 167 189 b 388 79 211 118 282 79 b 576 193 519 79 576 126 l 576 213 b 439 324 576 285 528 324 l 246 324 l 246 417 l 425 417 b 561 518 514 417 561 453 l 561 535 b 390 638 561 596 515 638 b 174 532 279 638 215 599 l 96 585 b 396 733 160 679 247 733 b 679 540 586 733 679 660 b 547 381 679 451 631 401 l 547 375 b 694 208 643 361 694 299 b 388 -17 694 71 582 -17 m 267 858 b 188 922 210 858 188 886 l 188 942 b 267 1006 188 978 210 1006 b 346 942 324 1006 346 978 l 346 922 b 267 858 346 886 324 858 m 525 858 b 446 922 468 858 446 886 l 446 942 b 525 1006 446 978 468 1006 b 604 942 582 1006 604 978 l 604 922 b 525 858 604 886 582 858 "},"ҙ":{"ha":833,"x_min":0,"x_max":0,"o":"m 338 -14 b 85 122 218 -4 139 43 l 167 189 b 388 79 211 118 282 79 b 576 193 519 79 576 126 l 576 213 b 439 324 576 285 528 324 l 246 324 l 246 417 l 425 417 b 561 518 514 417 561 453 l 561 535 b 390 638 561 596 515 638 b 174 532 279 638 215 599 l 96 585 b 396 733 160 679 247 733 b 679 540 586 733 679 660 b 547 381 679 451 631 401 l 547 375 b 694 208 643 361 694 299 b 439 -14 694 83 601 0 l 439 -194 l 338 -194 "},"ӏ":{"ha":833,"x_min":0,"x_max":0,"o":"m 111 94 l 361 94 l 361 933 l 111 933 l 111 1028 l 722 1028 l 722 933 l 472 933 l 472 94 l 722 94 l 722 0 l 111 0 "},"ӥ":{"ha":833,"x_min":0,"x_max":0,"o":"m 132 717 l 243 717 l 243 351 l 232 168 l 238 168 l 597 717 l 701 717 l 701 0 l 590 0 l 590 365 l 601 549 l 596 549 l 236 0 l 132 0 m 282 858 b 203 922 225 858 203 886 l 203 942 b 282 1006 203 978 225 1006 b 361 942 339 1006 361 978 l 361 922 b 282 858 361 886 339 858 m 540 858 b 461 922 483 858 461 886 l 461 942 b 540 1006 461 978 483 1006 b 619 942 597 1006 619 978 l 619 922 b 540 858 619 886 597 858 "},"ѝ":{"ha":833,"x_min":0,"x_max":0,"o":"m 132 717 l 243 717 l 243 351 l 232 168 l 238 168 l 597 717 l 701 717 l 701 0 l 590 0 l 590 365 l 601 549 l 596 549 l 236 0 l 132 0 m 254 1033 l 356 1082 l 474 846 l 401 813 "},"ӣ":{"ha":833,"x_min":0,"x_max":0,"o":"m 132 717 l 243 717 l 243 351 l 232 168 l 238 168 l 597 717 l 701 717 l 701 0 l 590 0 l 590 365 l 601 549 l 596 549 l 236 0 l 132 0 m 217 979 l 606 979 l 606 885 l 217 885 "},"ќ":{"ha":833,"x_min":0,"x_max":0,"o":"m 149 717 l 260 717 l 260 417 l 413 417 l 606 717 l 721 717 l 546 444 b 461 372 514 396 494 381 l 461 367 b 549 297 497 361 521 344 l 665 94 l 746 94 l 746 0 l 665 0 b 550 83 618 0 585 24 l 413 322 l 260 322 l 260 0 l 149 0 m 421 813 l 349 846 l 467 1082 l 568 1033 "},"қ":{"ha":833,"x_min":0,"x_max":0,"o":"m 642 0 b 539 83 600 6 569 29 l 401 322 l 249 322 l 249 0 l 138 0 l 138 717 l 249 717 l 249 417 l 401 417 l 594 717 l 710 717 l 535 444 b 450 372 503 396 483 381 l 450 367 b 538 297 486 361 510 344 l 654 94 l 743 94 l 743 -194 l 642 -194 "},"ҝ":{"ha":833,"x_min":0,"x_max":0,"o":"m 307 322 l 232 322 l 232 0 l 121 0 l 121 717 l 232 717 l 232 417 l 307 417 l 307 581 l 393 581 l 393 417 l 449 417 l 633 717 l 749 717 l 582 446 b 497 372 551 396 531 381 l 497 367 b 583 297 533 361 558 344 l 693 94 l 774 94 l 774 0 l 693 0 b 575 89 646 0 611 22 l 449 322 l 393 322 l 393 160 l 307 160 "},"ҡ":{"ha":833,"x_min":0,"x_max":0,"o":"m 224 622 l 15 622 l 15 717 l 335 717 l 335 417 l 468 417 l 647 717 l 763 717 l 600 447 b 513 372 572 400 546 381 l 513 367 b 603 293 549 361 578 340 l 707 94 l 788 94 l 788 0 l 707 0 b 585 100 660 0 625 22 l 468 322 l 335 322 l 335 0 l 224 0 "},"љ":{"ha":833,"x_min":0,"x_max":0,"o":"m 3 92 l 71 92 b 154 526 124 164 154 276 l 154 717 l 507 717 l 507 457 l 588 457 b 814 229 733 457 814 372 b 588 0 814 85 733 0 l 404 0 l 404 625 l 254 625 l 254 524 b 150 47 254 249 210 107 b 24 0 115 13 72 0 l 3 0 m 571 92 b 704 200 657 92 704 126 l 704 257 b 571 365 704 331 657 365 l 507 365 l 507 92 "},"ң":{"ha":833,"x_min":0,"x_max":0,"o":"m 117 717 l 228 717 l 228 417 l 563 417 l 563 717 l 674 717 l 674 94 l 792 94 l 792 -194 l 690 -194 l 690 0 l 563 0 l 563 322 l 228 322 l 228 0 l 117 0 "},"њ":{"ha":833,"x_min":0,"x_max":0,"o":"m 75 717 l 178 717 l 178 415 l 404 415 l 404 717 l 507 717 l 507 457 l 588 457 b 814 229 733 457 814 372 b 588 0 814 85 733 0 l 404 0 l 404 324 l 178 324 l 178 0 l 75 0 m 571 92 b 704 200 657 92 704 126 l 704 257 b 571 365 704 331 657 365 l 507 365 l 507 92 "},"ҥ":{"ha":833,"x_min":0,"x_max":0,"o":"m 75 717 l 186 717 l 186 417 l 438 417 l 438 717 l 800 717 l 800 622 l 549 622 l 549 0 l 438 0 l 438 322 l 186 322 l 186 0 l 75 0 "},"ӧ":{"ha":833,"x_min":0,"x_max":0,"o":"m 417 -17 b 92 358 215 -17 92 131 b 417 733 92 586 215 733 b 742 358 618 733 742 586 b 417 -17 742 131 618 -17 m 417 79 b 624 307 540 79 624 153 l 624 410 b 417 638 624 564 540 638 b 210 410 293 638 210 564 l 210 307 b 417 79 210 153 293 79 m 288 858 b 208 922 231 858 208 886 l 208 942 b 288 1006 208 978 231 1006 b 367 942 344 1006 367 978 l 367 922 b 288 858 367 886 344 858 m 546 858 b 467 922 489 858 467 886 l 467 942 b 546 1006 467 978 489 1006 b 625 942 603 1006 625 978 l 625 922 b 546 858 625 886 603 858 "},"ѳ":{"ha":833,"x_min":0,"x_max":0,"o":"m 417 -17 b 92 358 215 -17 92 131 b 417 733 92 586 215 733 b 742 358 618 733 742 586 b 417 -17 742 131 618 -17 m 417 79 b 624 307 540 79 624 153 l 624 315 l 210 315 l 210 307 b 417 79 210 153 293 79 m 417 638 b 210 410 293 638 210 564 l 624 410 b 417 638 624 564 540 638 "},"ө":{"ha":833,"x_min":0,"x_max":0,"o":"m 417 -17 b 92 358 215 -17 92 131 b 417 733 92 586 215 733 b 742 358 618 733 742 586 b 417 -17 742 131 618 -17 m 417 79 b 624 307 540 79 624 153 l 624 315 l 210 315 l 210 307 b 417 79 210 153 293 79 m 417 638 b 210 410 293 638 210 564 l 624 410 b 417 638 624 564 540 638 "},"ҫ":{"ha":833,"x_min":0,"x_max":0,"o":"m 392 -14 b 117 358 217 8 117 151 b 440 733 117 586 238 733 b 706 568 579 733 665 665 l 617 521 b 440 638 590 594 529 638 b 236 419 310 638 236 546 l 236 297 b 443 79 236 171 308 79 b 638 204 539 79 601 126 l 717 150 b 493 -14 679 65 607 1 l 493 -194 l 392 -194 "},"ӯ":{"ha":833,"x_min":0,"x_max":0,"o":"m 649 717 l 760 717 l 404 -157 b 221 -278 371 -239 329 -278 l 115 -278 l 115 -183 l 282 -183 l 363 14 l 74 717 l 188 717 l 308 417 l 415 144 l 421 144 l 528 417 m 222 979 l 611 979 l 611 885 l 222 885 "}}}
